<svg xmlns="http://www.w3.org/2000/svg" viewBox="0 0 12.718 12.718">
  <defs/>
  <g opacity=".56">
    <g data-name="Group 43">
      <path fill="#fff" d="M5.65.38L4.206.054a2.187 2.187 0 00-2.615 1.652l-.329 1.456A6.027 6.027 0 015.65.38zM.38 7.068L.054 8.512a2.187 2.187 0 001.651 2.615l1.456.329A6.027 6.027 0 01.38 7.068zm10.633-5.477l-1.456-.329a6.027 6.027 0 012.782 4.387l.326-1.444a2.187 2.187 0 00-1.652-2.614zM7.068 12.338l1.444.326a2.187 2.187 0 002.615-1.651l.329-1.456a6.027 6.027 0 01-4.388 2.782z" data-name="Path 160"/>
    </g>
    <path fill="#fff" d="M6.359 1.004a5.355 5.355 0 105.355 5.355 5.355 5.355 0 00-5.355-5.355zM5.02 2.677a1.339 1.339 0 11-1.339 1.339A1.339 1.339 0 015.02 2.677zm-1 6.359a1.339 1.339 0 111.339-1.339 1.339 1.339 0 01-1.343 1.34zm1.673-2.678a.669.669 0 11.669.654.669.669 0 01-.672-.653zm2.008 3.682a1.339 1.339 0 111.336-1.336 1.339 1.339 0 01-1.339 1.337zm1-3.682a1.339 1.339 0 111.339-1.339 1.339 1.339 0 01-1.336 1.34z" data-name="Path 161"/>
  </g>
</svg>
