<svg version="1.2" xmlns="http://www.w3.org/2000/svg" viewBox="0 0 301 301" width="50" height="50">
	<title>clock-svgrepo-com-svg</title>
	<style>
		.s0 { fill: #afb6bc } 
	</style>
	<g id="Layer">
		<g id="Layer">
			<path id="Layer" fill-rule="evenodd" class="s0" d="m301 150.5c0 83-67.5 150.5-150.5 150.5c-83 0-150.5-67.5-150.5-150.5c0-83 67.5-150.5 150.5-150.5c83 0 150.5 67.5 150.5 150.5zm-15 0c0-74.7-60.8-135.5-135.5-135.5c-74.7 0-135.5 60.8-135.5 135.5c0 74.7 60.8 135.5 135.5 135.5c74.7 0 135.5-60.8 135.5-135.5z" />
			<path id="Layer" class="s0" d="m143 43.9h15v114.1h-74.9v-15h59.9z" />
		</g>
		<g id="Layer">
		</g>
		<g id="Layer">
		</g>
		<g id="Layer">
		</g>
		<g id="Layer">
		</g>
		<g id="Layer">
		</g>
		<g id="Layer">
		</g>
		<g id="Layer">
		</g>
		<g id="Layer">
		</g>
		<g id="Layer">
		</g>
		<g id="Layer">
		</g>
		<g id="Layer">
		</g>
		<g id="Layer">
		</g>
		<g id="Layer">
		</g>
		<g id="Layer">
		</g>
		<g id="Layer">
		</g>
	</g>
	<g id="Layer">
	</g>
	<g id="Layer">
	</g>
	<g id="Layer">
	</g>
	<g id="Layer">
	</g>
	<g id="Layer">
	</g>
	<g id="Layer">
	</g>
	<g id="Layer">
	</g>
	<g id="Layer">
	</g>
	<g id="Layer">
	</g>
	<g id="Layer">
	</g>
	<g id="Layer">
	</g>
	<g id="Layer">
	</g>
	<g id="Layer">
	</g>
	<g id="Layer">
	</g>
	<g id="Layer">
	</g>
</svg>