<svg xmlns="http://www.w3.org/2000/svg" xmlns:xlink="http://www.w3.org/1999/xlink" width="37.225" height="47.955" viewBox="0 0 37.225 47.955">
  <defs>
    <linearGradient id="linear-gradient" x1="-0.125" y1="0.569" x2="1" y2="0.569" gradientUnits="objectBoundingBox">
      <stop offset="0" stop-color="#fff" stop-opacity="0.302"/>
      <stop offset="1" stop-color="#fff" stop-opacity="0"/>
    </linearGradient>
    <linearGradient id="linear-gradient-2" x1="-0.132" y1="0.638" x2="1.091" y2="0.72" xlink:href="#linear-gradient"/>
    <linearGradient id="linear-gradient-3" x1="-0.042" y1="0.601" x2="0.896" y2="0.5" xlink:href="#linear-gradient"/>
  </defs>
  <g id="server-hover" transform="translate(1 1)">
    <g id="dbicon">
      <path id="Oval" d="M17.606,0C27.33,0,35.213,3.736,35.213,8.344s-7.883,8.344-17.606,8.344S0,12.953,0,8.344,7.883,0,17.606,0Z" transform="translate(0.012)" fill="#16c3d9" stroke="#7deef6" stroke-width="2"/>
      <path id="Path" d="M7.3,9.74v9.788c0,4.649,7.892,8.344,17.619,8.344s17.606-3.732,17.606-8.344V9.74" transform="translate(-7.3 -1.396)" fill="none" stroke="#00bfff" stroke-width="2"/>
      <g id="Group" transform="translate(0 8.332)">
        <path id="Path-2" data-name="Path" d="M42.525,9.742V19.53c0,4.649-7.892,8.344-17.606,8.344S7.3,24.131,7.3,19.518V9.73c0,4.649,7.892,8.344,17.619,8.344S42.525,14.416,42.525,9.742Z" transform="translate(-7.3 -9.73)" stroke="#9cffff" stroke-width="2" fill="url(#linear-gradient)"/>
        <line id="Path-3" data-name="Path" x2="4.919" transform="translate(15.159 13.202)" fill="none" stroke="#fff" stroke-width="2"/>
      </g>
      <g id="Group-2" data-name="Group" transform="translate(0 18.12)">
        <path id="Path-4" data-name="Path" d="M42.525,17.73v9.7c0,4.649-7.892,8.381-17.606,8.381S7.3,32.143,7.3,27.433v-9.7c0,4.649,7.892,8.344,17.619,8.344S42.525,22.343,42.525,17.73Z" transform="translate(-7.3 -17.73)" stroke="#9cffff" stroke-width="2" fill="url(#linear-gradient-2)"/>
        <line id="Path-5" data-name="Path" x2="4.919" transform="translate(15.159 13.251)" fill="none" stroke="#fff" stroke-width="2"/>
      </g>
      <g id="Group-3" data-name="Group" transform="translate(0 27.823)">
        <path id="Path-6" data-name="Path" d="M42.525,25.66v9.788c0,4.649-7.892,8.344-17.606,8.344S7.3,40.122,7.3,35.448V25.66c0,4.649,7.892,8.381,17.619,8.381S42.525,30.309,42.525,25.66Z" transform="translate(-7.3 -25.66)" stroke="#9cffff" stroke-width="2" fill="url(#linear-gradient-3)"/>
        <path id="Path-7" data-name="Path" d="M0,0H4.919" transform="translate(15.159 13.287)" fill="none" stroke="#fff" stroke-width="2"/>
      </g>
    </g>
  </g>
</svg>
