<svg xmlns="http://www.w3.org/2000/svg" width="23.783" height="22.211" viewBox="0 0 23.783 22.211">
  <g id="Group_373" data-name="Group 373" transform="translate(-666.76 -1403.98)">
    <g id="sadasdsdaa" transform="translate(666.859 1404.08)">
      <g id="_4-Vector_Graphic" data-name="4-Vector Graphic" transform="translate(0 0)">
        <path id="Path_1348" data-name="Path 1348" d="M14.751,5.931H13.179A1.179,1.179,0,0,1,12,4.751V3.179A1.179,1.179,0,0,1,13.179,2h1.572a1.179,1.179,0,0,1,1.179,1.179V4.751A1.179,1.179,0,0,1,14.751,5.931ZM13.179,2.786a.393.393,0,0,0-.393.393V4.751a.393.393,0,0,0,.393.393h1.572a.393.393,0,0,0,.393-.393V3.179a.393.393,0,0,0-.393-.393Z" transform="translate(-7.283 -2)" fill="#00d3d3" stroke="#00d3d3" stroke-width="0.2"/>
        <path id="Path_1349" data-name="Path 1349" d="M52.751,5.931H51.179A1.179,1.179,0,0,1,50,4.751V3.179A1.179,1.179,0,0,1,51.179,2h1.572a1.179,1.179,0,0,1,1.179,1.179V4.751A1.179,1.179,0,0,1,52.751,5.931ZM51.179,2.786a.393.393,0,0,0-.393.393V4.751a.393.393,0,0,0,.393.393h1.572a.393.393,0,0,0,.393-.393V3.179a.393.393,0,0,0-.393-.393Z" transform="translate(-30.347 -2)" fill="#00d3d3" stroke="#00d3d3" stroke-width="0.2"/>
        <path id="Path_1350" data-name="Path 1350" d="M49.751,36.931H48.179A1.179,1.179,0,0,1,47,35.751V34.179A1.179,1.179,0,0,1,48.179,33h1.572a1.179,1.179,0,0,1,1.179,1.179v1.572A1.179,1.179,0,0,1,49.751,36.931Zm-1.572-3.144a.393.393,0,0,0-.393.393v1.572a.393.393,0,0,0,.393.393h1.572a.393.393,0,0,0,.393-.393V34.179a.393.393,0,0,0-.393-.393Z" transform="translate(-28.527 -20.815)" fill="#00d3d3" stroke="#00d3d3" stroke-width="0.2"/>
        <path id="Path_1351" data-name="Path 1351" d="M32.185,6.786H20.393a.393.393,0,0,1,0-.786H32.185a.393.393,0,0,1,0,.786Z" transform="translate(-12.139 -4.428)" fill="#00d3d3" stroke="#00d3d3" stroke-width="0.2"/>
        <path id="Path_1352" data-name="Path 1352" d="M35.606,17.4A.393.393,0,0,1,35.213,17a10,10,0,0,0-2.7-7.449,10.916,10.916,0,0,0-7.114-2.771h-.008A.393.393,0,1,1,25.379,6a11.585,11.585,0,0,1,7.681,3A10.755,10.755,0,0,1,36,17,.393.393,0,0,1,35.606,17.4Z" transform="translate(-15.168 -4.427)" fill="#00d3d3" stroke="#00d3d3" stroke-width="0.2"/>
        <ellipse id="Ellipse_150" data-name="Ellipse 150" cx="0.379" cy="0.409" rx="0.379" ry="0.409" transform="translate(3.152 1.549)" fill="#00d3d3" stroke="#00d3d3" stroke-width="0.2"/>
        <ellipse id="Ellipse_151" data-name="Ellipse 151" cx="0.379" cy="0.409" rx="0.379" ry="0.409" transform="translate(1.576 1.549)" fill="#00d3d3" stroke="#00d3d3" stroke-width="0.2"/>
        <ellipse id="Ellipse_152" data-name="Ellipse 152" cx="0.379" cy="0.409" rx="0.379" ry="0.409" transform="translate(0 1.549)" fill="#00d3d3" stroke="#00d3d3" stroke-width="0.2"/>
        <path id="Path_1353" data-name="Path 1353" d="M5.931,29.15a.393.393,0,0,1-.393-.393,3.41,3.41,0,0,0-2.358-3.1L3,25.573A1.791,1.791,0,0,1,2,24.04a.393.393,0,0,1,.055-.2l5.11-8.647a.393.393,0,1,1,.677.4L2.8,24.13a1.012,1.012,0,0,0,.559.735l.166.081a4.148,4.148,0,0,1,2.8,3.81A.393.393,0,0,1,5.931,29.15Z" transform="translate(-1.214 -9.89)" fill="#00d3d3" stroke="#00d3d3" stroke-width="0.2"/>
        <path id="Path_1354" data-name="Path 1354" d="M15.393,22.075A.393.393,0,0,1,15,21.682V15.393a.393.393,0,0,1,.786,0v6.289A.393.393,0,0,1,15.393,22.075Z" transform="translate(-9.104 -9.89)" fill="#00d3d3" stroke="#00d3d3" stroke-width="0.2"/>
        <path id="Path_1355" data-name="Path 1355" d="M18.931,52.537a.393.393,0,0,1-.393-.393V51.056a3.724,3.724,0,0,1-.393-1.27H15.393a.393.393,0,1,1,0-.786h2.751a.77.77,0,0,1,.786.786,3.488,3.488,0,0,0,.352,1,.393.393,0,0,1,.041.176v1.179A.393.393,0,0,1,18.931,52.537Z" transform="translate(-9.104 -30.526)" fill="#00d3d3" stroke="#00d3d3" stroke-width="0.2"/>
        <path id="Path_1356" data-name="Path 1356" d="M13.572,34.144a1.572,1.572,0,1,1,1.572-1.572A1.572,1.572,0,0,1,13.572,34.144Zm0-2.358a.786.786,0,1,0,.786.786A.786.786,0,0,0,13.572,31.786Z" transform="translate(-7.283 -19.601)" fill="#00d3d3" stroke="#00d3d3" stroke-width="0.2"/>
        <path id="Path_1357" data-name="Path 1357" d="M6.393,52.537A.393.393,0,0,1,6,52.144V50.965a.393.393,0,0,1,.041-.176,3.5,3.5,0,0,0,.352-1A.77.77,0,0,1,7.179,49H9.931a.393.393,0,0,1,0,.786H7.179a3.724,3.724,0,0,1-.393,1.27v1.088A.393.393,0,0,1,6.393,52.537Z" transform="translate(-3.642 -30.526)" fill="#00d3d3" stroke="#00d3d3" stroke-width="0.2"/>
        <path id="Path_1358" data-name="Path 1358" d="M11.9,53.786h-5.5a.393.393,0,1,1,0-.786h5.5a.393.393,0,1,1,0,.786Z" transform="translate(-3.642 -32.954)" fill="#00d3d3" stroke="#00d3d3" stroke-width="0.2"/>
        <path id="Path_1359" data-name="Path 1359" d="M16.965,29.15a.393.393,0,0,1-.393-.393,4.143,4.143,0,0,1,2.8-3.808l.166-.081a1,1,0,0,0,.559-.736l-5.046-8.538a.393.393,0,1,1,.677-.4l5.11,8.647a.393.393,0,0,1,.055.2,1.791,1.791,0,0,1-1,1.533l-.176.083a3.41,3.41,0,0,0-2.358,3.1A.393.393,0,0,1,16.965,29.15Z" transform="translate(-9.104 -9.89)" fill="#00d3d3" stroke="#00d3d3" stroke-width="0.2"/>
      </g>
    </g>
  </g>
</svg>
