<svg xmlns="http://www.w3.org/2000/svg" width="25.224" height="25.225" viewBox="0 0 25.224 25.225">
  <g id="Group_376" data-name="Group 376" transform="translate(-486.721 -1491.657)">
    <g id="sd" transform="translate(486.722 1491.657)">
      <g id="XMLID_1011_" transform="translate(0)">
        <g id="XMLID_217_">
          <path id="XMLID_218_" d="M102.5,44a.493.493,0,1,0,.348.144A.5.5,0,0,0,102.5,44Z" transform="translate(-96.985 -41.832)" fill="#00d3d3"/>
          <path id="XMLID_1591_" d="M54.5,44a.493.493,0,1,0,.348.144A.5.5,0,0,0,54.5,44Z" transform="translate(-51.35 -41.832)" fill="#00d3d3"/>
          <path id="XMLID_1675_" d="M150.5,44a.493.493,0,1,0,.348.144A.5.5,0,0,0,150.5,44Z" transform="translate(-142.62 -41.832)" fill="#00d3d3"/>
          <path id="XMLID_1676_" d="M156.541,360.02H152.42a.493.493,0,0,0,0,.985h4.122a.493.493,0,0,0,0-.985Z" transform="translate(-144.443 -342.284)" fill="#00d3d3"/>
          <path id="XMLID_1678_" d="M288.2,360.02a.493.493,0,1,0,.348.144A.5.5,0,0,0,288.2,360.02Z" transform="translate(-273.536 -342.284)" fill="#00d3d3"/>
          <path id="XMLID_1682_" d="M340.583,360.02a.493.493,0,1,0,.348.144A.5.5,0,0,0,340.583,360.02Z" transform="translate(-323.336 -342.284)" fill="#00d3d3"/>
          <path id="XMLID_1683_" d="M156.541,184.02H152.42a.493.493,0,0,0,0,.985h4.122a.493.493,0,0,0,0-.985Z" transform="translate(-144.443 -174.954)" fill="#00d3d3"/>
          <path id="XMLID_1686_" d="M288.2,184.02a.493.493,0,1,0,.348.144A.5.5,0,0,0,288.2,184.02Z" transform="translate(-273.536 -174.954)" fill="#00d3d3"/>
          <path id="XMLID_1726_" d="M340.583,184.02a.493.493,0,1,0,.348.144A.5.5,0,0,0,340.583,184.02Z" transform="translate(-323.336 -174.954)" fill="#00d3d3"/>
          <path id="XMLID_1727_" d="M156.541,272.02H152.42a.493.493,0,0,0,0,.985h4.122a.493.493,0,0,0,0-.985Z" transform="translate(-144.443 -258.619)" fill="#00d3d3"/>
          <path id="XMLID_1728_" d="M288.2,272.02a.493.493,0,1,0,.348.144A.5.5,0,0,0,288.2,272.02Z" transform="translate(-273.536 -258.619)" fill="#00d3d3"/>
          <path id="XMLID_1729_" d="M340.583,272.02a.493.493,0,1,0,.348.144A.5.5,0,0,0,340.583,272.02Z" transform="translate(-323.336 -258.619)" fill="#00d3d3"/>
          <path id="XMLID_1741_" d="M23.165,0H2.079A2.071,2.071,0,0,0,.01,2.069V16.846a2.071,2.071,0,0,0,2.069,2.069H5.232v.5A1.48,1.48,0,0,0,6.71,20.889h5.419v1.059a1.682,1.682,0,0,0-1.108,1.108h-5.3a.493.493,0,1,0,0,.985h5.3a1.675,1.675,0,0,0,3.2,0h5.3a.493.493,0,1,0,0-.985h-5.3a1.682,1.682,0,0,0-1.108-1.108V20.889h5.419a1.48,1.48,0,0,0,1.478-1.478v-.5h3.153a2.071,2.071,0,0,0,2.069-2.069V2.069A2.071,2.071,0,0,0,23.165,0ZM12.622,24.239a.69.69,0,1,1,.69-.69A.69.69,0,0,1,12.622,24.239Zm-6.4-13.5V8.376a.493.493,0,0,1,.493-.493H18.534a.493.493,0,0,1,.493.493v2.365a.493.493,0,0,1-.493.493H6.71A.493.493,0,0,1,6.217,10.741Zm0,4.335V12.711a.493.493,0,0,1,.493-.493H18.534a.493.493,0,0,1,.493.493v2.365a.493.493,0,0,1-.493.493H6.71A.493.493,0,0,1,6.217,15.076ZM18.534,19.9H6.71a.493.493,0,0,1-.493-.493V17.047a.493.493,0,0,1,.493-.493H18.534a.493.493,0,0,1,.493.493v2.365A.493.493,0,0,1,18.534,19.9Zm4.631-1.974H20.012v-.883a1.472,1.472,0,0,0-.378-.985,1.472,1.472,0,0,0,.378-.985V12.711a1.472,1.472,0,0,0-.378-.985,1.472,1.472,0,0,0,.378-.985V8.376A1.48,1.48,0,0,0,18.534,6.9H6.71A1.48,1.48,0,0,0,5.232,8.376v2.365a1.472,1.472,0,0,0,.378.985,1.472,1.472,0,0,0-.378.985v2.365a1.472,1.472,0,0,0,.378.985,1.472,1.472,0,0,0-.378.985v.883H2.079A1.085,1.085,0,0,1,1,16.846V5.321H10.4a.493.493,0,1,0,0-.985H1V2.069A1.085,1.085,0,0,1,2.079.985H23.165a1.085,1.085,0,0,1,1.084,1.084V4.335h-9.41a.493.493,0,1,0,0,.985h9.41V16.846A1.085,1.085,0,0,1,23.165,17.93Z" transform="translate(-0.01 0)" fill="#00d3d3"/>
          <path id="XMLID_1759_" d="M246.5,88a.493.493,0,1,0,.348.144A.5.5,0,0,0,246.5,88Z" transform="translate(-233.891 -83.665)" fill="#00d3d3"/>
        </g>
      </g>
    </g>
  </g>
</svg>
