<svg xmlns="http://www.w3.org/2000/svg" xmlns:xlink="http://www.w3.org/1999/xlink" width="63.001" height="63.01" viewBox="0 0 63.001 63.01">
  <defs>
    <linearGradient id="linear-gradient" x1="-0.339" y1="1.094" x2="0.655" y2="0.39" gradientUnits="objectBoundingBox">
      <stop offset="0" stop-color="#fff"/>
      <stop offset="1" stop-color="#fff" stop-opacity="0"/>
    </linearGradient>
    <linearGradient id="linear-gradient-2" x1="0.859" y1="0.06" x2="0.214" y2="0.806" xlink:href="#linear-gradient"/>
    <linearGradient id="linear-gradient-3" x1="0.165" y1="-0.042" x2="1.251" y2="1.081" xlink:href="#linear-gradient"/>
    <linearGradient id="linear-gradient-4" x1="1.268" y1="-0.034" x2="-0.052" y2="1.164" xlink:href="#linear-gradient"/>
    <linearGradient id="linear-gradient-5" x1="0.928" y1="1.236" x2="-0.198" y2="-0.291" xlink:href="#linear-gradient"/>
    <linearGradient id="linear-gradient-6" x1="-0.07" y1="0.947" x2="0.818" y2="-0.036" xlink:href="#linear-gradient"/>
    <linearGradient id="linear-gradient-7" x1="0.608" y1="0.174" x2="0.41" y2="1.152" xlink:href="#linear-gradient"/>
    <linearGradient id="linear-gradient-8" x1="0.339" y1="1.108" x2="0.583" y2="-0.161" xlink:href="#linear-gradient"/>
    <linearGradient id="linear-gradient-9" x1="1.032" y1="0.732" x2="-0.081" y2="0.391" xlink:href="#linear-gradient"/>
    <linearGradient id="linear-gradient-10" x1="0" y1="0.5" x2="1" y2="0.5" xlink:href="#linear-gradient"/>
    <linearGradient id="linear-gradient-11" x1="0.5" y1="0.031" x2="0" y2="1.152" xlink:href="#linear-gradient"/>
  </defs>
  <g id="Group_371" data-name="Group 371" transform="translate(-919.849 -1879.397)">
    <g id="Layer_2" data-name="Layer 2" transform="translate(919.85 1879.397)">
      <g id="Layer_1" data-name="Layer 1" transform="translate(0 0)">
        <g id="Group_314" data-name="Group 314">
          <circle id="Ellipse_144" data-name="Ellipse 144" cx="27.243" cy="27.243" r="27.243" transform="translate(4.488 4.249)" fill="url(#linear-gradient)"/>
          <circle id="Ellipse_145" data-name="Ellipse 145" cx="22.943" cy="22.943" r="22.943" transform="translate(8.327 8.854)" fill="url(#linear-gradient-2)"/>
          <g id="Group_313" data-name="Group 313">
            <path id="Path_1326" data-name="Path 1326" d="M102.754,31.455A31.5,31.5,0,0,0,71.81.05h-.818a.652.652,0,1,0,0,1.3h.774a30.192,30.192,0,0,1,29.661,30.1.652.652,0,0,0,1.3,0Z" transform="translate(-39.753 -0.028)" fill="url(#linear-gradient-3)"/>
            <path id="Path_1327" data-name="Path 1327" d="M71.671,101.62c17.307-.078,31.4-15.311,31.431-32.614a.648.648,0,0,0-.648-.657A.657.657,0,0,0,101.8,69c-.03,16.6-13.541,31.257-30.135,31.331a.652.652,0,1,0,0,1.3Z" transform="translate(-40.131 -38.628)" fill="url(#linear-gradient-4)"/>
            <path id="Path_1328" data-name="Path 1328" d="M0,71.817A31.231,31.231,0,0,0,9.306,93.959a31.8,31.8,0,0,0,22.225,9.249.652.652,0,0,0,0-1.3,30.5,30.5,0,0,1-21.308-8.871A29.913,29.913,0,0,1,1.3,71.812a.652.652,0,0,0-1.3,0Z" transform="translate(0 -40.216)" fill="url(#linear-gradient-5)"/>
            <path id="Path_1329" data-name="Path 1329" d="M31.34,0c-.831.022-1.826.074-2.361.117-.435.03-.87.074-1.274.126h0A31.5,31.5,0,0,0,0,31.413a.652.652,0,1,0,1.3,0A30.2,30.2,0,0,1,27.861,1.539c.4-.052.809-.091,1.218-.122.491-.043,1.5-.113,2.292-.113A.652.652,0,0,0,31.34,0Z" transform="translate(0 0)" fill="url(#linear-gradient-6)"/>
            <path id="Path_1330" data-name="Path 1330" d="M47.233.083A12.911,12.911,0,0,0,40.1,2.94c-3.24,2.518-5.931,6.523-7.827,11.428a47.977,47.977,0,0,0-2.992,17.09c0,8.349,1.922,15.933,5.079,21.573a23.047,23.047,0,0,0,5.618,6.849,13.045,13.045,0,0,0,7.062,2.94.654.654,0,0,0,.1-1.3,11.741,11.741,0,0,1-6.357-2.661,25.2,25.2,0,0,1-7.327-10.871,46.82,46.82,0,0,1-2.87-16.524c0-8.2,1.909-15.628,4.97-21.038A21.473,21.473,0,0,1,40.9,3.957a11.641,11.641,0,0,1,6.414-2.574.653.653,0,0,0-.078-1.3Z" transform="translate(-16.545 -0.043)" fill="url(#linear-gradient-7)"/>
            <path id="Path_1331" data-name="Path 1331" d="M72.439,62.812a13.685,13.685,0,0,0,7.436-2.9c3.322-2.54,5.992-6.523,7.827-11.45A48.7,48.7,0,0,0,90.59,31.447c0-8.462-1.974-16.142-5.218-21.8a22.447,22.447,0,0,0-5.723-6.827A12.819,12.819,0,0,0,72.431.059a.653.653,0,1,0-.052,1.3,11.489,11.489,0,0,1,6.479,2.492c3.044,2.292,5.653,6.088,7.5,10.871A46.624,46.624,0,0,1,89.3,31.451C89.3,39.6,87.511,47,84.467,52.415a20.829,20.829,0,0,1-5.379,6.458,12.384,12.384,0,0,1-6.731,2.64.654.654,0,1,0,.087,1.3Z" transform="translate(-40.548 -0.033)" fill="url(#linear-gradient-8)"/>
            <path id="Path_1332" data-name="Path 1332" d="M62.877,56.769a9.272,9.272,0,0,0-3.835-3.7,37.474,37.474,0,0,0-11.35-3.861A84.078,84.078,0,0,0,31.7,47.759a74.949,74.949,0,0,0-21.351,2.787,26.013,26.013,0,0,0-6.9,3.1,10.093,10.093,0,0,0-2.174,1.918A5.257,5.257,0,0,0,.18,57.777a.651.651,0,1,0,1.274.27,3.94,3.94,0,0,1,.87-1.657,11.9,11.9,0,0,1,3.914-2.848A41.615,41.615,0,0,1,17,50.3a83.787,83.787,0,0,1,14.7-1.235A75.5,75.5,0,0,1,51.749,51.52a29.061,29.061,0,0,1,6.614,2.674,8.037,8.037,0,0,1,3.318,3.131.652.652,0,1,0,1.178-.557Z" transform="translate(-0.093 -26.99)" fill="url(#linear-gradient-9)"/>
            <path id="Path_1333" data-name="Path 1333" d="M.067,72.98a4.975,4.975,0,0,0,1.013,2.261,12.285,12.285,0,0,0,4.3,3.27,42.322,42.322,0,0,0,11.15,3.435,84.794,84.794,0,0,0,15.1,1.3,73.242,73.242,0,0,0,21.66-2.909,23.9,23.9,0,0,0,6.8-3.235,8.915,8.915,0,0,0,2.031-2.044,4.862,4.862,0,0,0,.9-2.313.655.655,0,0,0-1.3-.122,3.57,3.57,0,0,1-.67,1.692,10.371,10.371,0,0,1-3.718,2.931A39.1,39.1,0,0,1,46.6,80.62a82.739,82.739,0,0,1-14.976,1.3,73.145,73.145,0,0,1-21.164-2.8,23.873,23.873,0,0,1-6.523-2.987A8.227,8.227,0,0,1,2.12,74.454a3.744,3.744,0,0,1-.765-1.674.66.66,0,0,0-1.3.2Z" transform="translate(-0.024 -40.71)" fill="url(#linear-gradient-10)"/>
            <path id="Path_1334" data-name="Path 1334" d="M70.24,1.862v60.9a.652.652,0,1,0,1.3,0V1.862a.652.652,0,1,0-1.3,0" transform="translate(-39.696 -0.684)" fill="url(#linear-gradient-11)"/>
          </g>
        </g>
      </g>
    </g>
  </g>
</svg>
