<svg version="1.2" xmlns="http://www.w3.org/2000/svg" viewBox="0 0 116 116" width="116" height="116">
	<title>Glass-01 (1)-svg</title>
	<defs>
		<linearGradient id="g1" x1="58.3" y1="23" x2="58.3" y2="93.5" gradientUnits="userSpaceOnUse">
			<stop offset="0" stop-color="#ffffff" stop-opacity=".8"/>
			<stop offset="1" stop-color="#ffffff" stop-opacity="0"/>
		</linearGradient>
		<linearGradient id="g2" x1="58.3" y1="28.9" x2="58.3" y2="97.3" gradientUnits="userSpaceOnUse">
			<stop offset="0" stop-color="#ffffff" stop-opacity=".7"/>
			<stop offset="1" stop-color="#ffffff" stop-opacity="0"/>
		</linearGradient>
		<linearGradient id="g3" x1="35.8" y1="51.1" x2="37.2" y2="100.8" gradientUnits="userSpaceOnUse">
			<stop offset=".4" stop-color="#ffffff" stop-opacity=".8"/>
			<stop offset="1" stop-color="#ffffff" stop-opacity="0"/>
		</linearGradient>
		<linearGradient id="g4" x1="71.3" y1="58.3" x2="71.3" y2="86.8" gradientUnits="userSpaceOnUse">
			<stop offset="0" stop-color="#ffffff" stop-opacity=".8"/>
			<stop offset="1" stop-color="#ffffff" stop-opacity="0"/>
		</linearGradient>
		<linearGradient id="g5" x1="41.3" y1="34.8" x2="41.3" y2="45.3" gradientUnits="userSpaceOnUse">
			<stop offset="0" stop-color="#ffffff" stop-opacity=".8"/>
			<stop offset="1" stop-color="#ffffff" stop-opacity="0"/>
		</linearGradient>
		<linearGradient id="g6" x1="114" y1="56.1" x2="43.6" y2="113.6" gradientUnits="userSpaceOnUse">
			<stop offset="0" stop-color="#ffffff" stop-opacity="0"/>
			<stop offset="1" stop-color="#ffffff"/>
		</linearGradient>
		<linearGradient id="g7" x1="17.5" y1="19.4" x2="43.6" y2="113.6" gradientUnits="userSpaceOnUse">
			<stop offset="0" stop-color="#ffffff"/>
			<stop offset="1" stop-color="#c4c4c4" stop-opacity="0"/>
		</linearGradient>
		<linearGradient id="g8" x1="112.1" y1="42.4" x2="26.9" y2="11.3" gradientUnits="userSpaceOnUse">
			<stop offset="0" stop-color="#ffffff"/>
			<stop offset="1" stop-color="#c4c4c4" stop-opacity="0"/>
		</linearGradient>
	</defs>
	<style>
		.s0 { fill: url(#g1) } 
		.s1 { fill: url(#g2) } 
		.s2 { fill: url(#g3) } 
		.s3 { fill: url(#g4) } 
		.s4 { fill: url(#g5) } 
		.s5 { fill: url(#g6) } 
		.s6 { fill: url(#g7) } 
		.s7 { fill: url(#g8) } 
	</style>
	<path id="Layer" class="s0" d="m93.5 58.3c0 19.4-15.8 35.2-35.3 35.2c-19.4 0-35.2-15.8-35.2-35.3c0-19.4 15.8-35.2 35.3-35.2c19.4 0 35.2 15.8 35.2 35.3z" />
	<path id="Layer" class="s1" d="m87.6 58.3c0 16.2-13.1 29.3-29.3 29.3c-16.3 0-29.4-13.1-29.4-29.3c0-16.3 13.1-29.4 29.4-29.4c16.2 0 29.3 13.1 29.3 29.4z" />
	<path id="Layer" class="s2" d="m46.3 65.9c1 6.4-2.4 17.3-5.9 17.3c-3.4 0-7.3-3.2-7.8-11.4c-0.5-8.2 1.9-6.3-1-11.3c-2.3-3.9-4.6-7.5-4.1-8.9c0.2-0.9 1.5-0.3 2.1 0.4c1.2 1.3 3.3 3.2 5.9 4.8c4.4 2.8 9.8 2.8 10.8 9.1z" />
	<path id="Layer" class="s3" d="m63.8 40.8c3.8-1 5.4-2.8 5.9-3.7q0.1-0.2 0.2-0.4c1.6-2.5 7.5-3.2 13.8 1.5c6.5 4.8 10.6 17 6.9 17.5c-3.7 0.4-7.8-4.8-12-6.6c-4.2-1.7-4.2 1.8-2.3 6.1c1.8 4.4-1.4 6.2-1.9 9.7c-0.4 3.4-5.5 11.3-8.3 9.1c-2.8-2.2-2.3-9.6-3.2-13.5c-1-4-6.5-4.8-7.5-9.6c-0.9-4.8 3.3-8.8 8.4-10.1z" />
	<path id="Layer" class="s4" d="m49.9 28.1c1.6 2.2 3.4 5.5 2.5 7.4c-1.5 2.9-5.2-1.5-9.6 5.9c-2.7 4.5-7.5 4.7-11.1 3.8c-1.6-0.3-2.3-2.1-1.4-3.5c2.9-4.7 8.7-11.6 16.6-14.5c1.1-0.4 2.3 0 3 0.9z" />
	<path id="Layer" class="s5" d="m114.5 54.9c0.5-0.1 1 0.3 1 0.8c0.4 8.6-1.2 17.1-4.5 25c-3.5 8.2-8.8 15.4-15.6 21.2c-6.7 5.7-14.7 9.8-23.4 12c-8.3 2-17 2.2-25.3 0.4c-0.5-0.1-0.8-0.5-0.7-1c0.1-0.5 0.6-0.8 1-0.7c8.2 1.7 16.6 1.5 24.6-0.5c8.4-2.1 16.1-6 22.7-11.6c6.5-5.6 11.7-12.6 15-20.5c3.3-7.7 4.8-15.9 4.4-24.2c0-0.5 0.3-0.9 0.8-0.9z" />
	<path id="Layer" class="s6" d="m31.3 107.8c-0.2 0.4-0.7 0.6-1.2 0.4c-7.4-4.3-13.9-10.1-18.8-17.1c-5.1-7.3-8.4-15.7-9.7-24.4c-1.3-8.8-0.5-17.8 2.2-26.2c2.7-8.2 7.2-15.6 13.1-21.8c0.3-0.4 0.9-0.4 1.2 0c0.4 0.3 0.4 0.9 0.1 1.3c-5.8 6-10.1 13.2-12.7 21c-2.6 8.2-3.4 16.9-2.1 25.4c1.3 8.5 4.5 16.6 9.4 23.6c4.8 6.9 11 12.5 18.2 16.6c0.4 0.2 0.6 0.8 0.3 1.2z" />
	<path id="Layer" class="s7" d="m28 10.7c-0.3-0.4-0.2-1 0.3-1.2c7.3-4.5 15.5-7.3 24-8.2c8.8-0.9 17.8 0.2 26.1 3.3c8.3 3.2 15.8 8.2 21.8 14.7c5.8 6.2 10.2 13.7 12.7 21.9c0.2 0.5-0.1 1-0.6 1.1c-0.4 0.2-0.9-0.1-1.1-0.6c-2.4-7.9-6.7-15.1-12.3-21.2c-5.9-6.3-13.1-11.2-21.2-14.2c-8-3-16.6-4.1-25.2-3.2c-8.3 0.9-16.2 3.6-23.3 7.9c-0.4 0.3-0.9 0.1-1.2-0.3z" />
</svg>