<svg xmlns="http://www.w3.org/2000/svg" viewBox="0 0 56.204 50.839">
  <defs/>
  <g fill="none" stroke-width="2.5" transform="translate(-.75 -1.745)">
    <path stroke="#fff" d="M2 40.648V29.964l.065-.977A27.742 27.742 0 0123.927 3.5a24.416 24.416 0 019.85 0 27.742 27.742 0 0121.861 25.487l.066.977v10.684m-17.213 2.1a19.408 19.408 0 010-7.244 10.293 10.293 0 017.2-8.009l.781-.226a8.972 8.972 0 012.5-.354 6.819 6.819 0 016.739 6.9v10.623a6.819 6.819 0 01-6.739 6.9 8.972 8.972 0 01-2.5-.354l-.781-.226a10.294 10.294 0 01-7.2-8.014zm-19.277 0a19.414 19.414 0 000-7.244 10.293 10.293 0 00-7.2-8.009l-.781-.226a8.97 8.97 0 00-2.5-.354A6.819 6.819 0 002 33.806v10.632a6.819 6.819 0 006.739 6.9 8.97 8.97 0 002.5-.354l.781-.226a10.294 10.294 0 007.193-8.014z" data-name="Path 235"/>
    <path stroke="#44bdc5" d="M55.704 44.438a6.819 6.819 0 01-6.739 6.9 8.982 8.982 0 01-2.5-.354l-.778-.232a10.294 10.294 0 01-7.2-8.009 19.407 19.407 0 010-7.244 10.294 10.294 0 017.2-8.008l.781-.226a8.972 8.972 0 012.5-.354 6.818 6.818 0 016.739 6.9z" data-name="Path 236"/>
    <path stroke="#44bdc5" d="M2 44.438a6.819 6.819 0 006.739 6.9 8.98 8.98 0 002.5-.354l.781-.226a10.294 10.294 0 007.2-8.009 19.412 19.412 0 000-7.244 10.294 10.294 0 00-7.2-8.009l-.781-.226a8.97 8.97 0 00-2.5-.354A6.818 6.818 0 002 33.806z" data-name="Path 237"/>
  </g>
</svg>
