<svg version="1.2" xmlns="http://www.w3.org/2000/svg" viewBox="0 0 48 43" width="48" height="43">
	<title>host-svg</title>
	<style>
		.s0 { fill: #e9eff2 } 
		.s1 { fill: #f2f2f2 } 
		.s2 { opacity: .7;fill-opacity: .6;mix-blend-mode: lighten;fill: #ffffff;stroke: #e9eff2;stroke-width: 2 }
	</style>
	<g id="host">
		<g id="automate">
			<path id="Shape" fill-rule="evenodd" class="s0" d="m3.8 0h40.2q0.8 0 1.5 0.3q0.8 0.2 1.3 0.8q0.6 0.5 0.9 1.2q0.3 0.8 0.3 1.5v35.2q0 0.4-0.1 0.8q-0.1 0.3-0.2 0.7q-0.1 0.3-0.4 0.7q-0.2 0.3-0.4 0.5q-0.3 0.3-0.6 0.5q-0.3 0.2-0.7 0.4q-0.3 0.1-0.7 0.2q-0.4 0.1-0.8 0h-40.3q-0.7 0.1-1.4-0.2q-0.7-0.3-1.3-0.9q-0.5-0.5-0.8-1.2q-0.3-0.7-0.3-1.5v-35.2q0-0.7 0.3-1.4q0.3-0.7 0.8-1.3q0.6-0.5 1.3-0.8q0.7-0.3 1.4-0.3zm0 2.4q-0.2 0-0.5 0.1q-0.3 0.1-0.5 0.3q-0.2 0.2-0.3 0.5q-0.1 0.3-0.1 0.5v35.2q0 0.3 0.1 0.5q0.1 0.3 0.3 0.5q0.2 0.2 0.5 0.3q0.3 0.1 0.5 0.1h40.3q0.3 0 0.6-0.1q0.2-0.1 0.4-0.3q0.2-0.2 0.3-0.5q0.1-0.2 0.1-0.5v-35.2q0-0.2-0.1-0.5q-0.1-0.3-0.3-0.5q-0.2-0.2-0.5-0.3q-0.3-0.1-0.6-0.1z" />
			<path id="Path-2" class="s0" d="m46.5 12.2h-45.3v-2.4h45.3z" />
			<path id="Shape-2" class="s1" d="m5.4 7.2v-2.5h2.7v2.5zm6 0v-2.5h2.6v2.5z" />
			<path id="Shape-3" class="s2" d="m17.6 21.1h5.1m-13.5 0h5.8m13.4 6.4h4.4m-16.7 0h9.9m-16.7 0h4.2m9.1 6.5h6.6m-20 0h11" />
		</g>
	</g>
</svg>