<svg xmlns="http://www.w3.org/2000/svg" xmlns:xlink="http://www.w3.org/1999/xlink" width="47.975" height="42.85" viewBox="0 0 47.975 42.85">
  <defs>
    <linearGradient id="linear-gradient" x1="0.577" y1="-0.07" x2="0.358" y2="1" gradientUnits="objectBoundingBox">
      <stop offset="0" stop-color="#fff" stop-opacity="0.302"/>
      <stop offset="1" stop-color="#fff" stop-opacity="0"/>
    </linearGradient>
  </defs>
  <g id="host-hover" transform="translate(0 0)">
    <path id="Path" d="M6.17,11.12H51.012V41.586H6.17Z" transform="translate(-4.371 -0.106)" fill="url(#linear-gradient)"/>
    <path id="Shape" d="M8.542,4.567a1.358,1.358,0,0,0-1.4,1.4V41.126a1.358,1.358,0,0,0,1.395,1.4h40.29a1.346,1.346,0,0,0,1.4-1.4V5.962a1.383,1.383,0,0,0-1.5-1.395Zm0-2.447h40.18a3.817,3.817,0,0,1,3.952,3.842V41.126a3.744,3.744,0,0,1-1.113,2.728,3.793,3.793,0,0,1-2.728,1.113H8.542A3.805,3.805,0,0,1,4.7,41.126V5.962A3.805,3.805,0,0,1,8.542,2.12Z" transform="translate(-4.7 -2.118)" fill="#9cffff"/>
    <path id="Path-2" data-name="Path" d="M5.7,12.567V10.12H51.007v2.447Z" transform="translate(-4.476 -0.329)" fill="#9cffff"/>
    <path id="Shape-2" data-name="Shape" d="M9.15,8.447V6h2.618V8.447Zm6.032,0V6H17.8V8.447Z" transform="translate(-3.705 -1.25)" fill="#fff"/>
    <path id="Shape-3" data-name="Shape" d="M20.638,18.56h5.127m-13.544,0h5.848M31.38,24.935h4.441m-16.726,0h9.9m-16.726,0h4.209m9.1,6.485h6.607m-19.919,0H23.195" transform="translate(-3.019 1.557)" fill="none" stroke="#fff" stroke-width="2"/>
  </g>
</svg>
