<svg xmlns="http://www.w3.org/2000/svg" xmlns:xlink="http://www.w3.org/1999/xlink" data-name="Layer 1" viewBox="0 0 1920 615">
  <defs/>
  <defs>
    <linearGradient id="b" x1="362.61" x2="407.87" y1="-1299.73" y2="-1299.73" gradientTransform="matrix(1.07, -0.22, 0.24, 0.98, 89.05, 1534.85)" gradientUnits="userSpaceOnUse">
      <stop offset="0" stop-color="#bf8134"/>
      <stop offset="1" stop-color="#f9ceb1"/>
    </linearGradient>
    <linearGradient id="a" x1="352.5" x2="249.49" y1="-1449.04" y2="-1408.81" gradientTransform="matrix(0.98, -0.21, 0.21, 0.98, 94.5, 1534.31)" gradientUnits="userSpaceOnUse">
      <stop offset="0" stop-color="#397abc"/>
      <stop offset="1" stop-color="#1e468f"/>
    </linearGradient>
    <linearGradient id="e" x1="409.36" x2="339.67" y1="-1365.66" y2="-1338.46" xlink:href="#a"/>
    <linearGradient id="f" x1="452.79" x2="505.98" y1="-1422.24" y2="-1378.24" xlink:href="#a"/>
    <linearGradient id="g" x1="211.18" x2="115.57" y1="-193.69" y2="-333.77" gradientTransform="translate(0 536)" xlink:href="#b"/>
    <linearGradient id="h" x1="166.66" x2="160.93" y1="-187.82" y2="-223.2" gradientTransform="translate(0 536)" xlink:href="#b"/>
    <linearGradient id="i" x1="2299.31" x2="2300.59" y1="-272.66" y2="-272.66" gradientTransform="translate(-158791.97 19161.71) scale(69.12)" xlink:href="#b"/>
    <linearGradient id="j" x1="92.45" x2="40.1" y1="461.6" y2="422.88" gradientTransform="matrix(1, 0, 0, -1, 0, 720)" xlink:href="#a"/>
    <linearGradient id="l" x1="97.69" x2="116.37" y1="371.65" y2="421.64" gradientTransform="matrix(1, 0, 0, -1, 0, 720)" xlink:href="#a"/>
    <linearGradient id="m" x1="2263.55" x2="2264.83" y1="-280.89" y2="-280.89" gradientTransform="translate(-69499.26 10500.45) rotate(-1.26) scale(30.82)" xlink:href="#b"/>
    <linearGradient id="n" x1="2299.28" x2="2300.56" y1="-272.63" y2="-272.63" gradientTransform="translate(-159681.93 19255.37) scale(69.47)" xlink:href="#b"/>
    <linearGradient id="o" x1="2310.08" x2="2310.78" y1="-263.3" y2="-263.3" gradientTransform="matrix(113.25, 0, 0, -113.25, -261585.28, -29638.75)" xlink:href="#a"/>
    <linearGradient id="p" x1="120.89" x2="46.79" y1="-199.95" y2="-345.76" gradientTransform="translate(0 536)" xlink:href="#b"/>
    <clipPath id="d">
      <path fill="none" d="M37.49 117.25s43.1-78.87 141.6-83.67c93.5-4.6 139.7 55.54 139.7 55.54s-12.7 9.22-11.5 17.53c-6 .1-38.2 3.21-63.41 31.66-7.6-3.4-39.49-30.57-115.1 5.9 0 0-41.29-30.17-75.9-17.44-2.19-4.01-4.39-9.22-15.39-9.52z"/>
    </clipPath>
    <clipPath id="k">
      <path fill="none" d="M100.74 175.29s7.7 41.6 24 72a60.86 60.86 0 0051.6 31.9l44.2.6a2.05 2.05 0 012.1 2.1 1.82 1.82 0 01-.6 1.4c-8.4 8.8-36.3 30.7-100.9 22.6-23.8-2.9-39.5-7.3-51.5-23.7-28.3-39-30.6-106-30.6-106"/>
    </clipPath>
    <radialGradient id="c" cx="228.06" cy="-967.54" r="188.26" gradientTransform="matrix(0.99, -0.1, 0.1, 0.99, 17.58, 1050.26)" gradientUnits="userSpaceOnUse">
      <stop offset="0" stop-color="#f8d844"/>
      <stop offset=".3" stop-color="#f8b144"/>
      <stop offset="1" stop-color="#f87340"/>
    </radialGradient>
  </defs>
  <g data-name="Layer 1">
    <path fill="#1b60a3" d="M958.8 197.1v119.3H908V197.1h50.8m24.1-25h-100v169.3h100zM1177.2 172.1h24.2v169.3h-24.2z"/>
    <path fill="#1b60a3" d="M995.9 319.7h366v24.2h-366z"/>
    <path fill="#1b60a3" d="M1256.2 150.4h26.6v191.9h-26.6zM1217.6 172.1h24.2v149.1h-24.2z"/>
    <path fill="#1b60a3" d="M1177.2 172.1H1282v24.2h-104.8zM1336.9 170.5h25.8v171.7h-25.8zM1450.5 196.3v120.1h-54.8V196.3h54.8m25.8-25h-104.8v170.1h104.8z"/>
    <path fill="#1b60a3" d="M1336.9 170.5h139.5v26.6h-139.5zM1104.7 172.1h26.6v169.3h-26.6zM958 174.6h25V406h-25zM991.8 172.1h26.6v171.7h-26.6zM1413.4 212.5h24.2v88.7h-24.2zM921.7 214.9h24.2v88.7h-24.2zM737.9 319.7h137v24.2h-137z"/>
    <path fill="#1b60a3" d="M848.3 172.1h26.6v169.3h-26.6zM737.9 172.1h24.2v169.3h-24.2zM695.2 150.4h26.6V339h-26.6zM657.3 172.1h26.6V339h-26.6zM617 172.1h26.6v169.3H617z"/>
    <path fill="#1b60a3" d="M538 317.3h183v26.6H538z"/>
    <path fill="#1b60a3" d="M538 172.1h26.6v169.3H538zM497.7 172.1h26.6V339h-26.6zM457.3 172.1h26.6V339h-26.6zM417 172.1h26.6v169.3H417zM350.1 172.1h26.6v169.3h-26.6zM228.5 173.6h25v169.3h-25z"/>
    <path fill="#1b60a3" d="M242.9 317.3h280.5v26.6H242.9z"/>
    <path fill="#e17c00" d="M271.9 134.3h28.2v26.6h-28.2zM309.8 134.3H338v26.6h-28.2zM800 361.6h28.2v26.6H800zM1044.2 134.3h28.2v26.6h-28.2zM1274 361.6h28.2v26.6H1274zM1314.3 361.6h28.2v26.6h-28.2z"/>
    <path fill="#1b60a3" d="M617 170.5h104.8v26.6H617zM1543.5 264.3h157.2v15.3h-157.2z"/>
    <path fill="#1b60a3" d="M1543.5 264.3h16.1v44.3h-16.1zM1684.6 264.3h16.1v44.3h-16.1zM1543.5 328.8h157.2v15.3h-157.2z"/>
    <path fill="#1b60a3" d="M1543.5 328.8h16.1v44.3h-16.1zM1684.6 328.8h16.1v44.3h-16.1zM1543.5 393.3h157.2v15.3h-157.2z"/>
    <path fill="#1b60a3" d="M1543.5 393.3h16.1v44.3h-16.1zM1684.6 393.3h16.1v44.3h-16.1zM1693.4 205.4H1633a5 5 0 00-4.8 4.8v22.6a5 5 0 004.8 4.8h60.5a5 5 0 004.8-4.8v-22.6c-.8-2.3-2.5-4.8-4.9-4.8zM67.6 507v-66.8h10.7l35.1 56.3a5.88 5.88 0 008.1 2 6.36 6.36 0 002-2l35-56.3h10.7V507h11.9v-72.7a5.91 5.91 0 00-5.9-5.9h-20a6.11 6.11 0 00-5.1 2.8l-31.7 51-31.7-51a5.87 5.87 0 00-5.1-2.8h-20a5.91 5.91 0 00-5.9 5.9V507zM629 434.4l33.6 69.5a5.92 5.92 0 005.3 3.4h14.4a5.71 5.71 0 005.3-3.4l23.4-48.1 23.4 48.2a5.92 5.92 0 005.3 3.4h14.4a6.32 6.32 0 005.5-3.5l32-69.5-10.8-5-30.4 66h-6.8l-27.1-55.8a6 6 0 00-7.9-2.8 6.32 6.32 0 00-2.8 2.8l-27 55.8h-6.9l-32-66.2zM197.9 428.7V507h11.9v-78.3M229.9 428.7V507h11.9v-78.3M313.7 428.7V507h11.9v-78.3M247.8 472.2h58.3v-11.9h-58.3M347.9 507.5l39.8-67.4h5.3l40.6 67.4 10.2-6.1-42.3-70.3a6 6 0 00-5-2.9h-12a5.93 5.93 0 00-5.1 3l-41.6 70.1zM469.4 505.4v-66h5.3l50.2 48.6 8.2-8.5-51.9-50.3a5.89 5.89 0 00-4.2-1.7h-13.6a6.06 6.06 0 00-6 5.9v71.9zM557.3 507v-78.3h-11.9V507M878 494.6h-64.3v-54.4H878v-11.9h-70.3a6 6 0 00-6 6v66.3a5.93 5.93 0 006 5.9H878zM901.2 434.4h-5.9v69.3a5.91 5.91 0 005.9 5.9h59.9v-5.9l-.2 5.9h.4a30.72 30.72 0 005.3-.5 39 39 0 006.7-1.8 24.91 24.91 0 0013-10.9 25.71 25.71 0 003-12.8v-.1a30 30 0 00-.8-6.7 20 20 0 00-4.8-8.8 18.89 18.89 0 00-5-3.8 22.54 22.54 0 00-6.6-2.3 18.41 18.41 0 00-3.3-.3v6l1.1 5.8a17.1 17.1 0 003-.9 21 21 0 004.2-2.2 20.05 20.05 0 006.6-7.3 27.58 27.58 0 003.1-12.9V449a25.09 25.09 0 00-1-6.1 18.43 18.43 0 00-5-8.2 17.28 17.28 0 00-5.2-3.6 25.27 25.27 0 00-7.5-2.4 36.42 36.42 0 00-5.7-.4h-61.5a5.91 5.91 0 00-5.9 5.9l6.2.2v5.9h61.5a25.61 25.61 0 013.9.3 20.25 20.25 0 013.3.9 10.6 10.6 0 012.1 1.1 7.28 7.28 0 012.2 2.4 10.3 10.3 0 011.1 4.5v.7a14.55 14.55 0 01-1.3 6.5 8.84 8.84 0 01-4.9 4.6c-.3.1-.7.3-1 .4h-.2l.7 3-.6-3h-.1l.7 3-.6-3a6 6 0 00-4.6 7 6.19 6.19 0 005.8 4.8v-3.7l-.1 3.7h.1v-3.7l-.1 3.7a10.71 10.71 0 013.9 1 9.91 9.91 0 011.7 1.1 7.27 7.27 0 012 2.6 12.37 12.37 0 011 5.4v.1a19.73 19.73 0 01-.6 4.8 10.39 10.39 0 01-4.6 6.1 18.35 18.35 0 01-6.7 2.6 29.75 29.75 0 01-4.3.5h-.1l-.1 3.8.1-3.8-.1 3.8.1-3.8h-54.1v-63.3h-6.1zM1065.4 428.7V507h11.8v-78.3M1147.6 428.7V507h11.9v-78.3M1254.2 440.7a12.3 12.3 0 0112 12V487a12.45 12.45 0 01-12 12h-52.7a12.45 12.45 0 01-12-12v-34.4a12.3 12.3 0 0112-12l52.7.1m0-12.8h-52.7a25 25 0 00-24.8 24.8V487a24.92 24.92 0 0024.8 24.8h51.9a24.92 24.92 0 0024.8-24.8v-34.4c.8-13.5-10.4-24.7-24-24.7zM1083.1 470.6h59.1v-11.9h-59.1M1370 454.2h12s4-26.4-26.3-27.9c-31.9-2.4-50.3 0-55.9 6.4-7.2 7.2-7.2 19.9-4 29.5 4 10.4 23.2 11.2 26.4 11.2 14.4.8 38.3-.8 40.7 0 7.2.8 9.6 3.2 9.6 9.6s-2.4 10.4-10.4 12c-4.8 1.6-15.9 2.4-26.4 2.4a107.42 107.42 0 01-24-2.4c-8-2.4-6.3-16-6.3-16h-12s-.8 9.6 0 14.4q2.4 9.6 14.4 14.4c6.3 2.4 78.3 14.4 75.9-24-.8-6.4-2.4-22.4-22.4-22.4s-41.5.8-46.4 0c-10.4-2.4-10.4-6.4-10.4-12a10.94 10.94 0 014-8c4-4 45.6-4.8 55.9 0 6.4 1.6 5.6 12.1 5.6 12.8zM1395.6 440.2h82.2v-11.9h-82.2"/>
    <path fill="#1b60a3" d="M1430.4 438.3v67.1h11.9v-67.1"/>
    <path fill="#d17629" d="M383.4 462.4h14.4v12h-14.4zM862 459.8h14.4v12H862z"/>
    <path fill="#1b60a3" d="M1599.9 165.1h17.7s12.9-70.9 74.2-70.9c54.8.8 74.2 40.3 74.2 40.3s52.4-18.5 75.8 20.2c20.2 33 2.4 70.9 2.4 70.9s44.3 6.4 42.7 50.8c0 0-5.6 38.7-37.1 56.4h-115.3v16.1h126.6s45.1-29.8 42.7-83c-2.4-42.7-35.5-52.4-35.5-52.4s17.7-66.9-33-92.7c-15.3-8.1-39.5-12.1-60.5-6.4-4-4-21.8-40.3-86.3-38.7-57.1 2.4-88.6 59.6-88.6 89.4z"/>
    <path fill="#1b60a3" d="M1728.9 197.4c0-17.7-6.4-24.2-24.2-24.2h-166.1c-17.7 0-24.2 6.4-24.2 24.2v287H1728v-287zm-198.3 0a8 8 0 018-8.1h166.2a8 8 0 018.1 8v262.1a8.07 8.07 0 01-8.1 8.1h-166.1a8.07 8.07 0 01-8.1-8.1z"/>
  </g>
  <g data-name="Layer 3">
    <path fill="url(#c)" d="M37.49 117.25s43.1-78.87 141.6-83.67c93.5-4.6 139.7 55.54 139.7 55.54s-12.7 9.22-11.5 17.53c-6 .1-38.2 3.21-63.41 31.66-7.6-3.4-39.49-30.57-115.1 5.9 0 0-41.29-30.17-75.9-17.44-2.19-4.01-4.39-9.22-15.39-9.52z"/>
    <path fill="url(#b)" d="M174.19 16l1.54-.11a2.83 2.83 0 013 2.2l36.12 328.37a2.68 2.68 0 01-2.41 2.71l-1.54.11a2.81 2.81 0 01-3-2.2l-36-328.47a2.58 2.58 0 012.29-2.61z"/>
    <g clip-path="url(#d)">
      <path fill="url(#a)" d="M51.78 129.47s40.81-75.25 124.61-97c-9.3-9.62-137 37.87-137 37.87l-18.1 37.17z"/>
      <path fill="url(#e)" d="M128.28 150.53s9.81-84.78 49.91-121.26c2.8-.6 55.6 57.93 69.89 123.88s-95.6 61.72-119.8-2.62z"/>
      <path fill="url(#f)" d="M310.09 111.86S285 50.23 173.29 30.27c0 0 98.2-12 150.4 51.53-3.6 32.07-13.6 30.06-13.6 30.06z"/>
    </g>
  </g>
  <g data-name="Layer 2">
    <ellipse cx="140.53" cy="350.12" rx="70.5" ry="11.8" style="isolation:isolate" fill="#1b60a3" opacity=".15"/>
    <path fill="url(#g)" d="M96.24 167.39L205.84 350a2.58 2.58 0 003.6.7 2.66 2.66 0 00.9-3.4l-109.8-182.6a2.68 2.68 0 00-3.6-.9 2.78 2.78 0 00-.7 3.6"/>
    <path fill="url(#h)" d="M129.44 338.49h70.5a2.5 2.5 0 100-5h-70.5a2.48 2.48 0 00-2.5 2.5 2.54 2.54 0 002.5 2.5"/>
    <path fill="url(#i)" d="M218.84 280l-83.3 66.9a2.56 2.56 0 003.2 4l83.3-66.8a2.55 2.55 0 00.4-3.6 2.48 2.48 0 00-3.6-.5"/>
    <path fill="url(#j)" d="M100.74 175.29s7.7 41.6 24 72a60.86 60.86 0 0051.6 31.9l47 1.7s-21.9 35-102.1 25.1c-23.8-2.9-39.5-7.3-51.5-23.7-28.3-39-30.7-106-30.7-106"/>
    <g clip-path="url(#k)">
      <path fill="url(#l)" d="M38.84 180.49s22.3 150.6 122.9 97 80.2 37.4 80.2 37.4l-159.2 10.8-66.9-110.9z"/>
    </g>
    <path fill="url(#m)" d="M92.64 280.29l-33 59.3A2.51 2.51 0 0064 342l33.1-59.3a2.48 2.48 0 00-1-3.4 2.71 2.71 0 00-3.5 1"/>
    <path fill="url(#n)" d="M53 350.89l83.8-66.6a2.56 2.56 0 10-3.2-4L49.84 347a2.53 2.53 0 00-.5 3.5l.1.1a2.86 2.86 0 003.6.3"/>
    <path fill="url(#o)" d="M37.24 183.89h74.9c-1.1-2.9-4.3-7.4-5.1-8.9h-72.2a2.6 2.6 0 00-2.6 2.1 2.51 2.51 0 002.1 2.9h.5"/>
    <path fill="url(#p)" d="M23.84 167.39L133.44 350a2.58 2.58 0 003.6.7 2.66 2.66 0 00.9-3.4L28.34 164.69a2.59 2.59 0 00-4.6 2.4c0 .1.1.2.1.3"/>
  </g>
</svg>
