<svg xmlns="http://www.w3.org/2000/svg" viewBox="0 0 270.152 63.885">
  <defs/>
  <g fill="#fff" opacity=".91">
    <path d="M116.967 15.968V33.22h-7.344V15.968h7.344m3.5-3.615h-14.46v24.48h14.46z" data-name="Path 185"/>
    <path d="M148.559 12.359h3.496v24.479h-3.496z" data-name="Rectangle 175"/>
    <path d="M122.332 33.69h52.921v3.498h-52.921z" data-name="Rectangle 176"/>
    <path d="M159.982 9.211h3.846v27.744h-3.846z" data-name="Rectangle 177"/>
    <path d="M154.387 12.359h3.496v21.565h-3.496z" data-name="Rectangle 178"/>
    <path d="M148.559 12.359h15.154v3.498h-15.154z" data-name="Rectangle 179"/>
    <path d="M171.639 12.126h3.731v24.829h-3.731z" data-name="Rectangle 180"/>
    <path d="M188.076 15.855v17.369h-7.925V15.855h7.927m3.729-3.615h-15.156v24.6h15.154z" data-name="Path 186"/>
    <path d="M171.639 12.126h20.165v3.846h-20.165z" data-name="Rectangle 181"/>
    <path d="M138.068 12.359h3.846v24.479h-3.846z" data-name="Rectangle 182"/>
    <path d="M116.853 12.709h3.613v33.455h-3.613z" data-name="Rectangle 183"/>
    <path d="M121.747 12.359h3.846v24.829h-3.846z" data-name="Rectangle 184"/>
    <path d="M182.712 18.188h3.496v12.823h-3.496z" data-name="Rectangle 185"/>
    <path d="M111.607 18.536h3.496v12.823h-3.496z" data-name="Rectangle 186"/>
    <path d="M85.03 33.69h19.817v3.498H85.03z" data-name="Rectangle 187"/>
    <path d="M100.999 12.359h3.846v24.479h-3.846z" data-name="Rectangle 188"/>
    <path d="M85.03 12.359h3.496v24.479H85.03z" data-name="Rectangle 189"/>
    <path d="M78.851 9.211h3.846v27.277h-3.846z" data-name="Rectangle 190"/>
    <path d="M73.373 12.359h3.846v24.13h-3.846z" data-name="Rectangle 191"/>
    <path d="M67.544 12.359h3.846v24.479h-3.846z" data-name="Rectangle 192"/>
    <path d="M56.121 33.341h26.461v3.846H56.121z" data-name="Rectangle 193"/>
    <path d="M56.121 12.359h3.846v24.479h-3.846z" data-name="Rectangle 194"/>
    <path d="M50.292 12.359h3.846v24.13h-3.846z" data-name="Rectangle 195"/>
    <path d="M44.463 12.359h3.846v24.13h-3.846z" data-name="Rectangle 196"/>
    <path d="M38.635 12.359h3.846v24.479h-3.846z" data-name="Rectangle 197"/>
    <path d="M28.96 12.359h3.846v24.479H28.96z" data-name="Rectangle 198"/>
    <path d="M13.108 12.709h3.613v24.479h-3.613z" data-name="Rectangle 199"/>
    <path d="M13.456 33.341h40.565v3.846H13.456z" data-name="Rectangle 200"/>
    <path d="M17.654 6.88h4.081v3.846h-4.081z" data-name="Rectangle 201"/>
    <path d="M23.133 6.88h4.081v3.846h-4.081z" data-name="Rectangle 202"/>
    <path d="M94.005 39.751h4.081v3.846h-4.081z" data-name="Rectangle 203"/>
    <path d="M129.324 6.88h4.081v3.846h-4.081z" data-name="Rectangle 204"/>
    <path d="M162.547 39.751h4.081v3.846h-4.081z" data-name="Rectangle 205"/>
    <path d="M168.376 39.751h4.079v3.846h-4.079z" data-name="Rectangle 206"/>
    <path d="M67.544 12.126h15.154v3.846H67.544z" data-name="Rectangle 207"/>
    <path d="M218.033 27.28h22.731v2.215h-22.731z" data-name="Rectangle 208"/>
    <path d="M218.033 27.28h2.331v6.411h-2.331z" data-name="Rectangle 209"/>
    <path d="M238.433 27.28h2.331v6.411h-2.331z" data-name="Rectangle 210"/>
    <path d="M218.033 36.605h22.731v2.215h-22.731z" data-name="Rectangle 211"/>
    <path d="M218.033 36.605h2.331v6.411h-2.331z" data-name="Rectangle 212"/>
    <path d="M238.433 36.605h2.331v6.411h-2.331z" data-name="Rectangle 213"/>
    <path d="M218.033 45.93h22.731v2.215h-22.731z" data-name="Rectangle 214"/>
    <path d="M218.033 45.93h2.331v6.411h-2.331z" data-name="Rectangle 215"/>
    <path d="M238.433 45.93h2.331v6.411h-2.331z" data-name="Rectangle 216"/>
    <path d="M1.735 63.187v-9.74H3.3l5.107 8.21a.868.868 0 001.481 0l5.109-8.216h1.563v9.74h1.735v-10.6a.868.868 0 00-.868-.868h-2.921a.868.868 0 00-.737.409l-4.627 7.441-4.627-7.441a.868.868 0 00-.737-.409H.868a.868.868 0 00-.868.868v10.606z" data-name="Path 187"/>
    <path d="M83.669 52.601l4.9 10.142a.868.868 0 00.781.49h2.1a.868.868 0 00.781-.489l3.412-7.022 3.415 7.022a.868.868 0 00.781.489h2.1a.868.868 0 00.788-.5l4.663-10.142-1.578-.723-4.43 9.636h-.995l-3.959-8.138a.868.868 0 00-1.56 0l-3.959 8.138h-1.012l-4.663-9.652-1.563.753z" data-name="Path 188"/>
    <path d="M20.75 51.759v11.42h1.735v-11.42" data-name="Path 189"/>
    <path d="M25.411 51.759v11.42h1.74v-11.42" data-name="Path 190"/>
    <path d="M37.652 51.759v11.42h1.735v-11.42" data-name="Path 191"/>
    <path d="M28.027 58.105h8.51V56.37h-8.51" data-name="Path 192"/>
    <path d="M42.646 63.274l5.81-9.833h.762l5.928 9.833 1.486-.9-6.178-10.253a.868.868 0 00-.743-.421h-1.75a.868.868 0 00-.748.427l-6.062 10.258 1.494.883z" data-name="Path 193"/>
    <path d="M60.369 62.953v-9.627h.762l7.325 7.1 1.207-1.246-7.577-7.343a.868.868 0 00-.6-.244h-1.981a.868.868 0 00-.868.868v10.495z" data-name="Path 194"/>
    <path d="M73.19 63.179v-11.42h-1.735v11.42" data-name="Path 195"/>
    <path d="M120.004 61.382h-9.39v-7.94h9.39v-1.735h-10.262a.868.868 0 00-.868.868v9.675a.868.868 0 00.868.868h10.262z" data-name="Path 196"/>
    <path d="M123.38 52.603h-.868v10.113a.867.867 0 00.868.868h8.742v-.868l-.023.868h.055a5.108 5.108 0 00.787-.068 5.045 5.045 0 00.976-.257 4.1 4.1 0 00.815-.415 3.343 3.343 0 001.08-1.167 3.814 3.814 0 00.434-1.859v-.019a3.9 3.9 0 00-.12-.985 2.909 2.909 0 00-.693-1.28 2.842 2.842 0 00-.723-.549 3.229 3.229 0 00-.962-.333 2.651 2.651 0 00-.473-.049v.868l.165.852a2.422 2.422 0 00.434-.135 3.2 3.2 0 00.6-.324 3.118 3.118 0 00.97-1.067 3.831 3.831 0 00.445-1.88v-.158a3.493 3.493 0 00-.145-.9 2.762 2.762 0 00-.723-1.2 2.892 2.892 0 00-.75-.525 3.9 3.9 0 00-1.1-.343 5.276 5.276 0 00-.83-.064h-8.962a.867.867 0 00-.868.868h.868v.868h8.982a3.318 3.318 0 01.564.043 2.285 2.285 0 01.476.127 1.455 1.455 0 01.3.158.982.982 0 01.311.349 1.483 1.483 0 01.156.672v.106a2.193 2.193 0 01-.188.957 1.4 1.4 0 01-.272.386 1.435 1.435 0 01-.434.3 1.387 1.387 0 01-.145.052h-.026l.1.434-.082-.434h-.014l.1.434-.082-.434a.868.868 0 00.163 1.719v-.534l-.009.534h.009v-.534l-.009.534a1.323 1.323 0 01.234.033 1.554 1.554 0 01.333.113 1.205 1.205 0 01.24.153 1.036 1.036 0 01.289.38 1.923 1.923 0 01.145.787v.013a2.4 2.4 0 01-.09.688 1.57 1.57 0 01-.671.9 2.774 2.774 0 01-.976.374 3.458 3.458 0 01-.628.067h-.012l-.012.549.015-.549-.012.549.014-.549h-7.9v-9.237z" data-name="Path 197"/>
    <path d="M147.341 51.759v11.42h1.735v-11.42" data-name="Path 198"/>
    <path d="M159.348 51.759v11.42h1.735v-11.42" data-name="Path 199"/>
    <path d="M174.903 53.507a1.791 1.791 0 011.748 1.748v5.017a1.791 1.791 0 01-1.748 1.748h-7.694a1.793 1.793 0 01-1.748-1.748v-5.013a1.793 1.793 0 011.748-1.748h7.694m0-1.865h-7.694a3.632 3.632 0 00-3.615 3.615v5.011a3.632 3.632 0 003.615 3.615h7.578a3.632 3.632 0 003.615-3.615v-5.015a3.465 3.465 0 00-3.499-3.615z" data-name="Path 200"/>
    <path d="M149.929 57.877h8.627v-1.74h-8.627" data-name="Path 201"/>
    <path d="M191.805 55.489h1.75s.578-3.848-3.848-4.081c-4.662-.35-7.343 0-8.16.933-1.048 1.05-1.048 2.914-.578 4.313.578 1.515 3.381 1.631 3.848 1.631 2.1.117 5.594-.116 5.944 0 1.048.117 1.4.467 1.4 1.4a1.578 1.578 0 01-1.515 1.748 19.4 19.4 0 01-7.344 0c-1.165-.35-.931-2.331-.931-2.331h-1.75a11.911 11.911 0 000 2.1 3.14 3.14 0 002.1 2.1c.932.35 11.423 2.1 11.074-3.5-.117-.933-.35-3.264-3.263-3.264s-6.062.117-6.761 0c-1.516-.35-1.516-.933-1.516-1.748a1.576 1.576 0 01.578-1.165c.578-.578 6.651-.7 8.16 0 .929.232.812 1.747.812 1.864z" data-name="Path 202"/>
    <path d="M195.535 53.442h12.007v-1.735h-12.007" data-name="Path 203"/>
    <path d="M200.613 53.157v9.792h1.735v-9.792" data-name="Path 204"/>
    <path d="M239.714 18.77h-8.738a.751.751 0 00-.7.7v3.26a.751.751 0 00.7.7h8.742a.752.752 0 00.7-.7v-3.265c-.119-.347-.354-.695-.704-.695z" data-name="Path 205"/>
    <path d="M47.817 56.674h2.098v1.748h-2.098z" data-name="Rectangle 217"/>
    <path d="M117.668 56.301h2.098v1.748h-2.098z" data-name="Rectangle 218"/>
    <path d="M226.193 12.942h2.565s1.864-10.258 10.723-10.258c7.927.116 10.725 5.827 10.725 5.827s7.577-2.681 10.958 2.915c2.914 4.772.35 10.258.35 10.258s6.41.933 6.177 7.344c0 0-.816 5.594-5.362 8.16H245.66v2.331h18.3s6.527-4.313 6.177-12c-.35-6.179-5.129-7.577-5.129-7.577s2.565-9.675-4.772-13.406a12.886 12.886 0 00-8.743-.933c-.578-.578-3.148-5.829-12.473-5.594-8.281.343-12.827 8.62-12.827 12.933z" data-name="Path 206"/>
    <path d="M244.844 17.605c0-2.565-.932-3.5-3.5-3.5h-24.013c-2.564 0-3.5.933-3.5 3.5v41.5h30.89v-41.5zm-28.676 0a1.168 1.168 0 011.165-1.167h24.013a1.168 1.168 0 011.166 1.167v37.884a1.168 1.168 0 01-1.166 1.165h-24.013a1.168 1.168 0 01-1.165-1.165z" data-name="Path 207"/>
  </g>
</svg>
