<svg xmlns="http://www.w3.org/2000/svg" viewBox="0 0 10.361 12.411">
  <defs/>
  <g fill="#fff" opacity=".56">
    <path d="M7.328.028a10.411 10.411 0 00-1.094 1.029 10.1 10.1 0 01-1.063 1 4.336 4.336 0 01-.688-.625C3.804.75 3.733.703 3.52.772a.379.379 0 00-.272.385v.159l.363.369.363.366-.181.022a4.082 4.082 0 00-2.548 1.163A3.955 3.955 0 00.204 4.871a6.114 6.114 0 00-.2 2.5 7.585 7.585 0 00.078 1.832 4.475 4.475 0 00.35.951 4.165 4.165 0 003 2.2 29.107 29.107 0 003.464 0 4.166 4.166 0 003.3-2.936 6.868 6.868 0 00.156-2.239 7.869 7.869 0 00-.072-1.773 4.052 4.052 0 00-1.082-2.07 4.11 4.11 0 00-2.645-1.263l-.184-.022.741-.741c.732-.735.738-.741.738-.872A.382.382 0 007.62.053a.284.284 0 00-.292-.025zm-.6 4.018a2.7 2.7 0 01.491.178 2.365 2.365 0 01.96.944c.244.475.244.478.244 2.064a7.467 7.467 0 01-.056 1.61 2.254 2.254 0 01-1.585 1.585 7.374 7.374 0 01-1.61.056 7.4 7.4 0 01-1.61-.056 2.276 2.276 0 01-1.585-1.585 7.269 7.269 0 01-.056-1.595c0-1.563 0-1.576.235-2.051A2.326 2.326 0 013.207 4.18a3.037 3.037 0 01.363-.122 7.055 7.055 0 011.582-.059 9.339 9.339 0 011.575.047z" data-name="Path 147"/>
    <path d="M4.004 5.512c-.191.084-.194.1-.194 1.72 0 1.563 0 1.607.159 1.717s.219.088 1.57-.688c.71-.406 1.32-.772 1.36-.816a.311.311 0 00-.016-.413c-.1-.109-2.57-1.532-2.692-1.551a.377.377 0 00-.187.031z" data-name="Path 148"/>
  </g>
</svg>
