<svg xmlns="http://www.w3.org/2000/svg" width="25.062" height="23.888" viewBox="0 0 25.062 23.888">
  <g id="Group_374" data-name="Group 374" transform="translate(-488.065 -1404.779)">
    <g id="sadasdsdad" transform="translate(488.065 1404.779)">
      <path id="Path_1360" data-name="Path 1360" d="M61.389,55.271a1.655,1.655,0,1,0,1.657,1.655A1.658,1.658,0,0,0,61.389,55.271Zm0,2.323a.668.668,0,1,1,.67-.668A.669.669,0,0,1,61.389,57.594Z" transform="translate(-56.809 -53.153)" fill="#00d3d3"/>
      <path id="Path_1361" data-name="Path 1361" d="M272.138,55.271h-4.378a1.655,1.655,0,1,0,0,3.311h4.378a1.655,1.655,0,1,0,0-3.311Zm0,2.323h-4.378a.668.668,0,1,1,0-1.336h4.378a.668.668,0,1,1,0,1.336Z" transform="translate(-253.079 -53.153)" fill="#00d3d3"/>
      <path id="Path_1362" data-name="Path 1362" d="M149.061,55.271a1.655,1.655,0,1,0,1.657,1.655A1.658,1.658,0,0,0,149.061,55.271Zm0,2.323a.668.668,0,1,1,.67-.668A.669.669,0,0,1,149.061,57.594Z" transform="translate(-140.19 -53.153)" fill="#00d3d3"/>
      <path id="Path_1363" data-name="Path 1363" d="M133.943,222.178a.494.494,0,0,0-.595.365l-.979,4.1a.494.494,0,1,0,.96.229l.979-4.1A.494.494,0,0,0,133.943,222.178Z" transform="translate(-125.877 -211.877)" fill="#00d3d3"/>
      <path id="Path_1364" data-name="Path 1364" d="M198.6,233.949a.494.494,0,0,0,.7-.04l1.384-1.554a.685.685,0,0,0,0-.9l-1.386-1.556a.494.494,0,0,0-.737.657l1.2,1.35-1.2,1.351A.494.494,0,0,0,198.6,233.949Z" transform="translate(-188.724 -219.071)" fill="#00d3d3"/>
      <path id="Path_1365" data-name="Path 1365" d="M59.308,229.855a.494.494,0,0,0-.7.04l-1.384,1.554a.685.685,0,0,0,0,.905l1.386,1.555a.494.494,0,0,0,.737-.657l-1.2-1.35,1.2-1.35A.494.494,0,0,0,59.308,229.855Z" transform="translate(-54.262 -219.072)" fill="#00d3d3"/>
      <path id="Path_1366" data-name="Path 1366" d="M23.955,28.029h-.183a5.2,5.2,0,0,0-.372-.9L23.531,27a1.106,1.106,0,0,0,0-1.564l-.255-.255V14.666A2.515,2.515,0,0,0,20.961,12H2.316A2.515,2.515,0,0,0,0,14.666v13.8a2.515,2.515,0,0,0,2.316,2.67h2.9a.494.494,0,0,0,0-.987h-2.9A1.559,1.559,0,0,1,.987,28.463V19.507h21.3V24.5a1.122,1.122,0,0,0-.171-.014h0a1.094,1.094,0,0,0-.779.323l-.133.133a5.211,5.211,0,0,0-.912-.377v-.176a1.108,1.108,0,0,0-1.107-1.106h-.893a1.107,1.107,0,0,0-1.105,1.106v.188a5.239,5.239,0,0,0-.891.373l-.128-.127a1.1,1.1,0,0,0-.781-.324h0a1.1,1.1,0,0,0-.782.323l-.631.631a1.106,1.106,0,0,0,0,1.563l.136.137a5.213,5.213,0,0,0-.364.882h-.187a1.106,1.106,0,0,0-1.105,1.1v.894a1.112,1.112,0,0,0,.006.118H9.586a.494.494,0,0,0,0,.987h4.16a5.182,5.182,0,0,0,.369.889l-.133.133a1.108,1.108,0,0,0,0,1.562l.631.631a1.1,1.1,0,0,0,.781.324h0a1.1,1.1,0,0,0,.782-.323l.132-.132a5.215,5.215,0,0,0,.892.37v.191a1.107,1.107,0,0,0,1.105,1.106H19.2a1.107,1.107,0,0,0,1.105-1.106v-.19a5.2,5.2,0,0,0,.9-.371l.132.131a1.1,1.1,0,0,0,.781.324h0a1.1,1.1,0,0,0,.783-.324l.63-.631a1.106,1.106,0,0,0,0-1.564l-.132-.132a5.213,5.213,0,0,0,.369-.889h.187a1.107,1.107,0,0,0,1.107-1.1v-.894A1.107,1.107,0,0,0,23.955,28.029ZM.987,18.52V14.666a1.559,1.559,0,0,1,1.329-1.683H20.961a1.559,1.559,0,0,1,1.329,1.683V18.52H.987ZM24.075,30.028a.122.122,0,0,1-.119.118h-.564a.494.494,0,0,0-.481.383,4.237,4.237,0,0,1-.544,1.312.494.494,0,0,0,.069.612l.4.4a.118.118,0,0,1,.034.084.114.114,0,0,1-.035.083l-.631.632a.119.119,0,0,1-.084.034h0a.115.115,0,0,1-.084-.035l-.4-.4a.494.494,0,0,0-.611-.068,4.23,4.23,0,0,1-1.317.545.494.494,0,0,0-.384.481v.568a.122.122,0,0,1-.118.119h-.895a.122.122,0,0,1-.118-.119v-.57a.494.494,0,0,0-.385-.481,4.236,4.236,0,0,1-1.315-.544.493.493,0,0,0-.611.069l-.4.4a.119.119,0,0,1-.084.034h0a.115.115,0,0,1-.083-.034l-.632-.632a.122.122,0,0,1,0-.166l.4-.4a.494.494,0,0,0,.069-.613,4.207,4.207,0,0,1-.545-1.311.494.494,0,0,0-.481-.383h-.567a.119.119,0,0,1-.118-.118v-.894a.12.12,0,0,1,.118-.118h.566a.494.494,0,0,0,.481-.384,4.235,4.235,0,0,1,.538-1.305.494.494,0,0,0-.069-.61l-.4-.405a.113.113,0,0,1-.033-.082.118.118,0,0,1,.034-.084l.631-.631a.119.119,0,0,1,.084-.034h0a.115.115,0,0,1,.084.035l.4.4a.494.494,0,0,0,.613.067,4.258,4.258,0,0,1,1.313-.55.494.494,0,0,0,.381-.481v-.564a.12.12,0,0,1,.118-.119h.893a.121.121,0,0,1,.119.119v.556a.494.494,0,0,0,.386.482,4.232,4.232,0,0,1,1.332.549.494.494,0,0,0,.611-.068l.4-.4a.114.114,0,0,1,.082-.033h0a.119.119,0,0,1,.084.034l.631.631a.118.118,0,0,1,.034.084.115.115,0,0,1-.035.083l-.4.4a.494.494,0,0,0-.068.612,4.225,4.225,0,0,1,.547,1.319.494.494,0,0,0,.481.384h.562a.122.122,0,0,1,.119.118Z" transform="translate(0 -11.996)" fill="#00d3d3"/>
      <path id="Path_1367" data-name="Path 1367" d="M324.576,309.652a3.015,3.015,0,1,0,3.015,3.015A3.019,3.019,0,0,0,324.576,309.652Zm0,5.042a2.027,2.027,0,1,1,2.028-2.027A2.03,2.03,0,0,1,324.576,314.694Z" transform="translate(-305.819 -295.082)" fill="#00d3d3"/>
      <path id="Path_1368" data-name="Path 1368" d="M141.675,382.778h-.01a.494.494,0,1,0,0,.987h.01a.494.494,0,0,0,0-.987Z" transform="translate(-134.262 -364.628)" fill="#00d3d3"/>
    </g>
  </g>
</svg>
