<svg xmlns="http://www.w3.org/2000/svg" width="9.737" height="11.107" viewBox="0 0 9.737 11.107">
  <g id="tamasha" opacity="0.56">
    <path id="Path_149" data-name="Path 149" d="M31.452-238.244a15.613,15.613,0,0,0-1.342.826c-.11.125-.11.135-.11,1.822v1.7l.13.1a.542.542,0,0,0,.29.105,21.46,21.46,0,0,0,2.769-1.5c2.794-1.612,2.774-1.6,2.693-1.942a.44.44,0,0,0-.115-.22c-.085-.075-2.278-1.347-2.6-1.512S32.754-238.995,31.452-238.244Z" transform="translate(-30 238.947)" fill="#fff"/>
    <path id="Path_150" data-name="Path 150" d="M35.933-185.244a14.485,14.485,0,0,0-1.412.876.413.413,0,0,0-.06.486,1.567,1.567,0,0,0,.476.365c.416.24.506.34.451.506a11.5,11.5,0,0,1-1.642.991.193.193,0,0,1-.185-.07c-.09-.09-.105-.165-.105-.6,0-.421-.015-.511-.105-.626a.313.313,0,0,0-.31-.13c-.18,0-.4.11-1.512.751a14.483,14.483,0,0,0-1.412.876c-.115.13-.115.155-.115,1.367a4.045,4.045,0,0,0,.075,1.347,13.625,13.625,0,0,0,1.342.836c1.347.776,1.442.811,1.752.646.581-.3,6.343-3.655,6.443-3.75l.125-.12v-3.2l-.125-.12a11.508,11.508,0,0,0-1.051-.651C37.8-185.9,37.6-186,37.435-186S37.014-185.87,35.933-185.244Z" transform="translate(-30 188.651)" fill="#fff"/>
  </g>
</svg>
