<svg xmlns="http://www.w3.org/2000/svg" id="eUCFqrVDPYh1" shape-rendering="geometricPrecision" text-rendering="geometricPrecision" viewBox="0 0 590 519"><style>@keyframes eUCFqrVDPYh30_c_o{0%,11.428571%,22.857143%,34.285714%,40%,48.571429%,57.142857%,65.714286%,74.285714%,82.857143%,94.285714%,to{opacity:1}17.142857%,28.571429%,42.857143%,5.714286%,51.428571%,60%,68.571429%,77.142857%,88.571429%{opacity:1;animation-timing-function:cubic-bezier(.42,0,.58,1)}20%,31.428571%,37.142857%,45.714286%,54.285714%,62.857143%,71.428571%,8.571429%,80%,91.428571%,97.142857%{opacity:.25;animation-timing-function:cubic-bezier(.42,0,.58,1)}}@keyframes eUCFqrVDPYh32_c_o{0%,11.428571%,22.857143%,37.142857%,45.714286%,54.285714%,62.857143%,71.428571%,82.857143%{opacity:1;animation-timing-function:cubic-bezier(.42,0,.58,1)}14.285714%,2.857143%,25.714286%,31.428571%,40%,48.571429%,57.142857%,65.714286%,74.285714%,85.714286%,91.428571%{opacity:.25;animation-timing-function:cubic-bezier(.42,0,.58,1)}17.142857%,28.571429%,34.285714%,42.857143%,5.714286%,51.428571%,60%,68.571429%,77.142857%,88.571429%,94.285714%,to{opacity:1}}@keyframes eUCFqrVDPYh35_c_o{0%,20%,28.571429%,40%,48.571429%,65.714286%,74.285714%,8.571429%,82.857143%,to{opacity:1}14.285714%,2.857143%,22.857143%,34.285714%,42.857143%,54.285714%,60%,68.571429%,77.142857%{opacity:1;animation-timing-function:cubic-bezier(.42,0,.58,1)}17.142857%,25.714286%,37.142857%,45.714286%,5.714286%,57.142857%,62.857143%,71.428571%,80%{opacity:.25;animation-timing-function:cubic-bezier(.42,0,.58,1)}}@keyframes eUCFqrVDPYh37_c_o{0%,25.714286%,34.285714%,48.571429%,57.142857%,62.857143%,68.571429%,77.142857%,8.571429%,85.714286%{opacity:1;animation-timing-function:cubic-bezier(.42,0,.58,1)}11.428571%,2.857143%,28.571429%,37.142857%,51.428571%,60%,65.714286%,71.428571%,80%,88.571429%{opacity:.25;animation-timing-function:cubic-bezier(.42,0,.58,1)}14.285714%,31.428571%,40%,5.714286%,54.285714%,74.285714%,82.857143%,91.428571%,to{opacity:1}}@keyframes eUCFqrVDPYh39_c_o{0%,17.142857%,25.714286%,34.285714%,51.428571%,77.142857%,8.571429%,88.571429%,97.142857%,to{opacity:1}11.428571%,2.857143%,20%,28.571429%,45.714286%,57.142857%,62.857143%,71.428571%,82.857143%,91.428571%{opacity:1;animation-timing-function:cubic-bezier(.42,0,.58,1)}14.285714%,22.857143%,31.428571%,48.571429%,5.714286%,60%,65.714286%,74.285714%,85.714286%,94.285714%{opacity:.25;animation-timing-function:cubic-bezier(.42,0,.58,1)}}@keyframes eUCFqrVDPYh40_c_o{0%,11.428571%,22.857143%,37.142857%,48.571429%,57.142857%,65.714286%,71.428571%,85.714286%,94.285714%{opacity:1;animation-timing-function:cubic-bezier(.42,0,.58,1)}14.285714%,2.857143%,25.714286%,40%,51.428571%,62.857143%,68.571429%,74.285714%,88.571429%,97.142857%{opacity:.25;animation-timing-function:cubic-bezier(.42,0,.58,1)}17.142857%,28.571429%,42.857143%,5.714286%,54.285714%,77.142857%,91.428571%,to{opacity:1}}@keyframes eUCFqrVDPYh41_c_o{0%,11.428571%,22.857143%,37.142857%,48.571429%,57.142857%,65.714286%,71.428571%,85.714286%,94.285714%{opacity:1;animation-timing-function:cubic-bezier(.42,0,.58,1)}14.285714%,2.857143%,25.714286%,40%,51.428571%,62.857143%,68.571429%,74.285714%,88.571429%,97.142857%{opacity:.25;animation-timing-function:cubic-bezier(.42,0,.58,1)}17.142857%,28.571429%,42.857143%,5.714286%,54.285714%,77.142857%,91.428571%,to{opacity:1}}@keyframes eUCFqrVDPYh42_c_o{0%,17.142857%,25.714286%,34.285714%,51.428571%,77.142857%,8.571429%,88.571429%,97.142857%,to{opacity:1}11.428571%,2.857143%,20%,28.571429%,45.714286%,57.142857%,62.857143%,71.428571%,82.857143%,91.428571%{opacity:1;animation-timing-function:cubic-bezier(.42,0,.58,1)}14.285714%,22.857143%,31.428571%,48.571429%,5.714286%,60%,65.714286%,74.285714%,85.714286%,94.285714%{opacity:.25;animation-timing-function:cubic-bezier(.42,0,.58,1)}}@keyframes eUCFqrVDPYh44_c_o{0%,17.142857%,31.428571%,40%,54.285714%,74.285714%,8.571429%,85.714286%,94.285714%,to{opacity:1}11.428571%,2.857143%,25.714286%,34.285714%,48.571429%,57.142857%,62.857143%,68.571429%,80%,88.571429%{opacity:1;animation-timing-function:cubic-bezier(.42,0,.58,1)}14.285714%,28.571429%,37.142857%,5.714286%,51.428571%,60%,65.714286%,71.428571%,82.857143%,91.428571%{opacity:.25;animation-timing-function:cubic-bezier(.42,0,.58,1)}}@keyframes eUCFqrVDPYh45_c_o{0%,20%,31.428571%,42.857143%,51.428571%,74.285714%,8.571429%,85.714286%,97.142857%,to{opacity:1}14.285714%,2.857143%,25.714286%,37.142857%,45.714286%,54.285714%,68.571429%,80%,91.428571%{opacity:1;animation-timing-function:cubic-bezier(.42,0,.58,1)}17.142857%,28.571429%,40%,48.571429%,5.714286%,57.142857%,71.428571%,82.857143%,94.285714%{opacity:.25;animation-timing-function:cubic-bezier(.42,0,.58,1)}}@keyframes eUCFqrVDPYh47_c_o{0%,11.428571%,22.857143%,37.142857%,45.714286%,54.285714%,62.857143%,71.428571%,82.857143%{opacity:1;animation-timing-function:cubic-bezier(.42,0,.58,1)}14.285714%,2.857143%,25.714286%,31.428571%,40%,48.571429%,57.142857%,65.714286%,74.285714%,85.714286%,91.428571%{opacity:.25;animation-timing-function:cubic-bezier(.42,0,.58,1)}17.142857%,28.571429%,34.285714%,42.857143%,5.714286%,51.428571%,60%,68.571429%,77.142857%,88.571429%,94.285714%,to{opacity:1}}@keyframes eUCFqrVDPYh49_c_o{0%,14.285714%,22.857143%,37.142857%,45.714286%,54.285714%,62.857143%,74.285714%,85.714286%{opacity:1;animation-timing-function:cubic-bezier(.42,0,.58,1)}17.142857%,2.857143%,25.714286%,31.428571%,40%,48.571429%,57.142857%,65.714286%,77.142857%,88.571429%,94.285714%{opacity:.25;animation-timing-function:cubic-bezier(.42,0,.58,1)}20%,28.571429%,34.285714%,42.857143%,5.714286%,51.428571%,60%,68.571429%,80%,91.428571%,97.142857%,to{opacity:1}}@keyframes eUCFqrVDPYh52_ts__ts{0%{transform:translate(470.395004px,198.470001px) scale(1,1);animation-timing-function:cubic-bezier(.42,0,.58,1)}42.857143%{transform:translate(470.395004px,198.470001px) scale(1.1,1.1);animation-timing-function:cubic-bezier(.42,0,.58,1)}to{transform:translate(470.395004px,198.470001px) scale(1,1)}}@keyframes eUCFqrVDPYh55_to__to{0%{transform:translate(470.360001px,136.369999px);animation-timing-function:cubic-bezier(.42,0,.58,1)}42.857143%{transform:translate(470.360001px,153.369999px);animation-timing-function:cubic-bezier(.42,0,.58,1)}to{transform:translate(470.360001px,136.369999px)}}@keyframes eUCFqrVDPYh63_ts__ts{0%,to{transform:translate(300.190002px,303.660004px) scale(1,1)}11.428571%{transform:translate(300.190002px,303.660004px) scale(1,1);animation-timing-function:cubic-bezier(.42,0,.58,1)}54.285714%{transform:translate(300.190002px,303.660004px) scale(.9,.9);animation-timing-function:cubic-bezier(.42,0,.58,1)}}@keyframes eUCFqrVDPYh66_to__to{0%,to{transform:translate(299.889999px,265.025002px)}11.428571%{transform:translate(299.889999px,265.025002px);animation-timing-function:cubic-bezier(.42,0,.58,1)}54.285714%{transform:translate(299.889999px,251.025002px);animation-timing-function:cubic-bezier(.42,0,.58,1)}}@keyframes eUCFqrVDPYh74_ts__ts{0%{transform:translate(123.384998px,197.504997px) scale(1,1);animation-timing-function:cubic-bezier(.42,0,.58,1)}42.857143%{transform:translate(123.384998px,197.504997px) scale(.9,.9);animation-timing-function:cubic-bezier(.42,0,.58,1)}to{transform:translate(123.384998px,197.504997px) scale(1,1)}}@keyframes eUCFqrVDPYh77_to__to{0%{transform:translate(123.355px,149.790005px);animation-timing-function:cubic-bezier(.42,0,.58,1)}42.857143%{transform:translate(123.355px,130.790005px);animation-timing-function:cubic-bezier(.42,0,.58,1)}to{transform:translate(123.355px,149.790005px)}}@keyframes eUCFqrVDPYh85_ts__ts{0%,to{transform:translate(336.525009px,97.935001px) scale(1,1)}5.714286%{transform:translate(336.525009px,97.935001px) scale(1,1);animation-timing-function:cubic-bezier(.42,0,.58,1)}51.428571%{transform:translate(336.525009px,97.935001px) scale(1.1,1.1);animation-timing-function:cubic-bezier(.42,0,.58,1)}}@keyframes eUCFqrVDPYh88_to__to{0%,to{transform:translate(336.5px,55.75px)}5.714286%{transform:translate(336.5px,55.75px);animation-timing-function:cubic-bezier(.42,0,.58,1)}51.428571%{transform:translate(336.5px,70.75px);animation-timing-function:cubic-bezier(.42,0,.58,1)}}@keyframes eUCFqrVDPYh97_to__to{0%,73.714286%{transform:translate(264.17px,83.637809px);animation-timing-function:cubic-bezier(.42,0,.58,1)}11.428571%,85.142857%,to{transform:translate(264.17px,174.190001px)}}@keyframes eUCFqrVDPYh97_ts__ts{0%{transform:scale(1,1)}5.714286%,79.428571%{transform:scale(1,1);animation-timing-function:cubic-bezier(.42,0,.58,1)}11.428571%,85.142857%,to{transform:scale(1,0)}}@keyframes eUCFqrVDPYh97_c_o{.571429%,0%,10.571429%,74.285714%,84.285714%,to{opacity:0}1.714286%,75.428571%,83.142857%,9.428571%{opacity:.64;animation-timing-function:cubic-bezier(.42,0,.58,1)}}@keyframes eUCFqrVDPYh99_to__to{0%{transform:translate(264.17px,83.637809px)}21.714286%,53.714286%,88%{transform:translate(264.17px,83.637809px);animation-timing-function:cubic-bezier(.42,0,.58,1)}33.142857%,65.142857%,99.428571%,to{transform:translate(264.17px,174.190001px)}}@keyframes eUCFqrVDPYh99_ts__ts{0%{transform:scale(1,1)}27.428571%,59.428571%,93.714286%{transform:scale(1,1);animation-timing-function:cubic-bezier(.42,0,.58,1)}33.142857%,65.142857%,99.428571%,to{transform:scale(1,0)}}@keyframes eUCFqrVDPYh99_c_o{0%,22.285714%,32.285714%,54.285714%,64.285714%,88.571429%,98.571429%,to{opacity:0}23.428571%,31.142857%,55.428571%,63.142857%,89.714286%,97.428571%{opacity:.64;animation-timing-function:cubic-bezier(.42,0,.58,1)}}@keyframes eUCFqrVDPYh101_to__to{0%{transform:translate(264.17px,83.637809px)}10%,62.857143%{transform:translate(264.17px,83.637809px);animation-timing-function:cubic-bezier(.42,0,.58,1)}21.428571%,74.285714%,to{transform:translate(264.17px,174.190001px)}}@keyframes eUCFqrVDPYh101_ts__ts{0%{transform:scale(1,1)}15.714286%,68.571429%{transform:scale(1,1);animation-timing-function:cubic-bezier(.42,0,.58,1)}21.428571%,74.285714%,to{transform:scale(1,0)}}@keyframes eUCFqrVDPYh101_c_o{0%,10.285714%,20.285714%,63.142857%,73.142857%,to{opacity:0}11.428571%,19.142857%,64.285714%,72%{opacity:.64;animation-timing-function:cubic-bezier(.42,0,.58,1)}}@keyframes eUCFqrVDPYh103_to__to{0%{transform:translate(264.17px,83.637809px)}18.285714%,45.714286%,77.142857%{transform:translate(264.17px,83.637809px);animation-timing-function:cubic-bezier(.42,0,.58,1)}29.714286%,57.142857%,88.571429%,to{transform:translate(264.17px,174.190001px)}}@keyframes eUCFqrVDPYh103_ts__ts{0%{transform:scale(1,1)}24%,51.428571%,82.857143%{transform:scale(1,1);animation-timing-function:cubic-bezier(.42,0,.58,1)}29.714286%,57.142857%,88.571429%,to{transform:scale(1,0)}}@keyframes eUCFqrVDPYh103_c_o{0%,18.571429%,28.571429%,46%,56%,77.428571%,87.428571%,to{opacity:0}19.714286%,27.428571%,47.142857%,54.857143%,78.571429%,86.285714%{opacity:.64;animation-timing-function:cubic-bezier(.42,0,.58,1)}}@keyframes eUCFqrVDPYh105_to__to{0%{transform:translate(264.17px,83.637809px)}26.857143%,62.857143%,87.142857%{transform:translate(264.17px,83.637809px);animation-timing-function:cubic-bezier(.42,0,.58,1)}38.285714%,74.285714%,98.571429%,to{transform:translate(264.17px,174.190001px)}}@keyframes eUCFqrVDPYh105_ts__ts{0%{transform:scale(1,1)}32.571429%,68.571429%,92.857143%{transform:scale(1,1);animation-timing-function:cubic-bezier(.42,0,.58,1)}38.285714%,74.285714%,98.571429%,to{transform:scale(1,0)}}@keyframes eUCFqrVDPYh105_c_o{0%,27.142857%,37.142857%,63.142857%,73.142857%,87.428571%,97.428571%,to{opacity:0}28.285714%,36%,64.285714%,72%,88.571429%,96.285714%{opacity:.64;animation-timing-function:cubic-bezier(.42,0,.58,1)}}@keyframes eUCFqrVDPYh107_to__to{0%{transform:translate(264.17px,83.637809px)}40%,77.142857%,8.285714%{transform:translate(264.17px,83.637809px);animation-timing-function:cubic-bezier(.42,0,.58,1)}19.714286%,51.428571%,88.571429%,to{transform:translate(264.17px,174.190001px)}}@keyframes eUCFqrVDPYh107_ts__ts{0%{transform:scale(1,1)}14%,45.714286%,82.857143%{transform:scale(1,1);animation-timing-function:cubic-bezier(.42,0,.58,1)}19.714286%,51.428571%,88.571429%,to{transform:scale(1,0)}}@keyframes eUCFqrVDPYh107_c_o{0%,18.571429%,40.285714%,50.285714%,77.428571%,8.571429%,87.428571%,to{opacity:0}17.428571%,41.428571%,49.142857%,78.571429%,86.285714%,9.714286%{opacity:.64;animation-timing-function:cubic-bezier(.42,0,.58,1)}}</style><defs><linearGradient id="eUCFqrVDPYh10-fill" x1="315.4" x2="265.1" y1="392" y2="-84.8" gradientUnits="userSpaceOnUse" spreadMethod="pad"><stop id="eUCFqrVDPYh10-fill-0" offset="0%" stop-color="#156488"/><stop id="eUCFqrVDPYh10-fill-1" offset="100%" stop-color="#28d2d5"/></linearGradient><linearGradient id="eUCFqrVDPYh11-stroke" x1="299.5" x2="296.6" y1="108" y2="396.6" gradientUnits="userSpaceOnUse" spreadMethod="pad"><stop id="eUCFqrVDPYh11-stroke-0" offset="0%" stop-color="#156488"/><stop id="eUCFqrVDPYh11-stroke-1" offset="100%" stop-color="#28d2d5"/></linearGradient><linearGradient id="eUCFqrVDPYh12-fill" x1="299.3" x2="297.1" y1="110.9" y2="336.7" gradientUnits="userSpaceOnUse" spreadMethod="pad"><stop id="eUCFqrVDPYh12-fill-0" offset="0%" stop-color="#156488"/><stop id="eUCFqrVDPYh12-fill-1" offset="100%" stop-color="#28d2d5"/></linearGradient><linearGradient id="eUCFqrVDPYh13-stroke" x1="299.8" x2="296.9" y1="68.2" y2="356.8" gradientUnits="userSpaceOnUse" spreadMethod="pad"><stop id="eUCFqrVDPYh13-stroke-0" offset="0%" stop-color="#156488"/><stop id="eUCFqrVDPYh13-stroke-1" offset="99%" stop-color="#00ffe9"/></linearGradient><linearGradient id="eUCFqrVDPYh16-fill" x1="302.8" x2="276.4" y1="304.1" y2="53.2" gradientUnits="userSpaceOnUse" spreadMethod="pad"><stop id="eUCFqrVDPYh16-fill-0" offset="0%" stop-color="#156488"/><stop id="eUCFqrVDPYh16-fill-1" offset="100%" stop-color="#28d2d5"/></linearGradient><linearGradient id="eUCFqrVDPYh17-stroke" x1="294.5" x2="292.9" y1="154.2" y2="307.1" gradientUnits="userSpaceOnUse" spreadMethod="pad"><stop id="eUCFqrVDPYh17-stroke-0" offset="0%" stop-color="#156488"/><stop id="eUCFqrVDPYh17-stroke-1" offset="100%" stop-color="#28d2d5"/></linearGradient><linearGradient id="eUCFqrVDPYh18-fill" x1="294.4" x2="293.2" y1="156.2" y2="275" gradientUnits="userSpaceOnUse" spreadMethod="pad"><stop id="eUCFqrVDPYh18-fill-0" offset="0%" stop-color="#156488"/><stop id="eUCFqrVDPYh18-fill-1" offset="100%" stop-color="#28d2d5"/></linearGradient><linearGradient id="eUCFqrVDPYh19-stroke" x1="294.6" x2="293.1" y1="133.3" y2="286.1" gradientUnits="userSpaceOnUse" spreadMethod="pad"><stop id="eUCFqrVDPYh19-stroke-0" offset="0%" stop-color="#156488"/><stop id="eUCFqrVDPYh19-stroke-1" offset="99%" stop-color="#00ffe9"/></linearGradient><linearGradient id="eUCFqrVDPYh21-fill" x1="299.8" x2="277.4" y1="264.5" y2="52.1" gradientUnits="userSpaceOnUse" spreadMethod="pad"><stop id="eUCFqrVDPYh21-fill-0" offset="0%" stop-color="#156488"/><stop id="eUCFqrVDPYh21-fill-1" offset="100%" stop-color="#28d2d5"/></linearGradient><linearGradient id="eUCFqrVDPYh22-stroke" x1="292.7" x2="291.4" y1="137.4" y2="267.1" gradientUnits="userSpaceOnUse" spreadMethod="pad"><stop id="eUCFqrVDPYh22-stroke-0" offset="0%" stop-color="#156488"/><stop id="eUCFqrVDPYh22-stroke-1" offset="100%" stop-color="#28d2d5"/></linearGradient><linearGradient id="eUCFqrVDPYh23-fill" x1="292.7" x2="291.7" y1="139.3" y2="239.8" gradientUnits="userSpaceOnUse" spreadMethod="pad"><stop id="eUCFqrVDPYh23-fill-0" offset="0%" stop-color="#156488"/><stop id="eUCFqrVDPYh23-fill-1" offset="100%" stop-color="#28d2d5"/></linearGradient><linearGradient id="eUCFqrVDPYh24-stroke" x1="292.9" x2="291.6" y1="119.7" y2="249.3" gradientUnits="userSpaceOnUse" spreadMethod="pad"><stop id="eUCFqrVDPYh24-stroke-0" offset="0%" stop-color="#156488"/><stop id="eUCFqrVDPYh24-stroke-1" offset="99%" stop-color="#00ffe9"/></linearGradient><linearGradient id="eUCFqrVDPYh25-fill" x1="366.1" x2="292.4" y1="167.3" y2="165.1" gradientUnits="userSpaceOnUse" spreadMethod="pad"><stop id="eUCFqrVDPYh25-fill-0" offset="0%" stop-color="#197b9f"/><stop id="eUCFqrVDPYh25-fill-1" offset="100%" stop-color="#2ed5cf"/></linearGradient><linearGradient id="eUCFqrVDPYh26-fill" x1="320.5" x2="208" y1="200.3" y2="197.1" gradientUnits="userSpaceOnUse" spreadMethod="pad"><stop id="eUCFqrVDPYh26-fill-0" offset="0%" stop-color="#197b9f"/><stop id="eUCFqrVDPYh26-fill-1" offset="100%" stop-color="#2ed5cf"/></linearGradient><linearGradient id="eUCFqrVDPYh27-fill" x1="284.3" x2="291.2" y1="137.5" y2="184.3" gradientUnits="userSpaceOnUse" spreadMethod="pad"><stop id="eUCFqrVDPYh27-fill-0" offset="0%" stop-color="#197b9f"/><stop id="eUCFqrVDPYh27-fill-1" offset="100%" stop-color="#2ed5cf"/></linearGradient><linearGradient id="eUCFqrVDPYh28-stroke" x1="295.1" x2="277.1" y1="124.8" y2="217.6" gradientUnits="userSpaceOnUse" spreadMethod="pad"><stop id="eUCFqrVDPYh28-stroke-0" offset="0%" stop-color="rgba(0,252,248,0)"/><stop id="eUCFqrVDPYh28-stroke-1" offset="2%" stop-color="rgba(0,252,248,0.03)"/><stop id="eUCFqrVDPYh28-stroke-2" offset="51%" stop-color="rgba(0,252,248,0.54)"/><stop id="eUCFqrVDPYh28-stroke-3" offset="85%" stop-color="rgba(0,252,248,0.87)"/><stop id="eUCFqrVDPYh28-stroke-4" offset="100%" stop-color="#00fcf8"/></linearGradient><linearGradient id="eUCFqrVDPYh53-fill" x1="471.5" x2="467.6" y1="169.9" y2="246.1" gradientUnits="userSpaceOnUse" spreadMethod="pad"><stop id="eUCFqrVDPYh53-fill-0" offset="0%" stop-color="rgba(25,255,232,0)"/><stop id="eUCFqrVDPYh53-fill-1" offset="100%" stop-color="#19ffe8"/></linearGradient><linearGradient id="eUCFqrVDPYh54-stroke" x1="441.3" x2="498.7" y1="220.9" y2="220.9" gradientUnits="userSpaceOnUse" spreadMethod="pad"><stop id="eUCFqrVDPYh54-stroke-0" offset="0%" stop-color="rgba(25,255,232,0)"/><stop id="eUCFqrVDPYh54-stroke-1" offset="100%" stop-color="#19ffe8"/></linearGradient><linearGradient id="eUCFqrVDPYh57-fill" x1="411.4" x2="524.4" y1="143.7" y2="167" gradientUnits="userSpaceOnUse" spreadMethod="pad"><stop id="eUCFqrVDPYh57-fill-0" offset="0%" stop-color="#197b9f"/><stop id="eUCFqrVDPYh57-fill-1" offset="100%" stop-color="#2ed5cf"/></linearGradient><linearGradient id="eUCFqrVDPYh58-fill" x1="473.2" x2="535.7" y1="153.6" y2="150.1" gradientUnits="userSpaceOnUse" spreadMethod="pad"><stop id="eUCFqrVDPYh58-fill-0" offset="0%" stop-color="#197b9f"/><stop id="eUCFqrVDPYh58-fill-1" offset="100%" stop-color="#2ed5cf"/></linearGradient><linearGradient id="eUCFqrVDPYh59-fill" x1="505.1" x2="456.9" y1="158.5" y2="119.7" gradientUnits="userSpaceOnUse" spreadMethod="pad"><stop id="eUCFqrVDPYh59-fill-0" offset="0%" stop-color="#197b9f"/><stop id="eUCFqrVDPYh59-fill-1" offset="100%" stop-color="#2ed5cf"/></linearGradient><linearGradient id="eUCFqrVDPYh60-stroke" x1="468.9" x2="471.1" y1="114.5" y2="176.3" gradientUnits="userSpaceOnUse" spreadMethod="pad"><stop id="eUCFqrVDPYh60-stroke-0" offset="0%" stop-color="rgba(66,232,215,0)"/><stop id="eUCFqrVDPYh60-stroke-1" offset="13%" stop-color="rgba(66,232,215,0.02)"/><stop id="eUCFqrVDPYh60-stroke-2" offset="26%" stop-color="rgba(66,232,215,0.07)"/><stop id="eUCFqrVDPYh60-stroke-3" offset="39%" stop-color="rgba(66,232,215,0.16)"/><stop id="eUCFqrVDPYh60-stroke-4" offset="53%" stop-color="rgba(66,232,215,0.29)"/><stop id="eUCFqrVDPYh60-stroke-5" offset="66%" stop-color="rgba(66,232,215,0.45)"/><stop id="eUCFqrVDPYh60-stroke-6" offset="80%" stop-color="rgba(66,232,215,0.65)"/><stop id="eUCFqrVDPYh60-stroke-7" offset="93%" stop-color="rgba(66,232,215,0.88)"/><stop id="eUCFqrVDPYh60-stroke-8" offset="100%" stop-color="#42e8d7"/></linearGradient><linearGradient id="eUCFqrVDPYh61-stroke" x1="470.5" x2="470.5" y1="145.5" y2="128.9" gradientUnits="userSpaceOnUse" spreadMethod="pad"><stop id="eUCFqrVDPYh61-stroke-0" offset="0%" stop-color="#42e8d7"/><stop id="eUCFqrVDPYh61-stroke-1" offset="10%" stop-color="rgba(66,232,215,0.94)"/><stop id="eUCFqrVDPYh61-stroke-2" offset="28%" stop-color="rgba(66,232,215,0.79)"/><stop id="eUCFqrVDPYh61-stroke-3" offset="53%" stop-color="rgba(66,232,215,0.54)"/><stop id="eUCFqrVDPYh61-stroke-4" offset="83%" stop-color="rgba(66,232,215,0.2)"/><stop id="eUCFqrVDPYh61-stroke-5" offset="100%" stop-color="rgba(66,232,215,0)"/></linearGradient><linearGradient id="eUCFqrVDPYh62-stroke" x1="468.9" x2="471" y1="136.7" y2="175.7" gradientUnits="userSpaceOnUse" spreadMethod="pad"><stop id="eUCFqrVDPYh62-stroke-0" offset="0%" stop-color="rgba(66,232,215,0)"/><stop id="eUCFqrVDPYh62-stroke-1" offset="13%" stop-color="rgba(66,232,215,0.02)"/><stop id="eUCFqrVDPYh62-stroke-2" offset="26%" stop-color="rgba(66,232,215,0.07)"/><stop id="eUCFqrVDPYh62-stroke-3" offset="39%" stop-color="rgba(66,232,215,0.16)"/><stop id="eUCFqrVDPYh62-stroke-4" offset="53%" stop-color="rgba(66,232,215,0.29)"/><stop id="eUCFqrVDPYh62-stroke-5" offset="66%" stop-color="rgba(66,232,215,0.45)"/><stop id="eUCFqrVDPYh62-stroke-6" offset="80%" stop-color="rgba(66,232,215,0.65)"/><stop id="eUCFqrVDPYh62-stroke-7" offset="93%" stop-color="rgba(66,232,215,0.88)"/><stop id="eUCFqrVDPYh62-stroke-8" offset="100%" stop-color="#42e8d7"/></linearGradient><linearGradient id="eUCFqrVDPYh64-fill" x1="300.8" x2="297.6" y1="280.2" y2="342.8" gradientUnits="userSpaceOnUse" spreadMethod="pad"><stop id="eUCFqrVDPYh64-fill-0" offset="0%" stop-color="rgba(25,255,232,0)"/><stop id="eUCFqrVDPYh64-fill-1" offset="100%" stop-color="#19ffe8"/></linearGradient><linearGradient id="eUCFqrVDPYh65-stroke" x1="275.8" x2="323.3" y1="322.1" y2="322.1" gradientUnits="userSpaceOnUse" spreadMethod="pad"><stop id="eUCFqrVDPYh65-stroke-0" offset="0%" stop-color="rgba(25,255,232,0)"/><stop id="eUCFqrVDPYh65-stroke-1" offset="100%" stop-color="#19ffe8"/></linearGradient><linearGradient id="eUCFqrVDPYh68-fill" x1="251.4" x2="344.3" y1="258.7" y2="277.8" gradientUnits="userSpaceOnUse" spreadMethod="pad"><stop id="eUCFqrVDPYh68-fill-0" offset="0%" stop-color="#197b9f"/><stop id="eUCFqrVDPYh68-fill-1" offset="100%" stop-color="#2ed5cf"/></linearGradient><linearGradient id="eUCFqrVDPYh69-fill" x1="302.2" x2="353.6" y1="266.8" y2="263.9" gradientUnits="userSpaceOnUse" spreadMethod="pad"><stop id="eUCFqrVDPYh69-fill-0" offset="0%" stop-color="#197b9f"/><stop id="eUCFqrVDPYh69-fill-1" offset="100%" stop-color="#2ed5cf"/></linearGradient><linearGradient id="eUCFqrVDPYh70-fill" x1="328.5" x2="288.8" y1="270.8" y2="238.9" gradientUnits="userSpaceOnUse" spreadMethod="pad"><stop id="eUCFqrVDPYh70-fill-0" offset="0%" stop-color="#197b9f"/><stop id="eUCFqrVDPYh70-fill-1" offset="100%" stop-color="#2ed5cf"/></linearGradient><linearGradient id="eUCFqrVDPYh71-stroke" x1="298.7" x2="300.5" y1="234.5" y2="285.5" gradientUnits="userSpaceOnUse" spreadMethod="pad"><stop id="eUCFqrVDPYh71-stroke-0" offset="0%" stop-color="rgba(66,232,215,0)"/><stop id="eUCFqrVDPYh71-stroke-1" offset="13%" stop-color="rgba(66,232,215,0.02)"/><stop id="eUCFqrVDPYh71-stroke-2" offset="26%" stop-color="rgba(66,232,215,0.07)"/><stop id="eUCFqrVDPYh71-stroke-3" offset="39%" stop-color="rgba(66,232,215,0.16)"/><stop id="eUCFqrVDPYh71-stroke-4" offset="53%" stop-color="rgba(66,232,215,0.29)"/><stop id="eUCFqrVDPYh71-stroke-5" offset="66%" stop-color="rgba(66,232,215,0.45)"/><stop id="eUCFqrVDPYh71-stroke-6" offset="80%" stop-color="rgba(66,232,215,0.65)"/><stop id="eUCFqrVDPYh71-stroke-7" offset="93%" stop-color="rgba(66,232,215,0.88)"/><stop id="eUCFqrVDPYh71-stroke-8" offset="100%" stop-color="#42e8d7"/></linearGradient><linearGradient id="eUCFqrVDPYh72-stroke" x1="300" x2="300" y1="260.2" y2="246.4" gradientUnits="userSpaceOnUse" spreadMethod="pad"><stop id="eUCFqrVDPYh72-stroke-0" offset="0%" stop-color="#42e8d7"/><stop id="eUCFqrVDPYh72-stroke-1" offset="10%" stop-color="rgba(66,232,215,0.94)"/><stop id="eUCFqrVDPYh72-stroke-2" offset="28%" stop-color="rgba(66,232,215,0.79)"/><stop id="eUCFqrVDPYh72-stroke-3" offset="53%" stop-color="rgba(66,232,215,0.54)"/><stop id="eUCFqrVDPYh72-stroke-4" offset="83%" stop-color="rgba(66,232,215,0.2)"/><stop id="eUCFqrVDPYh72-stroke-5" offset="100%" stop-color="rgba(66,232,215,0)"/></linearGradient><linearGradient id="eUCFqrVDPYh73-stroke" x1="298.7" x2="300.4" y1="252.9" y2="284.9" gradientUnits="userSpaceOnUse" spreadMethod="pad"><stop id="eUCFqrVDPYh73-stroke-0" offset="0%" stop-color="rgba(66,232,215,0)"/><stop id="eUCFqrVDPYh73-stroke-1" offset="13%" stop-color="rgba(66,232,215,0.02)"/><stop id="eUCFqrVDPYh73-stroke-2" offset="26%" stop-color="rgba(66,232,215,0.07)"/><stop id="eUCFqrVDPYh73-stroke-3" offset="39%" stop-color="rgba(66,232,215,0.16)"/><stop id="eUCFqrVDPYh73-stroke-4" offset="53%" stop-color="rgba(66,232,215,0.29)"/><stop id="eUCFqrVDPYh73-stroke-5" offset="66%" stop-color="rgba(66,232,215,0.45)"/><stop id="eUCFqrVDPYh73-stroke-6" offset="80%" stop-color="rgba(66,232,215,0.65)"/><stop id="eUCFqrVDPYh73-stroke-7" offset="93%" stop-color="rgba(66,232,215,0.88)"/><stop id="eUCFqrVDPYh73-stroke-8" offset="100%" stop-color="#42e8d7"/></linearGradient><linearGradient id="eUCFqrVDPYh75-stroke" x1="97.1" x2="148.9" y1="217.7" y2="217.7" gradientUnits="userSpaceOnUse" spreadMethod="pad"><stop id="eUCFqrVDPYh75-stroke-0" offset="0%" stop-color="rgba(25,255,232,0)"/><stop id="eUCFqrVDPYh75-stroke-1" offset="100%" stop-color="#19ffe8"/></linearGradient><linearGradient id="eUCFqrVDPYh76-fill" x1="124.4" x2="120.9" y1="171.8" y2="240.3" gradientUnits="userSpaceOnUse" spreadMethod="pad"><stop id="eUCFqrVDPYh76-fill-0" offset="0%" stop-color="rgba(25,255,232,0)"/><stop id="eUCFqrVDPYh76-fill-1" offset="100%" stop-color="#19ffe8"/></linearGradient><linearGradient id="eUCFqrVDPYh79-fill" x1="70.4" x2="171.9" y1="148.3" y2="169.3" gradientUnits="userSpaceOnUse" spreadMethod="pad"><stop id="eUCFqrVDPYh79-fill-0" offset="0%" stop-color="#197b9f"/><stop id="eUCFqrVDPYh79-fill-1" offset="100%" stop-color="#2ed5cf"/></linearGradient><linearGradient id="eUCFqrVDPYh80-fill" x1="125.9" x2="182" y1="157.1" y2="154" gradientUnits="userSpaceOnUse" spreadMethod="pad"><stop id="eUCFqrVDPYh80-fill-0" offset="0%" stop-color="#197b9f"/><stop id="eUCFqrVDPYh80-fill-1" offset="100%" stop-color="#2ed5cf"/></linearGradient><linearGradient id="eUCFqrVDPYh81-fill" x1="154.6" x2="111.3" y1="161.6" y2="126.7" gradientUnits="userSpaceOnUse" spreadMethod="pad"><stop id="eUCFqrVDPYh81-fill-0" offset="0%" stop-color="#197b9f"/><stop id="eUCFqrVDPYh81-fill-1" offset="100%" stop-color="#2ed5cf"/></linearGradient><linearGradient id="eUCFqrVDPYh82-stroke" x1="122" x2="124" y1="121.9" y2="177.6" gradientUnits="userSpaceOnUse" spreadMethod="pad"><stop id="eUCFqrVDPYh82-stroke-0" offset="0%" stop-color="rgba(66,232,215,0)"/><stop id="eUCFqrVDPYh82-stroke-1" offset="13%" stop-color="rgba(66,232,215,0.02)"/><stop id="eUCFqrVDPYh82-stroke-2" offset="26%" stop-color="rgba(66,232,215,0.07)"/><stop id="eUCFqrVDPYh82-stroke-3" offset="39%" stop-color="rgba(66,232,215,0.16)"/><stop id="eUCFqrVDPYh82-stroke-4" offset="53%" stop-color="rgba(66,232,215,0.29)"/><stop id="eUCFqrVDPYh82-stroke-5" offset="66%" stop-color="rgba(66,232,215,0.45)"/><stop id="eUCFqrVDPYh82-stroke-6" offset="80%" stop-color="rgba(66,232,215,0.65)"/><stop id="eUCFqrVDPYh82-stroke-7" offset="93%" stop-color="rgba(66,232,215,0.88)"/><stop id="eUCFqrVDPYh82-stroke-8" offset="100%" stop-color="#42e8d7"/></linearGradient><linearGradient id="eUCFqrVDPYh83-stroke" x1="123.5" x2="123.5" y1="149.9" y2="135" gradientUnits="userSpaceOnUse" spreadMethod="pad"><stop id="eUCFqrVDPYh83-stroke-0" offset="0%" stop-color="#42e8d7"/><stop id="eUCFqrVDPYh83-stroke-1" offset="10%" stop-color="rgba(66,232,215,0.94)"/><stop id="eUCFqrVDPYh83-stroke-2" offset="28%" stop-color="rgba(66,232,215,0.79)"/><stop id="eUCFqrVDPYh83-stroke-3" offset="53%" stop-color="rgba(66,232,215,0.54)"/><stop id="eUCFqrVDPYh83-stroke-4" offset="83%" stop-color="rgba(66,232,215,0.2)"/><stop id="eUCFqrVDPYh83-stroke-5" offset="100%" stop-color="rgba(66,232,215,0)"/></linearGradient><linearGradient id="eUCFqrVDPYh84-stroke" x1="122.1" x2="123.9" y1="142" y2="177" gradientUnits="userSpaceOnUse" spreadMethod="pad"><stop id="eUCFqrVDPYh84-stroke-0" offset="0%" stop-color="rgba(66,232,215,0)"/><stop id="eUCFqrVDPYh84-stroke-1" offset="13%" stop-color="rgba(66,232,215,0.02)"/><stop id="eUCFqrVDPYh84-stroke-2" offset="26%" stop-color="rgba(66,232,215,0.07)"/><stop id="eUCFqrVDPYh84-stroke-3" offset="39%" stop-color="rgba(66,232,215,0.16)"/><stop id="eUCFqrVDPYh84-stroke-4" offset="53%" stop-color="rgba(66,232,215,0.29)"/><stop id="eUCFqrVDPYh84-stroke-5" offset="66%" stop-color="rgba(66,232,215,0.45)"/><stop id="eUCFqrVDPYh84-stroke-6" offset="80%" stop-color="rgba(66,232,215,0.65)"/><stop id="eUCFqrVDPYh84-stroke-7" offset="93%" stop-color="rgba(66,232,215,0.88)"/><stop id="eUCFqrVDPYh84-stroke-8" offset="100%" stop-color="#42e8d7"/></linearGradient><linearGradient id="eUCFqrVDPYh86-fill" x1="337.3" x2="334.7" y1="79" y2="129.5" gradientUnits="userSpaceOnUse" spreadMethod="pad"><stop id="eUCFqrVDPYh86-fill-0" offset="0%" stop-color="rgba(25,255,232,0)"/><stop id="eUCFqrVDPYh86-fill-1" offset="100%" stop-color="#19ffe8"/></linearGradient><linearGradient id="eUCFqrVDPYh87-stroke" x1="316.9" x2="355.6" y1="112.8" y2="112.8" gradientUnits="userSpaceOnUse" spreadMethod="pad"><stop id="eUCFqrVDPYh87-stroke-0" offset="0%" stop-color="rgba(25,255,232,0)"/><stop id="eUCFqrVDPYh87-stroke-1" offset="100%" stop-color="#19ffe8"/></linearGradient><linearGradient id="eUCFqrVDPYh90-fill" x1="297.4" x2="372.3" y1="61.7" y2="77.1" gradientUnits="userSpaceOnUse" spreadMethod="pad"><stop id="eUCFqrVDPYh90-fill-0" offset="0%" stop-color="#197b9f"/><stop id="eUCFqrVDPYh90-fill-1" offset="100%" stop-color="#2ed5cf"/></linearGradient><linearGradient id="eUCFqrVDPYh91-fill" x1="338.4" x2="379.8" y1="68.2" y2="65.9" gradientUnits="userSpaceOnUse" spreadMethod="pad"><stop id="eUCFqrVDPYh91-fill-0" offset="0%" stop-color="#197b9f"/><stop id="eUCFqrVDPYh91-fill-1" offset="100%" stop-color="#2ed5cf"/></linearGradient><linearGradient id="eUCFqrVDPYh92-fill" x1="359.6" x2="327.6" y1="71.5" y2="45.7" gradientUnits="userSpaceOnUse" spreadMethod="pad"><stop id="eUCFqrVDPYh92-fill-0" offset="0%" stop-color="#197b9f"/><stop id="eUCFqrVDPYh92-fill-1" offset="100%" stop-color="#2ed5cf"/></linearGradient><linearGradient id="eUCFqrVDPYh93-stroke" x1="335.5" x2="337" y1="42.1" y2="83.4" gradientUnits="userSpaceOnUse" spreadMethod="pad"><stop id="eUCFqrVDPYh93-stroke-0" offset="0%" stop-color="rgba(66,232,215,0)"/><stop id="eUCFqrVDPYh93-stroke-1" offset="13%" stop-color="rgba(66,232,215,0.02)"/><stop id="eUCFqrVDPYh93-stroke-2" offset="26%" stop-color="rgba(66,232,215,0.07)"/><stop id="eUCFqrVDPYh93-stroke-3" offset="39%" stop-color="rgba(66,232,215,0.16)"/><stop id="eUCFqrVDPYh93-stroke-4" offset="53%" stop-color="rgba(66,232,215,0.29)"/><stop id="eUCFqrVDPYh93-stroke-5" offset="66%" stop-color="rgba(66,232,215,0.45)"/><stop id="eUCFqrVDPYh93-stroke-6" offset="80%" stop-color="rgba(66,232,215,0.65)"/><stop id="eUCFqrVDPYh93-stroke-7" offset="93%" stop-color="rgba(66,232,215,0.88)"/><stop id="eUCFqrVDPYh93-stroke-8" offset="100%" stop-color="#42e8d7"/></linearGradient><linearGradient id="eUCFqrVDPYh94-stroke" x1="336.6" x2="336.6" y1="63" y2="51.7" gradientUnits="userSpaceOnUse" spreadMethod="pad"><stop id="eUCFqrVDPYh94-stroke-0" offset="0%" stop-color="#42e8d7"/><stop id="eUCFqrVDPYh94-stroke-1" offset="10%" stop-color="rgba(66,232,215,0.94)"/><stop id="eUCFqrVDPYh94-stroke-2" offset="28%" stop-color="rgba(66,232,215,0.79)"/><stop id="eUCFqrVDPYh94-stroke-3" offset="53%" stop-color="rgba(66,232,215,0.54)"/><stop id="eUCFqrVDPYh94-stroke-4" offset="83%" stop-color="rgba(66,232,215,0.2)"/><stop id="eUCFqrVDPYh94-stroke-5" offset="100%" stop-color="rgba(66,232,215,0)"/></linearGradient><linearGradient id="eUCFqrVDPYh95-stroke" x1="335.6" x2="336.9" y1="57" y2="82.8" gradientUnits="userSpaceOnUse" spreadMethod="pad"><stop id="eUCFqrVDPYh95-stroke-0" offset="0%" stop-color="rgba(66,232,215,0)"/><stop id="eUCFqrVDPYh95-stroke-1" offset="13%" stop-color="rgba(66,232,215,0.02)"/><stop id="eUCFqrVDPYh95-stroke-2" offset="26%" stop-color="rgba(66,232,215,0.07)"/><stop id="eUCFqrVDPYh95-stroke-3" offset="39%" stop-color="rgba(66,232,215,0.16)"/><stop id="eUCFqrVDPYh95-stroke-4" offset="53%" stop-color="rgba(66,232,215,0.29)"/><stop id="eUCFqrVDPYh95-stroke-5" offset="66%" stop-color="rgba(66,232,215,0.45)"/><stop id="eUCFqrVDPYh95-stroke-6" offset="80%" stop-color="rgba(66,232,215,0.65)"/><stop id="eUCFqrVDPYh95-stroke-7" offset="93%" stop-color="rgba(66,232,215,0.88)"/><stop id="eUCFqrVDPYh95-stroke-8" offset="100%" stop-color="#42e8d7"/></linearGradient><radialGradient id="eUCFqrVDPYh6-fill" cx="0" cy="0" r="236.6" gradientTransform="matrix(-1 0 0 1 305.8 483.8)" gradientUnits="userSpaceOnUse" spreadMethod="pad"><stop id="eUCFqrVDPYh6-fill-0" offset="0%" stop-color="rgba(46,213,207,0.2)"/><stop id="eUCFqrVDPYh6-fill-1" offset="100%" stop-color="rgba(46,213,207,0)"/></radialGradient><radialGradient id="eUCFqrVDPYh8-fill" cx="0" cy="0" r="251.2" gradientTransform="matrix(-1 0 0 1 314.5 440.4)" gradientUnits="userSpaceOnUse" spreadMethod="pad"><stop id="eUCFqrVDPYh8-fill-0" offset="0%" stop-color="rgba(46,213,207,0.2)"/><stop id="eUCFqrVDPYh8-fill-1" offset="100%" stop-color="rgba(46,213,207,0)"/></radialGradient><radialGradient id="eUCFqrVDPYh14-fill" cx="0" cy="0" r="182.3" gradientTransform="matrix(-1 0 0 1 298.2 212.9)" gradientUnits="userSpaceOnUse" spreadMethod="pad"><stop id="eUCFqrVDPYh14-fill-0" offset="0%" stop-color="#006087"/><stop id="eUCFqrVDPYh14-fill-1" offset="100%" stop-color="#002342"/></radialGradient></defs><g style="isolation:isolate"><g><path fill="url(#eUCFqrVDPYh6-fill)" d="M522.7 372.5c3.4-1.9 6.5-4.2 9.4-6.8 17.6-16.6 15.1-38-2.6-48.2l-172.6-99.8c-35.7-23.3-80.7-20.6-116.7.4l-170.9 100c-5 2.9-9.3 6.7-12.9 11.1-12.5 16.2-9 34 8 43.7l171.2 98.7c33.4 22.6 78.5 20.4 114.5 1Z"/></g><g><path fill="url(#eUCFqrVDPYh8-fill)" d="M525.4 328.6c3.4-2 6.5-4.2 9.4-6.9 17.6-16.6 15.1-38-2.7-48.2l-172.5-99.7c-35.8-23.4-80.7-20.7-116.8.4L72 274.2a45 45 0 0 0-12.9 11c-12.6 16.2-9 34 7.9 43.7l171.3 98.7c33.4 22.6 78.5 20.4 114.4 1Z"/></g><g><path fill="url(#eUCFqrVDPYh10-fill)" d="M524.5 280.4c3.3-2 6.5-4.4 9.4-7 14.9-12.4 12.4-26.8 12.5-43.6.1-19.7 1.3-28.4-4.8-35l-182.9-69.3C323 102.3 278 105 242 126L53.4 208.3c-4.9 2.9-3 22.5-3 27.9 0 24.6-1.2 34.8 15.7 44.5l171.3 98.7c33.4 22.6 78.5 20.4 114.5 1Z"/><path fill="none" stroke="url(#eUCFqrVDPYh11-stroke)" stroke-miterlimit="10" stroke-opacity=".3" stroke-width="2" d="M524.5 280.4c3.3-2 6.5-4.4 9.4-7 14.9-12.4 12.4-26.8 12.5-43.6.1-19.7 1.3-28.4-4.8-35l-182.9-69.3C323 102.3 278 105 242 126L53.4 208.3c-4.9 2.9-3 22.5-3 27.9 0 24.6-1.2 34.8 15.7 44.5l171.3 98.7c33.4 22.6 78.5 20.4 114.5 1Z"/><path fill="url(#eUCFqrVDPYh12-fill)" d="M524.5 240.5c3.4-2 6.5-4.2 9.4-6.9 17.6-16.6 15.1-38-2.6-48.2L358.6 85.7C323 62.3 278 65 242 86L71.1 186a45 45 0 0 0-12.8 11.1c-12.6 16.1-9 34 7.8 43.6l171.3 98.7c33.4 22.6 78.5 20.4 114.5 1Z"/><path fill="none" stroke="url(#eUCFqrVDPYh13-stroke)" stroke-miterlimit="10" stroke-width="2" d="M524.5 240.5c3.4-2 6.5-4.2 9.4-6.9 17.6-16.6 15.1-38-2.6-48.2L358.6 85.7C323 62.3 278 65 242 86L71.1 186a45 45 0 0 0-12.8 11.1c-12.6 16.1-9 34 7.8 43.6l171.3 98.7c33.4 22.6 78.5 20.4 114.5 1Z"/><path fill="url(#eUCFqrVDPYh14-fill)" d="m508.4 188.4-153-89.7a107.6 107.6 0 0 0-109 0L88.4 191.7a27.5 27.5 0 0 0 .2 47.4l153 88.6c33 19 73.8 19 106.7-.2l160-93.4a26.4 26.4 0 0 0 0-45.6Z"/><g opacity=".2"><path fill="url(#eUCFqrVDPYh16-fill)" d="M412.9 245.4a37 37 0 0 0 4.9-3.6c7.8-6.6 6.5-14.2 6.6-23 0-10.4.7-15-2.5-18.5L325.6 164a58.3 58.3 0 0 0-61.4.2L165 207.4c-2.6 1.6-1.6 12-1.6 14.7 0 13-.6 18.4 8.3 23.4l90 52c17.7 11.9 41.4 10.7 60.3.5Z"/><path fill="none" stroke="url(#eUCFqrVDPYh17-stroke)" stroke-miterlimit="10" stroke-opacity=".3" stroke-width="2" d="M412.9 245.4a37 37 0 0 0 4.9-3.6c7.8-6.6 6.5-14.2 6.6-23 0-10.4.7-15-2.5-18.5L325.6 164a58.3 58.3 0 0 0-61.4.2L165 207.4c-2.6 1.6-1.6 12-1.6 14.7 0 13-.6 18.4 8.3 23.4l90 52c17.7 11.9 41.4 10.7 60.3.5Z"/><path fill="url(#eUCFqrVDPYh18-fill)" d="M412.9 224.4c1.7-1 3.4-2.2 4.9-3.6 9.3-8.7 8-20-1.4-25.4L325.6 143a58.3 58.3 0 0 0-61.4.2l-90 52.7c-2.5 1.5-4.8 3.4-6.7 5.8-6.6 8.5-4.7 17.9 4.1 23l90.2 51.9c17.5 11.9 41.3 10.7 60.2.5Z"/><path fill="none" stroke="url(#eUCFqrVDPYh19-stroke)" stroke-miterlimit="10" stroke-width="2" d="M412.9 224.4c1.7-1 3.4-2.2 4.9-3.6 9.3-8.7 8-20-1.4-25.4L325.6 143a58.3 58.3 0 0 0-61.4.2l-90 52.7c-2.5 1.5-4.8 3.4-6.7 5.8-6.6 8.5-4.7 17.9 4.1 23l90.2 51.9c17.5 11.9 41.3 10.7 60.2.5Z"/></g><g opacity=".5"><path fill="url(#eUCFqrVDPYh21-fill)" d="M393 214.7a31 31 0 0 0 4.2-3c6.6-5.6 5.5-12 5.5-19.5 0-8.8.6-12.6-2-15.6l-81.5-30.8c-16-10.4-36-9.2-52 .2l-84 36.6c-2.2 1.3-1.4 10-1.4 12.5 0 11-.5 15.5 7 19.8l76.3 44c14.8 10 35 9 51 .4Z"/><path fill="none" stroke="url(#eUCFqrVDPYh22-stroke)" stroke-miterlimit="10" stroke-opacity=".3" stroke-width="2" d="M393 214.7a31 31 0 0 0 4.2-3c6.6-5.6 5.5-12 5.5-19.5 0-8.8.6-12.6-2-15.6l-81.5-30.8c-16-10.4-36-9.2-52 .2l-84 36.6c-2.2 1.3-1.4 10-1.4 12.5 0 11-.5 15.5 7 19.8l76.3 44c14.8 10 35 9 51 .4Z"/><path fill="url(#eUCFqrVDPYh23-fill)" d="M393 197c1.5-.9 2.9-1.9 4.2-3 7.8-7.5 6.7-17-1.2-21.5L319 128c-16-10.4-36-9.2-52 .2L191 172.7c-2.2 1.3-4.2 3-5.7 5-5.6 7.2-4 15.2 3.5 19.5l76.3 44c14.8 10 35 9 51 .4Z"/><path fill="none" stroke="url(#eUCFqrVDPYh24-stroke)" stroke-miterlimit="10" stroke-width="2" d="M393 197c1.5-.9 2.9-1.9 4.2-3 7.8-7.5 6.7-17-1.2-21.5L319 128c-16-10.4-36-9.2-52 .2L191 172.7c-2.2 1.3-4.2 3-5.7 5-5.6 7.2-4 15.2 3.5 19.5l76.3 44c14.8 10 35 9 51 .4Z"/></g><path fill="url(#eUCFqrVDPYh25-fill)" d="M293.6 167.4h-.1l-.8-11.5 9.8-3.4 1.6.4a59.2 59.2 0 0 1 53.2-.3h8.8V164c.6 6-3.6 12.1-12.4 16.5-15 7.6-38 7.3-51.2-.7-5.8-3.5-8.8-7.9-9-12.5Z" opacity=".5"/><path fill="url(#eUCFqrVDPYh26-fill)" d="m208.7 171.3 35.2-4.5 1.9 1a63 63 0 0 1 33 7.4l30.2 18.2a31 31 0 0 1 4.6 3.4l7 2.2-.8 10c0 6.8-5.1 13.5-15 18.5-8.8 4.4-22 4.2-29.7-.4l-60.3-36.5c-3.9-2.3-5.6-5.4-5.1-8.4h-.1Z" opacity=".5"/><path fill="url(#eUCFqrVDPYh27-fill)" d="M302.5 167.7c-13.2-8-11.6-20.6 3.5-28.2s38-7.2 51.3.7 11.5 20.6-3.5 28.2-38.1 7.2-51.3-.7Zm-85.8-5.6c-8.7 4.4-9.6 11.7-2 16.3l60.4 36.4c7.6 4.6 20.9 4.8 29.6.4 18.3-9.1 20.2-24.4 4.3-34l-30.2-18.3c-16-9.6-43.8-10-62-.8Z"/><path fill="none" stroke="url(#eUCFqrVDPYh28-stroke)" stroke-linecap="round" stroke-linejoin="round" stroke-width="2" d="M302.5 167.7c-13.2-8-11.6-20.6 3.5-28.2s38-7.2 51.3.7 11.5 20.6-3.5 28.2-38.1 7.2-51.3-.7Zm-85.8-5.6c-8.7 4.4-9.6 11.7-2 16.3l60.4 36.4c7.6 4.6 20.9 4.8 29.6.4 18.3-9.1 20.2-24.4 4.3-34l-30.2-18.3c-16-9.6-43.8-10-62-.8Z"/></g><g><ellipse fill="#00fff8" rx="5.8" ry="3.3" style="animation:eUCFqrVDPYh30_c_o 3500ms linear infinite normal forwards" transform="rotate(-66.6 461.3 -249.9)"/><ellipse fill="#00fff8" opacity=".3" rx="5.8" ry="3.3" transform="rotate(-66.6 460.3 -235.2)"/><ellipse fill="#00fff8" rx="5.8" ry="3.3" style="animation:eUCFqrVDPYh32_c_o 3500ms linear infinite normal forwards" transform="rotate(-66.6 459.1 -220.3)"/><ellipse fill="#00fff8" opacity=".3" rx="5.8" ry="3.3" transform="rotate(-66.6 458.5 -205)"/><ellipse fill="#00fff8" opacity=".3" rx="5.8" ry="3.3" transform="rotate(-66.6 457.4 -190)"/><ellipse fill="#00fff8" rx="5.8" ry="3.3" style="animation:eUCFqrVDPYh35_c_o 3500ms linear infinite normal forwards" transform="rotate(-66.6 456.5 -174.5)"/><ellipse fill="#00fff8" opacity=".3" rx="5.8" ry="3.3" transform="rotate(-66.6 455.6 -159.8)"/><ellipse fill="#00fff8" rx="5.8" ry="3.3" style="animation:eUCFqrVDPYh37_c_o 3500ms linear infinite normal forwards" transform="rotate(-66.6 454.5 -144.6)"/><ellipse fill="#00fff8" opacity=".3" rx="5.8" ry="3.3" transform="rotate(-66.6 453.8 -129.6)"/><ellipse fill="#00fff8" rx="5.8" ry="3.3" style="animation:eUCFqrVDPYh39_c_o 3500ms linear infinite normal forwards" transform="rotate(-66.6 453 -114.6)"/><ellipse fill="#00fff8" rx="5.8" ry="3.3" style="animation:eUCFqrVDPYh40_c_o 3500ms linear infinite normal forwards" transform="rotate(-66.6 451.7 -99.6)"/><ellipse fill="#00fff8" rx="3.3" ry="5.8" style="animation:eUCFqrVDPYh41_c_o 3500ms linear infinite normal forwards" transform="rotate(-23.4 700.2 -69.9)"/><ellipse fill="#00fff8" rx="3.3" ry="5.8" style="animation:eUCFqrVDPYh42_c_o 3500ms linear infinite normal forwards" transform="rotate(-23.4 726.3 -99.9)"/><ellipse fill="#00fff8" opacity=".3" rx="3.3" ry="5.8" transform="rotate(-23.4 752.6 -130.6)"/><ellipse fill="#00fff8" rx="3.3" ry="5.8" style="animation:eUCFqrVDPYh44_c_o 3500ms linear infinite normal forwards" transform="rotate(-23.4 780.8 -161)"/><ellipse fill="#00fff8" rx="3.3" ry="5.8" style="animation:eUCFqrVDPYh45_c_o 3500ms linear infinite normal forwards" transform="rotate(-23.4 807 -191.8)"/><ellipse fill="#00fff8" opacity=".3" rx="3.3" ry="5.8" transform="rotate(-23.4 835.2 -223.1)"/><ellipse fill="#00fff8" rx="3.3" ry="5.8" style="animation:eUCFqrVDPYh47_c_o 3500ms linear infinite normal forwards" transform="rotate(-23.4 861.5 -253)"/><ellipse fill="#00fff8" opacity=".3" rx="3.3" ry="5.8" transform="rotate(-23.4 888.5 -284.3)"/><ellipse fill="#00fff8" rx="3.3" ry="5.8" style="animation:eUCFqrVDPYh49_c_o 3500ms linear infinite normal forwards" transform="rotate(-23.4 915.7 -314.3)"/><ellipse fill="#00fff8" opacity=".3" rx="3.3" ry="5.8" transform="rotate(-23.4 943 -344.6)"/><ellipse fill="#00fff8" opacity=".3" rx="3.3" ry="5.8" transform="rotate(-23.4 969.4 -375.7)"/></g><g style="animation:eUCFqrVDPYh52_ts__ts 3500ms linear infinite normal forwards" transform="translate(470.4 198.5)"><g transform="translate(-470.4 -198.5)"><path fill="url(#eUCFqrVDPYh53-fill)" fill-opacity=".2" d="m442.6 160.6.2 61.2 27.7 15 27.8-15.4.2-61.2-28.2 16-27.7-15.6z"/><path fill="none" stroke="url(#eUCFqrVDPYh54-stroke)" stroke-miterlimit="10" d="m470 236.1-27.7-15.2 27.7-15.1 27.6 15.1-27.6 15.2z" opacity=".4"/></g></g><g style="animation:eUCFqrVDPYh55_to__to 3500ms linear infinite normal forwards" transform="translate(470.4 136.4)"><g transform="translate(-470.4 -145.4)"><path fill="#42e8e0" d="m470 145.4-27.7-15.2v30.4l27.7 15.2 27.6-15.2v-30.4L470 145.4z"/><path fill="url(#eUCFqrVDPYh57-fill)" d="m470 175.8-27.7-15.2v-30.4l27.7 15.2v30.4z"/><path fill="url(#eUCFqrVDPYh58-fill)" d="M497.6 160.6 470 175.8v-30.4l27.6-15.2v30.4z"/><path fill="url(#eUCFqrVDPYh59-fill)" d="m470 145.4-27.7-15.2L470 115l27.6 15.2-27.6 15.2z"/><path fill="none" stroke="url(#eUCFqrVDPYh60-stroke)" stroke-miterlimit="10" d="M442.3 130.2v30.3l27.7 15.3 27.6-15.2v-30.4L470 115l-27.7 15.2z"/><path fill="none" stroke="url(#eUCFqrVDPYh61-stroke)" stroke-linecap="round" stroke-linejoin="round" d="m442.6 129.8 27.5 15.2 28.3-15.6"/><path fill="none" stroke="url(#eUCFqrVDPYh62-stroke)" stroke-miterlimit="10" d="M470 175.7v-39"/></g></g><g style="animation:eUCFqrVDPYh63_ts__ts 3500ms linear infinite normal forwards" transform="translate(300.2 303.7)"><g transform="translate(-300 -303.7)"><path fill="url(#eUCFqrVDPYh64-fill)" fill-opacity=".2" d="m277.1 272.5.1 50.3 22.8 12.3 22.8-12.6.2-50.3-23.2 13.2-22.7-12.9z"/><path fill="none" stroke="url(#eUCFqrVDPYh65-stroke)" stroke-miterlimit="10" d="m299.6 334.6-22.8-12.5 22.8-12.5 22.7 12.5-22.7 12.5z" opacity=".4"/></g></g><g style="animation:eUCFqrVDPYh66_to__to 3500ms linear infinite normal forwards" transform="translate(299.9 265)"><g transform="translate(-299.9 -260)"><path fill="#42e8e0" d="m299.6 260-22.8-12.5v25l22.8 12.5 22.7-12.5v-25L299.6 260z"/><path fill="url(#eUCFqrVDPYh68-fill)" d="m299.6 285-22.8-12.5v-25l22.8 12.5v25z"/><path fill="url(#eUCFqrVDPYh69-fill)" d="M322.3 272.5 299.6 285v-25l22.7-12.5v25z"/><path fill="url(#eUCFqrVDPYh70-fill)" d="m299.6 260-22.8-12.5 22.8-12.4 22.7 12.4-22.7 12.5z"/><path fill="none" stroke="url(#eUCFqrVDPYh71-stroke)" stroke-miterlimit="10" d="M276.8 247.5v24.9l22.8 12.6 22.7-12.5v-25l-22.7-12.4-22.8 12.4z"/><path fill="none" stroke="url(#eUCFqrVDPYh72-stroke)" stroke-linecap="round" stroke-linejoin="round" d="m277.1 247.2 22.6 12.5 23.2-12.8"/><path fill="none" stroke="url(#eUCFqrVDPYh73-stroke)" stroke-miterlimit="10" d="M299.6 284.9v-32"/></g></g><g style="animation:eUCFqrVDPYh74_ts__ts 3500ms linear infinite normal forwards" transform="translate(123.4 197.5)"><g transform="translate(-123.4 -197.5)"><path fill="none" stroke="url(#eUCFqrVDPYh75-stroke)" stroke-miterlimit="10" d="m123 231.3-24.8-13.6L123 204l24.8 13.7-24.8 13.6z" opacity=".4"/><path fill="url(#eUCFqrVDPYh76-fill)" fill-opacity=".2" d="m98.4 163.5.2 55 24.9 13.4 24.9-13.8.2-55-25.3 14.4-24.9-14z"/></g></g><g style="animation:eUCFqrVDPYh77_to__to 3500ms linear infinite normal forwards" transform="translate(123.4 149.8)"><g transform="translate(-123.4 -149.8)"><path fill="#42e8e0" d="m123 149.8-24.8-13.7v27.3l24.8 13.7 24.8-13.7v-27.3L123 149.8z"/><path fill="url(#eUCFqrVDPYh79-fill)" d="m123 177.1-24.8-13.7v-27.3l24.8 13.7v27.3z"/><path fill="url(#eUCFqrVDPYh80-fill)" d="M147.8 163.4 123 177.1v-27.3l24.8-13.7v27.3z"/><path fill="url(#eUCFqrVDPYh81-fill)" d="m123 149.8-24.8-13.7 24.8-13.6 24.8 13.6-24.8 13.7z"/><path fill="none" stroke="url(#eUCFqrVDPYh82-stroke)" stroke-miterlimit="10" d="M98.2 136.1v27.2l24.8 13.8 24.8-13.7v-27.3L123 122.5l-24.8 13.6z"/><path fill="none" stroke="url(#eUCFqrVDPYh83-stroke)" stroke-linecap="round" stroke-linejoin="round" d="m98.5 135.8 24.6 13.6 25.5-13.9"/><path fill="none" stroke="url(#eUCFqrVDPYh84-stroke)" stroke-miterlimit="10" d="M123 177v-35"/></g></g><g style="animation:eUCFqrVDPYh85_ts__ts 3500ms linear infinite normal forwards" transform="translate(336.5 98)"><g transform="translate(-336.5 -98)"><path fill="url(#eUCFqrVDPYh86-fill)" fill-opacity=".2" d="m318.1 72.8.1 40.6 18.4 9.9 18.4-10.2.1-40.6-18.6 10.7-18.4-10.4z"/><path fill="none" stroke="url(#eUCFqrVDPYh87-stroke)" stroke-miterlimit="10" d="m336.2 122.9-18.3-10.1 18.3-10 18.4 10-18.4 10.1z" opacity=".4"/></g></g><g style="animation:eUCFqrVDPYh88_to__to 3500ms linear infinite normal forwards" transform="translate(336.5 55.8)"><g transform="translate(-336.5 -62.8)"><path fill="#42e8e0" d="m336.2 62.8-18.3-10.1v20.1l18.3 10.1 18.4-10.1V52.7l-18.4 10.1z"/><path fill="url(#eUCFqrVDPYh90-fill)" d="m336.2 82.9-18.3-10.1V52.7l18.3 10.1v20.1z"/><path fill="url(#eUCFqrVDPYh91-fill)" d="m354.6 72.8-18.4 10.1V62.8l18.4-10.1v20.1z"/><path fill="url(#eUCFqrVDPYh92-fill)" d="m336.2 62.8-18.3-10.1 18.3-10.1 18.4 10.1-18.4 10.1z"/><path fill="none" stroke="url(#eUCFqrVDPYh93-stroke)" stroke-miterlimit="10" d="M317.9 52.7v20.1l18.3 10.1 18.4-10.1V52.7l-18.4-10.1-18.3 10.1z"/><path fill="none" stroke="url(#eUCFqrVDPYh94-stroke)" stroke-linecap="round" stroke-linejoin="round" d="m318.1 52.4 18.2 10.1 18.8-10.3"/><path fill="none" stroke="url(#eUCFqrVDPYh95-stroke)" stroke-miterlimit="10" d="M336.3 82.8V57"/></g></g></g><g><g style="animation:eUCFqrVDPYh97_to__to 3500ms linear infinite normal forwards" transform="translate(264.2 83.6)"><g style="animation:eUCFqrVDPYh97_ts__ts 3500ms linear infinite normal forwards"><path fill="none" stroke="#00fff8" stroke-linecap="round" stroke-linejoin="round" stroke-width="3" d="M264.2 126.4v47.8" opacity="0" style="animation:eUCFqrVDPYh97_c_o 3500ms linear infinite normal forwards" transform="translate(-264.2 -174.2)"/></g></g></g><g transform="translate(-5.4 26.2)"><g style="animation:eUCFqrVDPYh99_to__to 3500ms linear infinite normal forwards" transform="translate(264.2 83.6)"><g style="animation:eUCFqrVDPYh99_ts__ts 3500ms linear infinite normal forwards"><path fill="none" stroke="#00fff8" stroke-linecap="round" stroke-linejoin="round" stroke-width="3" d="M264.2 126.4v47.8" opacity="0" style="animation:eUCFqrVDPYh99_c_o 3500ms linear infinite normal forwards" transform="translate(-264.2 -174.2)"/></g></g></g><g transform="translate(33.5 24.9)"><g style="animation:eUCFqrVDPYh101_to__to 3500ms linear infinite normal forwards" transform="translate(264.2 83.6)"><g style="animation:eUCFqrVDPYh101_ts__ts 3500ms linear infinite normal forwards"><path fill="none" stroke="#00fff8" stroke-linecap="round" stroke-linejoin="round" stroke-width="3" d="M264.2 126.4v47.8" opacity="0" style="animation:eUCFqrVDPYh101_c_o 3500ms linear infinite normal forwards" transform="translate(-264.2 -174.2)"/></g></g></g><g transform="translate(72 -15)"><g style="animation:eUCFqrVDPYh103_to__to 3500ms linear infinite normal forwards" transform="translate(264.2 83.6)"><g style="animation:eUCFqrVDPYh103_ts__ts 3500ms linear infinite normal forwards"><path fill="none" stroke="#00fff8" stroke-linecap="round" stroke-linejoin="round" stroke-width="3" d="M264.2 126.4v47.8" opacity="0" style="animation:eUCFqrVDPYh103_c_o 3500ms linear infinite normal forwards" transform="translate(-264.2 -174.2)"/></g></g></g><g transform="translate(52 -22)"><g style="animation:eUCFqrVDPYh105_to__to 3500ms linear infinite normal forwards" transform="translate(264.2 83.6)"><g style="animation:eUCFqrVDPYh105_ts__ts 3500ms linear infinite normal forwards"><path fill="none" stroke="#00fff8" stroke-linecap="round" stroke-linejoin="round" stroke-width="3" d="M264.2 126.4v47.8" opacity="0" style="animation:eUCFqrVDPYh105_c_o 3500ms linear infinite normal forwards" transform="translate(-264.2 -174.2)"/></g></g></g><g transform="translate(-30 6)"><g style="animation:eUCFqrVDPYh107_to__to 3500ms linear infinite normal forwards" transform="translate(264.2 83.6)"><g style="animation:eUCFqrVDPYh107_ts__ts 3500ms linear infinite normal forwards"><path fill="none" stroke="#00fff8" stroke-linecap="round" stroke-linejoin="round" stroke-width="3" d="M264.2 126.4v47.8" opacity="0" style="animation:eUCFqrVDPYh107_c_o 3500ms linear infinite normal forwards" transform="translate(-264.2 -174.2)"/></g></g></g></svg>