<svg xmlns="http://www.w3.org/2000/svg" xmlns:xlink="http://www.w3.org/1999/xlink" width="43.652" height="43.708" viewBox="0 0 43.652 43.708">
  <defs>
    <linearGradient id="linear-gradient" x1="0.5" y1="0.906" x2="0.5" y2="-0.113" gradientUnits="objectBoundingBox">
      <stop offset="0" stop-color="#fff" stop-opacity="0.302"/>
      <stop offset="0.124" stop-color="#fff" stop-opacity="0.302"/>
      <stop offset="1" stop-color="#fff" stop-opacity="0"/>
    </linearGradient>
  </defs>
  <g id="v-server-hover" transform="translate(1 1)">
    <g id="control">
      <ellipse id="Oval" cx="20.826" cy="7.903" rx="20.826" ry="7.903" transform="translate(0 23.1)" fill="#16c3d9" opacity="0.6"/>
      <ellipse id="Oval-2" data-name="Oval" cx="20.826" cy="7.903" rx="20.826" ry="7.903" transform="translate(0 23.1)" fill="none" stroke="#9cffff" stroke-width="2"/>
      <ellipse id="Oval-3" data-name="Oval" cx="20.826" cy="7.903" rx="20.826" ry="7.903" transform="translate(0 12.203)" fill="#16c3d9" opacity="0.7"/>
      <ellipse id="Oval-4" data-name="Oval" cx="20.826" cy="7.903" rx="20.826" ry="7.903" transform="translate(0 12.203)" fill="none" stroke="#9cffff" stroke-width="2"/>
      <ellipse id="Oval-5" data-name="Oval" cx="20.826" cy="7.903" rx="20.826" ry="7.903" transform="translate(0 1.52)" fill="#16c3d9" opacity="0.7"/>
      <ellipse id="Oval-6" data-name="Oval" cx="20.826" cy="7.903" rx="20.826" ry="7.903" transform="translate(0 1.52)" fill="none" stroke="#9cffff" stroke-width="2"/>
      <path id="Path" d="M41.7,4.21H10V40.3a56.726,56.726,0,0,0,15.76,2.893A56.726,56.726,0,0,0,41.521,40.3V4.21Z" transform="translate(-4.529 -4.075)" fill="url(#linear-gradient)"/>
      <circle id="Oval-7" data-name="Oval" cx="2.24" cy="2.24" r="2.24" transform="translate(10.165 14.612)" fill="#16c3d9" stroke="#fff" stroke-width="2"/>
      <circle id="Oval-8" data-name="Oval" cx="2.668" cy="2.668" r="2.668" transform="translate(17.528 36.373)" fill="#16c3d9" stroke="#fff" stroke-width="2"/>
      <circle id="Oval-9" data-name="Oval" cx="3.208" cy="3.208" r="3.208" transform="translate(30.755 23.201)" fill="#16c3d9" stroke="#fff" stroke-width="2"/>
      <circle id="Oval-10" data-name="Oval" cx="2.24" cy="2.24" r="2.24" transform="translate(27.693)" fill="#16c3d9" stroke="#fff" stroke-width="2"/>
    </g>
  </g>
</svg>
