<svg xmlns="http://www.w3.org/2000/svg" width="28.379" height="28.415" viewBox="0 0 28.379 28.415">
  <g id="Group_375" data-name="Group 375" transform="translate(-23.25 50.75)">
    <g id="control" transform="translate(24 -50)">
      <ellipse id="Oval" cx="13.439" cy="5.1" rx="13.439" ry="5.1" transform="translate(0 14.907)" fill="#0a4461" stroke="#fff" stroke-width="1.5"/>
      <path id="Oval-2" data-name="Oval" d="M13.439,0c7.422,0,13.439,2.283,13.439,5.1s-6.017,5.1-13.439,5.1S0,7.916,0,5.1,6.017,0,13.439,0Z" transform="translate(0 7.875)" fill="#0a4461" stroke="#fff" stroke-width="1.5" opacity="0.61"/>
      <path id="Oval-3" data-name="Oval" d="M13.439,0c7.422,0,13.439,2.283,13.439,5.1s-6.017,5.1-13.439,5.1S0,7.916,0,5.1,6.017,0,13.439,0Z" transform="translate(0 0.981)" fill="#0a4461" stroke="#fff" stroke-width="1.5" opacity="0.29"/>
      <circle id="Oval-4" data-name="Oval" cx="1.446" cy="1.446" r="1.446" transform="translate(6.56 9.429)" fill="#0a4461" stroke="#fff" stroke-width="1.5"/>
      <circle id="Oval-5" data-name="Oval" cx="1.722" cy="1.722" r="1.722" transform="translate(11.311 23.472)" fill="#0a4461" stroke="#fff" stroke-width="1.5"/>
      <circle id="Oval-6" data-name="Oval" cx="2.07" cy="2.07" r="2.07" transform="translate(19.847 14.972)" fill="#0a4461" stroke="#fff" stroke-width="1.5"/>
      <circle id="Oval-7" data-name="Oval" cx="1.446" cy="1.446" r="1.446" transform="translate(17.871)" fill="#0a4461" stroke="#fff" stroke-width="1.5"/>
    </g>
  </g>
</svg>
