<svg xmlns="http://www.w3.org/2000/svg" width="24.49" height="24.49" viewBox="0 0 24.49 24.49">
  <g id="Group_372" data-name="Group 372" transform="translate(-487.09 -1319.073)">
    <g id="adsadadadd" transform="translate(487.09 1319.073)">
      <g id="Group_320" data-name="Group 320" transform="translate(0)">
        <g id="Group_319" data-name="Group 319">
          <g id="Group_318" data-name="Group 318">
            <path id="Path_1339" data-name="Path 1339" d="M43.176,362.667a.51.51,0,1,0,.51.51A.51.51,0,0,0,43.176,362.667Z" transform="translate(-40.625 -345.32)" fill="#00d3d3"/>
            <path id="Path_1340" data-name="Path 1340" d="M43.176,448a.51.51,0,1,0,.51.51A.51.51,0,0,0,43.176,448Z" transform="translate(-40.625 -426.571)" fill="#00d3d3"/>
            <path id="Path_1341" data-name="Path 1341" d="M85.844,115.847a.511.511,0,0,0,.51-.514v-5.1a1.533,1.533,0,0,1,1.531-1.531h3.87l-.149.149a.51.51,0,0,0,.721.721l1.017-1.017.031-.033a.508.508,0,0,0,.117-.269.533.533,0,0,0,0-.09.512.512,0,0,0-.146-.328h0l-1.02-1.02a.511.511,0,0,0-.721.722l.149.149h-3.87a2.555,2.555,0,0,0-2.551,2.551v5.1A.51.51,0,0,0,85.844,115.847Z" transform="translate(-81.252 -101.561)" fill="#00d3d3"/>
            <path id="Path_1342" data-name="Path 1342" d="M239.259,448h-4.082a.51.51,0,0,0,0,1.02h4.082a.51.51,0,1,0,0-1.02Z" transform="translate(-223.442 -426.571)" fill="#00d3d3"/>
            <path id="Path_1343" data-name="Path 1343" d="M408.925,256.085a.51.51,0,0,0-.51.51v6.123a.51.51,0,0,1-.51.51H407.1l.149-.149a.51.51,0,0,0-.721-.721l-1.017,1.017-.031.033a.508.508,0,0,0-.117.269.535.535,0,0,0,0,.09.513.513,0,0,0,.146.328h0l1.02,1.02a.512.512,0,0,0,.361.149.5.5,0,0,0,.36-.145.512.512,0,0,0,0-.722l-.149-.149h.809a1.533,1.533,0,0,0,1.531-1.531V256.6A.51.51,0,0,0,408.925,256.085Z" transform="translate(-385.965 -243.836)" fill="#00d3d3"/>
            <path id="Path_1344" data-name="Path 1344" d="M288.558,5.612a5.612,5.612,0,1,0-5.612,5.612A5.618,5.618,0,0,0,288.558,5.612Zm-1.02,0c0,.41-.783.937-2.106,1.254a12.08,12.08,0,0,0,0-2.508C286.755,4.676,287.537,5.2,287.537,5.612Zm-.335-1.7a7.491,7.491,0,0,0-1.93-.629,7.49,7.49,0,0,0-.629-1.93A4.6,4.6,0,0,1,287.2,3.913ZM282.945,1.02c.41,0,.937.783,1.254,2.106a12.078,12.078,0,0,0-2.508,0C282.009,1.8,282.535,1.02,282.945,1.02Zm-4.592,4.592c0-.41.783-.937,2.106-1.254a12.074,12.074,0,0,0,0,2.508C279.136,6.549,278.353,6.023,278.353,5.612Zm.335,1.7a7.491,7.491,0,0,0,1.93.629,7.529,7.529,0,0,0,.629,1.93A4.6,4.6,0,0,1,278.688,7.311Zm1.93-4.027a7.492,7.492,0,0,0-1.93.629,4.6,4.6,0,0,1,2.558-2.558A7.529,7.529,0,0,0,280.618,3.285Zm2.328,6.92c-.41,0-.937-.783-1.254-2.106a12.538,12.538,0,0,0,1.254.065A12.553,12.553,0,0,0,284.2,8.1C283.882,9.422,283.356,10.2,282.945,10.2Zm1.437-3.155a11.528,11.528,0,0,1-1.437.094,11.53,11.53,0,0,1-1.437-.094,11.527,11.527,0,0,1-.094-1.437,11.527,11.527,0,0,1,.094-1.437,11.039,11.039,0,0,1,2.874,0,11.521,11.521,0,0,1,.094,1.437A11.522,11.522,0,0,1,284.382,7.049Zm.262,2.82a7.489,7.489,0,0,0,.629-1.93,7.531,7.531,0,0,0,1.93-.629A4.6,4.6,0,0,1,284.644,9.87Z" transform="translate(-264.067)" fill="#00d3d3"/>
            <path id="Path_1345" data-name="Path 1345" d="M16.837,320H1.531A1.533,1.533,0,0,0,0,321.531v2.041a1.507,1.507,0,0,1,0,2.041v2.041a1.532,1.532,0,0,0,1.531,1.531H16.837a1.532,1.532,0,0,0,1.531-1.531v-2.041a1.507,1.507,0,0,1,0-2.041v-2.041A1.533,1.533,0,0,0,16.837,320Zm.51,7.653a.51.51,0,0,1-.51.51H1.531a.51.51,0,0,1-.51-.51v-2.041a.51.51,0,0,1,.51-.51H16.837a.51.51,0,0,1,.51.51Zm0-4.082a.51.51,0,0,1-.51.51H1.531a.51.51,0,0,1-.51-.51v-2.041a.51.51,0,0,1,.51-.51H16.837a.51.51,0,0,1,.51.51Z" transform="translate(0 -304.693)" fill="#00d3d3"/>
            <path id="Path_1346" data-name="Path 1346" d="M239.259,362.667h-4.082a.51.51,0,0,0,0,1.02h4.082a.51.51,0,1,0,0-1.02Z" transform="translate(-223.442 -345.32)" fill="#00d3d3"/>
          </g>
        </g>
      </g>
    </g>
  </g>
</svg>
