<svg xmlns="http://www.w3.org/2000/svg" width="22.797" height="22.799" viewBox="0 0 22.797 22.799">
  <g id="Group_371" data-name="Group 371" transform="translate(-666.861 -1320.319)">
    <g id="Group_370" data-name="Group 370">
      <g id="sssssssssssssssss" transform="translate(666.861 1320.319)">
        <g id="Group_323" data-name="Group 323" transform="translate(13.936 21.018)">
          <g id="Group_322" data-name="Group 322">
            <path id="Path_1377" data-name="Path 1377" d="M321.411,472h-7.97a.445.445,0,1,0,0,.891h7.97a.445.445,0,0,0,0-.891Z" transform="translate(-312.996 -472.003)" fill="#00d3d3"/>
          </g>
        </g>
        <g id="Group_325" data-name="Group 325" transform="translate(0 21.018)">
          <g id="Group_324" data-name="Group 324">
            <path id="Path_1378" data-name="Path 1378" d="M8.391,472H.465a.445.445,0,0,0,0,.891H8.391a.445.445,0,0,0,0-.891Z" transform="translate(-0.02 -472.003)" fill="#00d3d3"/>
          </g>
        </g>
        <g id="Group_327" data-name="Group 327" transform="translate(7.678 9.109)">
          <g id="Group_326" data-name="Group 326">
            <path id="Path_1379" data-name="Path 1379" d="M176.358,204.555h-3.451a.445.445,0,1,0,0,.89h3.451a.445.445,0,1,0,0-.89Z" transform="translate(-172.462 -204.555)" fill="#00d3d3"/>
          </g>
        </g>
        <g id="Group_329" data-name="Group 329" transform="translate(14.28 9.109)">
          <g id="Group_328" data-name="Group 328">
            <path id="Path_1380" data-name="Path 1380" d="M321.475,204.683a.445.445,0,1,0,.13.315A.449.449,0,0,0,321.475,204.683Z" transform="translate(-320.715 -204.553)" fill="#00d3d3"/>
          </g>
        </g>
        <g id="Group_331" data-name="Group 331" transform="translate(12.724 9.109)">
          <g id="Group_330" data-name="Group 330">
            <path id="Path_1381" data-name="Path 1381" d="M286.537,204.683a.446.446,0,1,0,.13.315A.45.45,0,0,0,286.537,204.683Z" transform="translate(-285.777 -204.553)" fill="#00d3d3"/>
          </g>
        </g>
        <g id="Group_333" data-name="Group 333" transform="translate(7.678 12.671)">
          <g id="Group_332" data-name="Group 332">
            <path id="Path_1382" data-name="Path 1382" d="M176.358,284.549h-3.451a.445.445,0,0,0,0,.891h3.451a.445.445,0,0,0,0-.891Z" transform="translate(-172.462 -284.549)" fill="#00d3d3"/>
          </g>
        </g>
        <g id="Group_335" data-name="Group 335" transform="translate(14.28 12.671)">
          <g id="Group_334" data-name="Group 334">
            <path id="Path_1383" data-name="Path 1383" d="M321.475,284.677a.445.445,0,1,0,.13.315A.449.449,0,0,0,321.475,284.677Z" transform="translate(-320.715 -284.547)" fill="#00d3d3"/>
          </g>
        </g>
        <g id="Group_337" data-name="Group 337" transform="translate(12.724 12.671)">
          <g id="Group_336" data-name="Group 336">
            <path id="Path_1384" data-name="Path 1384" d="M286.537,284.677a.446.446,0,1,0,.13.315A.45.45,0,0,0,286.537,284.677Z" transform="translate(-285.777 -284.547)" fill="#00d3d3"/>
          </g>
        </g>
        <g id="Group_339" data-name="Group 339" transform="translate(7.678 16.233)">
          <g id="Group_338" data-name="Group 338">
            <path id="Path_1385" data-name="Path 1385" d="M176.358,364.543h-3.451a.445.445,0,1,0,0,.89h3.451a.445.445,0,1,0,0-.89Z" transform="translate(-172.462 -364.543)" fill="#00d3d3"/>
          </g>
        </g>
        <g id="Group_341" data-name="Group 341" transform="translate(14.28 16.233)">
          <g id="Group_340" data-name="Group 340">
            <path id="Path_1386" data-name="Path 1386" d="M321.475,364.672a.445.445,0,1,0,.13.315A.449.449,0,0,0,321.475,364.672Z" transform="translate(-320.715 -364.541)" fill="#00d3d3"/>
          </g>
        </g>
        <g id="Group_343" data-name="Group 343" transform="translate(12.724 16.233)">
          <g id="Group_342" data-name="Group 342">
            <path id="Path_1387" data-name="Path 1387" d="M286.537,364.672a.445.445,0,1,0,.13.315A.448.448,0,0,0,286.537,364.672Z" transform="translate(-285.777 -364.541)" fill="#00d3d3"/>
          </g>
        </g>
        <g id="Group_345" data-name="Group 345" transform="translate(5.615 7.391)">
          <g id="Group_344" data-name="Group 344">
            <path id="Path_1388" data-name="Path 1388" d="M137.714,171.775a2.224,2.224,0,0,0-.892-1.781,2.226,2.226,0,0,0-1.334-4.007h-7.124a2.226,2.226,0,0,0-1.334,4.007,2.224,2.224,0,0,0,0,3.562,2.226,2.226,0,0,0,1.334,4.007h3.111V178.8a1.336,1.336,0,1,0,.891,0v-1.236h3.122a2.226,2.226,0,0,0,1.334-4.007A2.224,2.224,0,0,0,137.714,171.775Zm-10.686-3.562a1.337,1.337,0,0,1,1.336-1.336h7.124a1.336,1.336,0,1,1,0,2.672h-7.124A1.337,1.337,0,0,1,127.027,168.213ZM131.92,180.5a.445.445,0,1,1,.445-.445A.446.446,0,0,1,131.92,180.5Zm4.9-5.167a1.337,1.337,0,0,1-1.336,1.336h-7.124a1.336,1.336,0,0,1,0-2.672h7.124A1.337,1.337,0,0,1,136.823,175.337Zm-1.336-2.226h-7.124a1.336,1.336,0,1,1,0-2.672h7.124a1.336,1.336,0,1,1,0,2.672Z" transform="translate(-126.137 -165.987)" fill="#00d3d3"/>
          </g>
        </g>
        <g id="Group_347" data-name="Group 347" transform="translate(0)">
          <g id="Group_346" data-name="Group 346">
            <path id="Path_1389" data-name="Path 1389" d="M21.86,6.895a5.428,5.428,0,0,0-2.267-1.885A7.7,7.7,0,0,0,4.812,6.237q-.1,0-.207,0a4.586,4.586,0,0,0-.711,9.117.45.45,0,0,0,.069.005.445.445,0,0,0,.068-.885,3.7,3.7,0,0,1,.574-7.347,3.74,3.74,0,0,1,.517.036.445.445,0,0,0,.5-.381A6.814,6.814,0,0,1,18.819,5.488a.445.445,0,0,0,.255.269,4.543,4.543,0,0,1-.774,8.666.445.445,0,1,0,.179.872,5.434,5.434,0,0,0,3.382-8.4Z" transform="translate(-0.019)" fill="#00d3d3"/>
          </g>
        </g>
      </g>
    </g>
  </g>
</svg>
