<svg xmlns="http://www.w3.org/2000/svg" xmlns:xlink="http://www.w3.org/1999/xlink" width="65.167" height="65.176" viewBox="0 0 65.167 65.176">
  <defs>
    <linearGradient id="linear-gradient" x1="2.003" y1="-0.413" x2="-0.161" y2="0.901" gradientUnits="objectBoundingBox">
      <stop offset="0" stop-color="#fff"/>
      <stop offset="1" stop-color="#fff" stop-opacity="0"/>
    </linearGradient>
    <linearGradient id="linear-gradient-2" x1="-0.331" y1="0.766" x2="1.185" y2="0.068" xlink:href="#linear-gradient"/>
    <linearGradient id="linear-gradient-3" x1="0.165" y1="-0.042" x2="1.251" y2="1.081" xlink:href="#linear-gradient"/>
    <linearGradient id="linear-gradient-4" x1="1.268" y1="-0.034" x2="-0.052" y2="1.164" xlink:href="#linear-gradient"/>
    <linearGradient id="linear-gradient-5" x1="0.928" y1="1.236" x2="-0.198" y2="-0.291" xlink:href="#linear-gradient"/>
    <linearGradient id="linear-gradient-6" x1="-0.07" y1="0.947" x2="0.818" y2="-0.036" xlink:href="#linear-gradient"/>
    <linearGradient id="linear-gradient-7" x1="0.299" y1="0.57" x2="-0.686" y2="1.507" xlink:href="#linear-gradient"/>
  </defs>
  <g id="Group_372" data-name="Group 372" transform="translate(-156.973 -1881.5)">
    <g id="Layer_2" data-name="Layer 2" transform="translate(156.973 1881.5)">
      <g id="Layer_1" data-name="Layer 1" transform="translate(0 0)">
        <g id="Group_362" data-name="Group 362">
          <g id="Group_361" data-name="Group 361">
            <circle id="Ellipse_159" data-name="Ellipse 159" cx="26.52" cy="26.52" r="26.52" transform="translate(6.302 6.054)" opacity="0.81" fill="url(#linear-gradient)"/>
            <circle id="Ellipse_160" data-name="Ellipse 160" cx="20.695" cy="20.695" r="20.695" transform="translate(11.65 12.194)" fill="url(#linear-gradient-2)"/>
            <g id="Group_360" data-name="Group 360">
              <path id="Path_1395" data-name="Path 1395" d="M103.868,32.534A32.579,32.579,0,0,0,71.86.05h-.846a.675.675,0,0,0,0,1.349h.8A31.23,31.23,0,0,1,102.5,32.539a.675.675,0,0,0,1.349,0Z" transform="translate(-38.701 -0.027)" fill="url(#linear-gradient-3)"/>
              <path id="Path_1396" data-name="Path 1396" d="M71.694,102.764c17.9-.081,32.475-15.837,32.511-33.735a.67.67,0,0,0-.67-.679.679.679,0,0,0-.679.675c-.031,17.169-14.007,32.332-31.171,32.408a.675.675,0,1,0,0,1.349Z" transform="translate(-39.07 -37.606)" fill="url(#linear-gradient-4)"/>
              <path id="Path_1397" data-name="Path 1397" d="M0,71.839a32.3,32.3,0,0,0,9.626,22.9,32.889,32.889,0,0,0,22.989,9.567.675.675,0,1,0,0-1.349,31.553,31.553,0,0,1-22.04-9.176,30.942,30.942,0,0,1-9.225-21.95.675.675,0,1,0-1.349,0Z" transform="translate(0 -39.152)" fill="url(#linear-gradient-5)"/>
              <path id="Path_1398" data-name="Path 1398" d="M32.417,0c-.859.022-1.889.076-2.442.121-.45.031-.9.076-1.318.13h0A32.583,32.583,0,0,0,0,32.493a.675.675,0,1,0,1.349,0,31.234,31.234,0,0,1,27.469-30.9c.418-.054.837-.094,1.259-.126.508-.045,1.547-.117,2.37-.117A.675.675,0,0,0,32.417,0Z" transform="translate(0 0)" fill="url(#linear-gradient-6)"/>
            </g>
          </g>
          <path id="Path_1399" data-name="Path 1399" d="M59.878,64.823V62.574a1.084,1.084,0,0,1,.738-1.026q7.674-2.559,7.647-8.227v-.112a6.252,6.252,0,0,0-1.943-4.669,7.125,7.125,0,0,0-2.146-1.466,6.592,6.592,0,0,0-9.117,5.64,1.129,1.129,0,0,1-1.129,1.008h0a1.138,1.138,0,0,1-1.133-1.25,8.964,8.964,0,0,1,2.514-5.564,8.668,8.668,0,0,1,6.338-2.6,8.546,8.546,0,0,1,6.338,2.6,8.713,8.713,0,0,1,2.6,6.387q0,6.868-8.281,10v1.538a1.21,1.21,0,0,1-1.214,1.21h0a1.21,1.21,0,0,1-1.21-1.219Zm-.81,4.417a1.871,1.871,0,1,0,.907-1.7A1.871,1.871,0,0,0,59.068,69.24Z" transform="translate(-29.044 -24.376)" fill="url(#linear-gradient-7)"/>
        </g>
      </g>
    </g>
  </g>
</svg>
