<svg xmlns="http://www.w3.org/2000/svg" xmlns:xlink="http://www.w3.org/1999/xlink" viewBox="0 0 1000 1000">
  <defs>
    <style>
      .cls-1 {
        isolation: isolate;
      }

      .cls-2 {
        fill: #b8ffff;
      }

      .cls-3 {
        fill: #e4e4ed;
      }

      .cls-21, .cls-4 {
        mix-blend-mode: lighten;
      }

      .cls-4 {
        fill: url(#radial-gradient);
      }

      .cls-12, .cls-5 {
        stroke: #00d3d3;
      }

      .cls-5, .cls-7, .cls-8 {
        fill-rule: evenodd;
      }

      .cls-5 {
        fill: url(#linear-gradient);
      }

      .cls-6 {
        stroke: #6bf6f9;
        fill: url(#linear-gradient-2);
      }

      .cls-10, .cls-19, .cls-6 {
        stroke-width: 2px;
      }

      .cls-7 {
        fill: url(#linear-gradient-3);
      }

      .cls-13, .cls-8 {
        fill: #085277;
      }

      .cls-9 {
        fill: url(#radial-gradient-2);
      }

      .cls-10, .cls-19 {
        stroke: #fccc6b;
      }

      .cls-10 {
        fill: url(#linear-gradient-4);
      }

      .cls-11 {
        fill: url(#radial-gradient-3);
      }

      .cls-12 {
        fill: url(#linear-gradient-5);
      }

      .cls-14, .cls-18, .cls-19, .cls-22, .cls-23, .cls-24, .cls-25, .cls-26, .cls-27, .cls-28 {
        fill: none;
      }

      .cls-14 {
        stroke: #6cf8ff;
        stroke-linejoin: round;
        stroke-width: 3.3px;
        stroke-dasharray: 1.1 37.4;
      }

      .cls-14, .cls-22, .cls-23, .cls-24, .cls-25, .cls-26, .cls-27, .cls-28 {
        stroke-linecap: round;
      }

      .cls-15 {
        fill: #10072a;
      }

      .cls-16 {
        fill-opacity: 0.3;
        fill: url(#radial-gradient-4);
      }

      .cls-17 {
        fill: url(#linear-gradient-6);
      }

      .cls-18 {
        stroke-width: 2.2px;
        stroke: url(#linear-gradient-7);
      }

      .cls-20 {
        fill: url(#linear-gradient-8);
      }

      .cls-21 {
        opacity: 0.32;
        fill: url(#linear-gradient-9);
      }

      .cls-22, .cls-23, .cls-24, .cls-25, .cls-26, .cls-27, .cls-28 {
        stroke-miterlimit: 10;
        stroke-width: 9px;
      }

      .cls-22 {
        stroke: url(#linear-gradient-10);
      }

      .cls-23 {
        stroke: url(#linear-gradient-11);
      }

      .cls-24 {
        stroke: url(#linear-gradient-12);
      }

      .cls-25 {
        stroke: url(#linear-gradient-13);
      }

      .cls-26 {
        stroke: url(#linear-gradient-14);
      }

      .cls-27 {
        stroke: url(#linear-gradient-15);
      }

      .cls-28 {
        stroke: url(#linear-gradient-16);
      }
    </style>
    <radialGradient id="radial-gradient" cx="1.7" cy="1000.21" r="0.5" gradientTransform="matrix(659, 0, 0, -659, -617, 659776)" gradientUnits="userSpaceOnUse">
      <stop offset="0.06" stop-color="#25ffec"/>
      <stop offset="0.14" stop-color="#25ffec" stop-opacity="0.98"/>
      <stop offset="0.2" stop-color="#25ffec" stop-opacity="0.84"/>
      <stop offset="0.27" stop-color="#25ffec" stop-opacity="0.67"/>
      <stop offset="0.4" stop-color="#25ffec" stop-opacity="0.47"/>
      <stop offset="0.54" stop-color="#25ffec" stop-opacity="0.31"/>
      <stop offset="0.67" stop-color="#25ffec" stop-opacity="0.17"/>
      <stop offset="0.79" stop-color="#25ffec" stop-opacity="0.08"/>
      <stop offset="0.91" stop-color="#25ffec" stop-opacity="0.02"/>
      <stop offset="1" stop-color="#25ffec" stop-opacity="0"/>
    </radialGradient>
    <linearGradient id="linear-gradient" x1="417.56" y1="164.99" x2="610.65" y2="164.99" gradientUnits="userSpaceOnUse">
      <stop offset="0" stop-color="#00d3d3"/>
      <stop offset="1" stop-color="#085277"/>
    </linearGradient>
    <linearGradient id="linear-gradient-2" x1="402.66" y1="174.21" x2="593.8" y2="174.21" xlink:href="#linear-gradient"/>
    <linearGradient id="linear-gradient-3" x1="459.14" y1="116.64" x2="491.61" y2="230.99" gradientUnits="userSpaceOnUse">
      <stop offset="0" stop-color="#98fcf4"/>
      <stop offset="1" stop-color="#47dae4"/>
    </linearGradient>
    <radialGradient id="radial-gradient-2" cx="1.99" cy="999.9" r="1.08" gradientTransform="matrix(255.47, -51.94, -51.94, -255.47, 51920.97, 256180.65)" gradientUnits="userSpaceOnUse">
      <stop offset="0" stop-color="#0b0322"/>
      <stop offset="0.79" stop-color="#0e1033"/>
      <stop offset="1" stop-color="#0f1337"/>
    </radialGradient>
    <linearGradient id="linear-gradient-4" x1="253.3" y1="522.83" x2="743.9" y2="522.83" xlink:href="#linear-gradient"/>
    <radialGradient id="radial-gradient-3" cx="2.05" cy="1000.18" r="1.08" xlink:href="#radial-gradient-2"/>
    <linearGradient id="linear-gradient-5" x1="254.71" y1="449.42" x2="745.31" y2="449.42" xlink:href="#linear-gradient"/>
    <radialGradient id="radial-gradient-4" cx="1.31" cy="1000.9" r="0.43" gradientTransform="matrix(0, 169.4, 331.58, 0, -331381.73, 200.1)" gradientUnits="userSpaceOnUse">
      <stop offset="0" stop-color="#be6f16"/>
      <stop offset="1" stop-color="#ba6c17" stop-opacity="0"/>
    </radialGradient>
    <linearGradient id="linear-gradient-6" x1="495.33" y1="468.49" x2="497.44" y2="373.91" gradientUnits="userSpaceOnUse">
      <stop offset="0" stop-color="#91fcfc"/>
      <stop offset="1" stop-color="#00caf2"/>
    </linearGradient>
    <linearGradient id="linear-gradient-7" x1="1.92" y1="1001.3" x2="1.92" y2="1000.57" gradientTransform="matrix(319, 0, 0, -171.6, -115.6, 172140.01)" gradientUnits="userSpaceOnUse">
      <stop offset="0" stop-color="#085277"/>
      <stop offset="1" stop-color="#00d3d3"/>
    </linearGradient>
    <linearGradient id="linear-gradient-8" x1="496.97" y1="431.72" x2="492.65" y2="346.36" xlink:href="#linear-gradient"/>
    <linearGradient id="linear-gradient-9" x1="502.13" y1="83.5" x2="493.66" y2="315.73" gradientUnits="userSpaceOnUse">
      <stop offset="0" stop-color="#25ffec" stop-opacity="0"/>
      <stop offset="0.11" stop-color="#25ffec" stop-opacity="0.02"/>
      <stop offset="0.23" stop-color="#25ffec" stop-opacity="0.07"/>
      <stop offset="0.36" stop-color="#25ffec" stop-opacity="0.16"/>
      <stop offset="0.49" stop-color="#25ffec" stop-opacity="0.29"/>
      <stop offset="0.63" stop-color="#25ffec" stop-opacity="0.45"/>
      <stop offset="0.78" stop-color="#25ffec" stop-opacity="0.65"/>
      <stop offset="0.92" stop-color="#25ffec" stop-opacity="0.88"/>
      <stop offset="0.99" stop-color="#25ffec"/>
    </linearGradient>
    <linearGradient id="linear-gradient-10" x1="383.17" y1="93.92" x2="369.9" y2="457.71" gradientUnits="userSpaceOnUse">
      <stop offset="0" stop-color="#33fff9" stop-opacity="0"/>
      <stop offset="0.11" stop-color="#33fff9" stop-opacity="0.02"/>
      <stop offset="0.23" stop-color="#33fff9" stop-opacity="0.07"/>
      <stop offset="0.36" stop-color="#33fff9" stop-opacity="0.16"/>
      <stop offset="0.49" stop-color="#33fff9" stop-opacity="0.29"/>
      <stop offset="0.63" stop-color="#33fff9" stop-opacity="0.45"/>
      <stop offset="0.78" stop-color="#33fff9" stop-opacity="0.65"/>
      <stop offset="0.92" stop-color="#33fff9" stop-opacity="0.88"/>
      <stop offset="0.99" stop-color="#33fff9"/>
    </linearGradient>
    <linearGradient id="linear-gradient-11" x1="624" y1="88.63" x2="610.72" y2="452.42" xlink:href="#linear-gradient-10"/>
    <linearGradient id="linear-gradient-12" x1="440.95" y1="291.19" x2="435.88" y2="430.22" xlink:href="#linear-gradient-10"/>
    <linearGradient id="linear-gradient-13" x1="412.72" y1="212.84" x2="407.64" y2="351.86" xlink:href="#linear-gradient-10"/>
    <linearGradient id="linear-gradient-14" x1="542.6" y1="256.25" x2="537.53" y2="395.28" xlink:href="#linear-gradient-10"/>
    <linearGradient id="linear-gradient-15" x1="574.37" y1="224.49" x2="569.29" y2="363.51" xlink:href="#linear-gradient-10"/>
    <linearGradient id="linear-gradient-16" x1="487.54" y1="229.78" x2="482.47" y2="368.81" xlink:href="#linear-gradient-10"/>
  </defs>
  <g class="cls-1">
    <g id="Layer_12" data-name="Layer 12">
      <g>
        <path class="cls-2" d="M541.24,833.89c0-2.68,2.85-4.85,6.36-4.85s6.37,2.17,6.37,4.85-2.85,4.85-6.37,4.85S541.24,836.57,541.24,833.89Z"/>
        <path class="cls-2" d="M615.51,829c0-2.68,2.85-4.85,6.37-4.85s6.37,2.17,6.37,4.85-2.86,4.85-6.37,4.85S615.51,831.72,615.51,829Z"/>
        <path class="cls-2" d="M692.51,835.11c0-2.68,2.85-4.86,6.37-4.86s6.37,2.18,6.37,4.86S702.4,840,698.88,840,692.51,837.78,692.51,835.11Z"/>
        <path class="cls-2" d="M765.58,832.37c0-2.67,2.84-4.84,6.36-4.84s6.37,2.17,6.37,4.84-2.85,4.86-6.37,4.86S765.58,835.05,765.58,832.37Z"/>
        <path class="cls-2" d="M808.62,830.56c0-2.68,2.85-4.85,6.37-4.85s6.36,2.17,6.36,4.85-2.84,4.85-6.36,4.85S808.62,833.24,808.62,830.56Z"/>
        <path class="cls-2" d="M875.32,822.67c0-2.67,2.85-4.85,6.36-4.85s6.37,2.18,6.37,4.85-2.85,4.86-6.37,4.86S875.32,825.35,875.32,822.67Z"/>
        <path class="cls-2" d="M878.35,790.54c0-2.68,2.85-4.85,6.37-4.85s6.36,2.17,6.36,4.85-2.85,4.85-6.36,4.85S878.35,793.22,878.35,790.54Z"/>
        <path class="cls-2" d="M889.87,767.8c0-2.67,2.85-4.85,6.37-4.85s6.36,2.18,6.36,4.85-2.85,4.85-6.36,4.85S889.87,770.48,889.87,767.8Z"/>
        <path class="cls-2" d="M890.48,740.22c0-2.68,2.84-4.85,6.36-4.85s6.37,2.17,6.37,4.85-2.85,4.85-6.37,4.85S890.48,742.9,890.48,740.22Z"/>
        <path class="cls-2" d="M885.93,699.29c0-2.68,2.85-4.85,6.37-4.85s6.36,2.17,6.36,4.85-2.85,4.85-6.36,4.85S885.93,702,885.93,699.29Z"/>
        <path class="cls-2" d="M899,664.73c0-2.68,2.86-4.85,6.37-4.85s6.37,2.17,6.37,4.85-2.85,4.85-6.37,4.85S899,667.41,899,664.73Z"/>
        <path class="cls-3" d="M690.33,601.5a13.07,13.07,0,0,0-.08,1.67c0,4.76,1.6,19.22,18.23,37.94s48.22,41.76,108.18,63.94l.42.15.43-.14c8.65-2.78,29.37-12,48-20.59S900.73,668,900.73,668l-1.11-2.33-2.87,1.36c-6.44,3.06-22.77,10.77-39.34,18.31S824,700.27,816.72,702.61l.39,1.23.45-1.21c-59.71-22.08-90.91-44.93-107.15-63.23s-17.58-32-17.59-36.23c0-.46,0-.8,0-1l0-.24v0l-2.55-.35Z"/>
        <path class="cls-3" d="M886.28,700.86l-56.42,27-106-53.68a91.64,91.64,0,0,1-45.18-51.74l-3.46-10-2.43.84,3.45,10a94.27,94.27,0,0,0,46.45,53.19l107.12,54.25,57.56-27.56-1.11-2.32Z"/>
        <path class="cls-3" d="M654.64,620l5.68,14.11a102.07,102.07,0,0,0,49.33,53.35l131.1,65.06L877,735.29a7.57,7.57,0,0,1,3.22-.73,7.47,7.47,0,0,1,3.2.72l7.76,3.68,1.1-2.33L884.48,733a10,10,0,0,0-4.3-1,9.82,9.82,0,0,0-4.33,1L840.77,749.7l-130-64.51a99.51,99.51,0,0,1-48.09-52L657,619.08l-2.39,1Z"/>
        <path class="cls-3" d="M635.83,626.09l7.3,18.92A88,88,0,0,0,686,692.12l169.94,84.71,23-12a7.81,7.81,0,0,1,7.3,0l4.85,2.58,1.22-2.27-4.85-2.59a10.44,10.44,0,0,0-9.72,0L855.9,773.94,687.14,689.81a85.5,85.5,0,0,1-41.61-45.73l-7.29-18.92-2.41.93Z"/>
        <path class="cls-3" d="M620,632l3.76,13.86a82.75,82.75,0,0,0,42.94,52.37l205,102.27,9.72-6.48-1.43-2.15-8.47,5.65L667.88,696a80.18,80.18,0,0,1-41.6-50.74l-3.76-13.86L620,632Z"/>
        <path class="cls-3" d="M598.05,636.56l2.47,9.34a97.86,97.86,0,0,0,50.74,62.36L876.56,821.1l1.15-2.31L652.41,706A95.22,95.22,0,0,1,603,645.24l-2.48-9.34-2.49.66Z"/>
        <path class="cls-3" d="M579.86,640.68l4.74,16.58a98.6,98.6,0,0,0,50,60.74L831.26,818.21l-13.44,7.9,1.31,2.22,17.49-10.28L635.79,715.7a96,96,0,0,1-48.71-59.15L582.34,640l-2.48.71Z"/>
        <path class="cls-3" d="M564.37,642.32,566.9,661a81.77,81.77,0,0,0,43.89,61.88l170.65,87-29,13.58L767.36,832l1.28-2.24-10.58-6L787.3,810,612,720.62a79.21,79.21,0,0,1-42.51-59.93L566.92,642l-2.55.35Z"/>
        <path class="cls-3" d="M545.26,643.65l2.29,20.09a90.14,90.14,0,0,0,49,70.26l135.29,68.16-48.66,22.53,12.21,9,1.53-2.08-8.71-6.44,49.56-22.94L597.7,731.7a87.55,87.55,0,0,1-47.59-68.25l-2.29-20.09-2.56.29Z"/>
        <path class="cls-3" d="M527.53,645.91l2.92,28.82A80.87,80.87,0,0,0,574,738.53l112.42,57.71-61.72,28.45,1.08,2.34,66.52-30.67L575.15,736.24A78.31,78.31,0,0,1,533,674.47l-2.92-28.82-2.56.26Z"/>
        <path class="cls-3" d="M508.43,645.44l3,34.25a87,87,0,0,0,47.65,70.08l79,39.66-86.24,39.8,1.08,2.34,91.1-42-83.82-42.07a84.42,84.42,0,0,1-46.24-68l-3-34.25-2.56.23Z"/>
        <path class="cls-2" d="M454.84,833.89c0-2.68-2.85-4.85-6.37-4.85s-6.36,2.17-6.36,4.85,2.85,4.85,6.36,4.85S454.84,836.57,454.84,833.89Z"/>
        <path class="cls-2" d="M380.57,829c0-2.68-2.85-4.85-6.37-4.85s-6.37,2.17-6.37,4.85,2.85,4.85,6.37,4.85S380.57,831.72,380.57,829Z"/>
        <path class="cls-2" d="M303.57,835.11c0-2.68-2.86-4.86-6.37-4.86s-6.37,2.18-6.37,4.86,2.85,4.84,6.37,4.84S303.57,837.78,303.57,835.11Z"/>
        <path class="cls-2" d="M230.5,832.37c0-2.67-2.85-4.84-6.36-4.84s-6.37,2.17-6.37,4.84,2.85,4.86,6.37,4.86S230.5,835.05,230.5,832.37Z"/>
        <path class="cls-2" d="M187.45,830.56c0-2.68-2.84-4.85-6.36-4.85s-6.37,2.17-6.37,4.85,2.85,4.85,6.37,4.85S187.45,833.24,187.45,830.56Z"/>
        <path class="cls-2" d="M120.76,822.67c0-2.67-2.85-4.85-6.37-4.85S108,820,108,822.67s2.85,4.86,6.36,4.86S120.76,825.35,120.76,822.67Z"/>
        <path class="cls-2" d="M117.73,790.54c0-2.68-2.85-4.85-6.37-4.85s-6.36,2.17-6.36,4.85,2.85,4.85,6.36,4.85S117.73,793.22,117.73,790.54Z"/>
        <path class="cls-2" d="M106.21,767.8c0-2.67-2.85-4.85-6.37-4.85s-6.36,2.18-6.36,4.85,2.85,4.85,6.36,4.85S106.21,770.48,106.21,767.8Z"/>
        <path class="cls-2" d="M105.6,740.22c0-2.68-2.85-4.85-6.36-4.85s-6.37,2.17-6.37,4.85,2.85,4.85,6.37,4.85S105.6,742.9,105.6,740.22Z"/>
        <path class="cls-2" d="M110.15,699.29c0-2.68-2.85-4.85-6.36-4.85s-6.37,2.17-6.37,4.85,2.85,4.85,6.37,4.85S110.15,702,110.15,699.29Z"/>
        <path class="cls-2" d="M97.11,664.73c0-2.68-2.84-4.85-6.36-4.85s-6.37,2.17-6.37,4.85,2.85,4.85,6.37,4.85S97.11,667.41,97.11,664.73Z"/>
        <path class="cls-3" d="M303.2,601.85v0a10.67,10.67,0,0,1,.06,1.27c0,4.19-1.35,17.93-17.59,36.23s-47.45,41.15-107.15,63.23l.45,1.21.39-1.23c-8.33-2.67-29.14-11.93-47.75-20.48-9.32-4.28-18.11-8.39-24.57-11.43l-7.71-3.65-2.87-1.36L95.35,668s16.53,7.88,35.18,16.45,39.39,17.81,48,20.59l.42.14.42-.15c60-22.18,91.55-45.2,108.18-63.94s18.25-33.18,18.24-37.94a13.07,13.07,0,0,0-.08-1.67l-2.55.35Z"/>
        <path class="cls-3" d="M108.68,703.18l57.57,27.56,107.12-54.25a94.22,94.22,0,0,0,46.44-53.19l3.46-10-2.43-.84-3.46,10a91.64,91.64,0,0,1-45.18,51.74l-106,53.68-56.42-27-1.12,2.32Z"/>
        <path class="cls-3" d="M339.05,619.08l-5.68,14.11a99.51,99.51,0,0,1-48.09,52l-130,64.51L120.22,733a9.75,9.75,0,0,0-4.32-1,10,10,0,0,0-4.31,1l-7.75,3.68,1.1,2.33,7.76-3.68a7.45,7.45,0,0,1,6.41,0l36.22,17.27,131.1-65.06a102.11,102.11,0,0,0,49.33-53.35L341.44,620l-2.39-1Z"/>
        <path class="cls-3" d="M357.84,625.16l-7.29,18.92a85.5,85.5,0,0,1-41.61,45.73L140.18,773.94l-21.83-11.42a10.44,10.44,0,0,0-9.72,0l-4.85,2.59,1.22,2.28,4.84-2.59a7.83,7.83,0,0,1,7.31,0l23,12,169.94-84.71A88,88,0,0,0,353,645l7.29-18.92-2.4-.93Z"/>
        <path class="cls-3" d="M373.56,631.35l-3.76,13.86A80.21,80.21,0,0,1,328.2,696L124.49,797.54,116,791.89,114.59,794l9.72,6.48,205-102.27a82.71,82.71,0,0,0,42.93-52.37L376.05,632l-2.49-.67Z"/>
        <path class="cls-3" d="M395.54,635.9l-2.48,9.34A95.2,95.2,0,0,1,343.66,706L118.36,818.79l1.16,2.31,225.3-112.84a97.85,97.85,0,0,0,50.73-62.36l2.48-9.34-2.49-.66Z"/>
        <path class="cls-3" d="M413.74,640,409,656.55a96,96,0,0,1-48.71,59.15L159.46,818.05,177,828.33l1.31-2.22-13.44-7.9L361.46,718a98.6,98.6,0,0,0,50-60.74l4.73-16.58-2.47-.71Z"/>
        <path class="cls-3" d="M429.16,642l-2.53,18.72a79.2,79.2,0,0,1-42.52,59.93L208.78,810,238,823.7l-10.58,6,1.28,2.24,14.88-8.51-29-13.58,170.65-87A81.77,81.77,0,0,0,429.18,661l2.53-18.71-2.55-.35Z"/>
        <path class="cls-3" d="M448.25,643.36,446,663.45a87.51,87.51,0,0,1-47.59,68.25L258.31,802.26l49.56,22.94-8.71,6.44,1.53,2.08,12.21-9-48.67-22.53L399.53,734a90.11,90.11,0,0,0,49-70.26l2.29-20.09-2.56-.29Z"/>
        <path class="cls-3" d="M466,645.65l-2.92,28.82a78.33,78.33,0,0,1-42.14,61.77L303.81,796.36,370.33,827l1.07-2.34-61.71-28.45L422.1,738.53a80.86,80.86,0,0,0,43.53-63.8l2.92-28.82-2.56-.26Z"/>
        <path class="cls-3" d="M485.08,645.21l-3,34.25a84.44,84.44,0,0,1-46.24,68L352,789.53l91.1,42,1.08-2.34-86.24-39.8,79-39.66a87,87,0,0,0,47.65-70.08l3-34.25-2.57-.23Z"/>
        <path class="cls-2" d="M931,605.77c0-2.68,2.85-4.85,6.36-4.85s6.37,2.17,6.37,4.85-2.85,4.85-6.37,4.85S931,608.44,931,605.77Z"/>
        <path class="cls-2" d="M965.05,600.76c0-2.68,2.85-4.85,6.37-4.85s6.36,2.17,6.36,4.85-2.84,4.85-6.36,4.85S965.05,603.44,965.05,600.76Z"/>
        <path class="cls-2" d="M967.33,568.17c0-2.34,2.85-4.24,6.36-4.24s6.37,1.9,6.37,4.24-2.85,4.25-6.37,4.25S967.33,570.52,967.33,568.17Z"/>
        <path class="cls-2" d="M957.32,543.32c0-2.35,2.85-4.25,6.37-4.25s6.36,1.9,6.36,4.25-2.85,4.24-6.36,4.24S957.32,545.66,957.32,543.32Z"/>
        <path class="cls-2" d="M945.2,522.7c0-2.34,2.84-4.24,6.36-4.24s6.37,1.9,6.37,4.24-2.85,4.24-6.37,4.24S945.2,525.05,945.2,522.7Z"/>
        <path class="cls-2" d="M937,492.69c0-2.34,2.85-4.24,6.37-4.24s6.36,1.9,6.36,4.24-2.85,4.24-6.36,4.24S937,495,937,492.69Z"/>
        <path class="cls-2" d="M866.68,485.72c0-2.35,2.85-4.25,6.36-4.25s6.37,1.9,6.37,4.25S876.56,490,873,490,866.68,488.06,866.68,485.72Z"/>
        <path class="cls-2" d="M834.24,478.75c0-2.35,2.85-4.25,6.37-4.25s6.36,1.9,6.36,4.25-2.85,4.24-6.36,4.24S834.24,481.09,834.24,478.75Z"/>
        <path class="cls-2" d="M773.91,471.47c0-2.35,2.85-4.25,6.37-4.25s6.37,1.9,6.37,4.25-2.86,4.24-6.37,4.24S773.91,473.81,773.91,471.47Z"/>
        <path class="cls-2" d="M745.68,489.82c0-2.34,2.85-4.24,6.36-4.24s6.37,1.9,6.37,4.24-2.85,4.25-6.37,4.25S745.68,492.17,745.68,489.82Z"/>
        <path class="cls-3" d="M739.58,560l1.8,44.19a49.27,49.27,0,0,0,71.6,42L912.48,596l19.45,8.84,1.07-2.35-20.58-9.35L811.81,644A46.68,46.68,0,0,1,744,604.12l-1.81-44.18-2.57.1Z"/>
        <path class="cls-3" d="M720.49,580.6l2.22,18.7A48.18,48.18,0,0,0,791.65,637l125.21-60.61,50.37,23.84,1.1-2.33-51.49-24.36L790.53,634.71A45.61,45.61,0,0,1,725.27,599l-2.22-18.69-2.56.3Z"/>
        <path class="cls-3" d="M707.31,590.19l1.08,7.38a44,44,0,0,0,62.76,33.26l152-73.49,32.29,17.36a8.45,8.45,0,0,0,8.21-.11l7.23-4.16-1.28-2.24-7.23,4.16a5.9,5.9,0,0,1-2.93.78,5.82,5.82,0,0,1-2.78-.7l-33.45-18L770,628.51a41.41,41.41,0,0,1-59.09-31.32l-1.08-7.38-2.55.38Z"/>
        <path class="cls-3" d="M695.61,600.58A47.87,47.87,0,0,0,760,621.93l166.8-84.12,20.82,11.89a8.06,8.06,0,0,0,9.1-.74l3.67-3-1.63-2-3.66,3a5.52,5.52,0,0,1-6.2.51l-22-12.59-168,84.75a45.31,45.31,0,0,1-61-20.2l-2.3,1.15Z"/>
        <path class="cls-3" d="M686.64,604.88a39.81,39.81,0,0,0,8.49,7.67,42.55,42.55,0,0,0,24.3,7.61c7.34,0,15.79-1.84,25.21-6.73,33-17.13,166.23-85.33,187.62-96.28a4.39,4.39,0,0,1,2-.49,4.46,4.46,0,0,1,2.38.7l10.88,6.88,1.38-2.17L938,515.18a7.05,7.05,0,0,0-3.76-1.09,6.94,6.94,0,0,0-3.19.77c-21.4,10.95-154.61,79.14-187.63,96.28-9.11,4.72-17.13,6.45-24,6.45a40.08,40.08,0,0,1-22.84-7.16,42.1,42.1,0,0,1-5.93-4.93c-.67-.67-1.17-1.22-1.5-1.61l-.36-.44-.09-.1,0,0-2.05,1.56Z"/>
        <polygon class="cls-3" points="938.56 494.26 702.72 611.73 685.59 601.63 684.28 603.85 702.62 614.66 939.71 496.57 938.56 494.26 938.56 494.26"/>
        <path class="cls-3" d="M877.6,487.92l13.56,7.1a2,2,0,0,1,0,3.48l-178.2,91.75,0,0h0a16.75,16.75,0,0,1-7.66,2.35,6.85,6.85,0,0,1-4.85-1.77l-1.74,1.9a9.47,9.47,0,0,0,6.59,2.45,19,19,0,0,0,9.06-2.77l-.69-1.08.59,1.14,178.15-91.72a4.54,4.54,0,0,0,0-8.05l-13.55-7.1-1.2,2.28Z"/>
        <path class="cls-3" d="M835.3,479.73l-6.87,3.7a4.27,4.27,0,0,0,0,7.55l22.34,11.69L738.47,558.84l1.16,2.3,116.84-58.42-26.81-14a1.7,1.7,0,0,1,0-3l6.87-3.7-1.22-2.27Z"/>
        <path class="cls-3" d="M777.13,472l-5.82,2.91a4.62,4.62,0,0,0,0,8.27L813,503.63l-72.3,37,1.18,2.3,76.86-39.37-46.29-22.73a2,2,0,0,1,0-3.66l5.82-2.9L777.13,472Z"/>
        <polygon class="cls-3" points="752.94 492.88 775.9 506.66 743.04 522.45 744.15 524.77 781.32 506.91 754.26 490.68 752.94 492.88 752.94 492.88"/>
        <path class="cls-2" d="M63.46,604.71c0-2.68-2.85-4.85-6.36-4.85s-6.37,2.17-6.37,4.85,2.85,4.85,6.37,4.85S63.46,607.39,63.46,604.71Z"/>
        <path class="cls-2" d="M248.41,488c0-2.68-2.86-4.85-6.37-4.85s-6.37,2.17-6.37,4.85,2.85,4.85,6.37,4.85S248.41,490.68,248.41,488Z"/>
        <path class="cls-2" d="M29.36,599.7c0-2.67-2.85-4.85-6.37-4.85s-6.36,2.18-6.36,4.85,2.85,4.85,6.36,4.85S29.36,602.38,29.36,599.7Z"/>
        <path class="cls-2" d="M27.08,567.11c0-2.34-2.84-4.24-6.36-4.24s-6.37,1.9-6.37,4.24,2.85,4.25,6.37,4.25S27.08,569.46,27.08,567.11Z"/>
        <path class="cls-2" d="M37.09,542.25c0-2.34-2.85-4.24-6.37-4.24s-6.36,1.9-6.36,4.24,2.85,4.25,6.36,4.25S37.09,544.6,37.09,542.25Z"/>
        <path class="cls-2" d="M49.22,521.64c0-2.34-2.85-4.24-6.37-4.24s-6.37,1.9-6.37,4.24,2.85,4.25,6.37,4.25S49.22,524,49.22,521.64Z"/>
        <path class="cls-2" d="M57.4,491.63c0-2.35-2.85-4.25-6.36-4.25s-6.37,1.9-6.37,4.25,2.85,4.24,6.37,4.24S57.4,494,57.4,491.63Z"/>
        <path class="cls-2" d="M127.73,484.66c0-2.35-2.85-4.25-6.36-4.25s-6.37,1.9-6.37,4.25,2.85,4.24,6.37,4.24S127.73,487,127.73,484.66Z"/>
        <path class="cls-2" d="M160.17,477.68c0-2.34-2.85-4.24-6.37-4.24s-6.36,1.9-6.36,4.24,2.85,4.25,6.36,4.25S160.17,480,160.17,477.68Z"/>
        <path class="cls-2" d="M220.5,470.41c0-2.35-2.85-4.25-6.37-4.25s-6.36,1.9-6.36,4.25,2.85,4.24,6.36,4.24S220.5,472.75,220.5,470.41Z"/>
        <path class="cls-3" d="M252.26,558.88l-1.81,44.18a46.69,46.69,0,0,1-67.86,39.85L82,592.06l-20.57,9.35,1.06,2.35,19.45-8.84,99.5,50.29a49.27,49.27,0,0,0,71.6-42l1.8-44.19-2.57-.1Z"/>
        <path class="cls-3" d="M271.36,579.24l-2.22,18.69a45.61,45.61,0,0,1-65.26,35.72L77.57,572.51,26.08,596.87l1.1,2.33,50.38-23.84L202.76,636a48.18,48.18,0,0,0,68.94-37.74l2.22-18.69-2.56-.3Z"/>
        <path class="cls-3" d="M284.55,588.76l-1.08,7.37a41.41,41.41,0,0,1-59.09,31.32L71.16,553.39l-33.45,18a5.86,5.86,0,0,1-5.7-.08l-7.24-4.16-1.28,2.24,7.23,4.15a8.42,8.42,0,0,0,8.21.12l32.3-17.36,152,73.49A44,44,0,0,0,286,596.51l1.08-7.38-2.55-.37Z"/>
        <path class="cls-3" d="M296.5,598.37a45.31,45.31,0,0,1-60.95,20.2l-168-84.75-22,12.59a5.52,5.52,0,0,1-6.2-.51l-3.66-3-1.63,2,3.67,3a8.06,8.06,0,0,0,9.1.74l20.82-11.9,166.8,84.13a47.87,47.87,0,0,0,64.41-21.35l-2.3-1.15Z"/>
        <path class="cls-3" d="M305.72,602.26l-.1.13a38.9,38.9,0,0,1-8.81,7.64,40,40,0,0,1-21.83,6.5c-6.9,0-14.92-1.73-24-6.45-33-17.14-166.23-85.33-187.63-96.28a7,7,0,0,0-7,.32L45.49,521l1.38,2.17,10.88-6.88a4.37,4.37,0,0,1,2.38-.7,4.32,4.32,0,0,1,2,.49c21.4,10.95,154.62,79.15,187.63,96.28,9.42,4.89,17.87,6.73,25.21,6.73a42.6,42.6,0,0,0,24.3-7.61,39.8,39.8,0,0,0,8.49-7.67l-2-1.56Z"/>
        <polygon class="cls-3" points="54.7 495.51 291.79 613.6 310.13 602.78 308.82 600.56 291.69 610.67 55.85 493.2 54.7 495.51 54.7 495.51"/>
        <path class="cls-3" d="M115.62,484.57l-13.56,7.11a4.54,4.54,0,0,0,0,8.05l178.16,91.72.59-1.14-.69,1.09a19.22,19.22,0,0,0,9.06,2.76,9.47,9.47,0,0,0,6.59-2.45l-1.74-1.9a6.89,6.89,0,0,1-4.85,1.77,14.34,14.34,0,0,1-5.31-1.18,19,19,0,0,1-1.75-.83l-.48-.26-.12-.08h0l0,0L103.26,497.44a2,2,0,0,1,0-3.48l13.56-7.1-1.19-2.29Z"/>
        <path class="cls-3" d="M157.89,480.94l6.87,3.7a1.69,1.69,0,0,1,0,3l-26.8,14,116.85,58.42,1.15-2.3L143.6,501.61l22.34-11.69a4.28,4.28,0,0,0,.05-7.55l-6.88-3.7-1.22,2.27Z"/>
        <path class="cls-3" d="M216.13,473.23l5.81,2.9a2,2,0,0,1,0,3.66l-46.29,22.73,76.86,39.37,1.18-2.3-72.29-37,41.68-20.46a4.62,4.62,0,0,0,0-8.27l-5.81-2.91-1.16,2.31Z"/>
        <polygon class="cls-3" points="240.15 489.61 213.09 505.85 250.26 523.71 251.37 521.39 218.51 505.6 241.47 491.82 240.15 489.61 240.15 489.61"/>
      </g>
    </g>
    <g id="Layer_10" data-name="Layer 10">
      <g>
        <circle class="cls-4" cx="500.85" cy="635.36" r="329.5"/>
        <g>
          <path class="cls-5" d="M480.13,59.33l0,0c11.24-6.23,25.73-5.25,41.28,3.65,33.41,19.11,60.83,68.5,63.44,113.61,15.07,14.07,25.77,38.44,25.77,59.32,0,13.41-4.35,23-11.28,27.5l.06,0-19.49,11.14-7.44-4.25,9.4-5.38a33.6,33.6,0,0,1-5.65-2.5l-.65-.36L464.1,198.33c-24.6-14.07-44.61-51.91-44.61-84.36,0-8.8,1.47-16.31,4.11-22.31l-6-3.46,18.21-10.42.07,0c7.45-3.81,16.92-3.35,27.24,2.25a52.07,52.07,0,0,1,3.75-7.51l-4.91-2.81,18.21-10.42,0,0,0,0Z"/>
          <path class="cls-6" d="M464.25,68c11.11-6.18,25.38-5.14,40.67,3.7C538.18,91,568.73,141.22,571.33,186.6,586.48,201.14,593.8,225,593.8,246c0,13.24-4.18,22.79-11,27.24h0l-19.09,11.1-6.14-3.55,9.72-5.62a32,32,0,0,1-7-2.9h0l-.64-.36L448.22,207.4C423.79,193.28,404,155.27,404,122.7c0-9.06,1.53-16.75,4.28-22.82h0l-5.57-3.23,17.23-10c7.35-3.72,16.6-3.21,26.68,2.31l.64.36.27-.69a51.72,51.72,0,0,1,4-8h0L447,78Z"/>
          <path class="cls-7" d="M453.45,75.79c9.94-3,21.76-1,34.28,6.32C520.87,101.34,548,151,550.63,196.42c15.1,14.54,25.68,39,25.68,59.91,0,12.62-3.78,21.87-10,26.58a17,17,0,0,1-10.93,3.44,27.54,27.54,0,0,1-13-4.11h0L431.24,217.77c-24.35-14.12-44.13-52.14-44.13-84.71,0-15.88,4.71-27.6,12.43-33.69a21.78,21.78,0,0,1,13.69-4.7c5,0,10.55,1.51,16.35,4.7l.64.35.27-.68c5-12.4,13-20.3,23-23.25Z"/>
        </g>
        <g>
          <g>
            <g>
              <path class="cls-8" d="M498.6,413.38c60.3,0,115.51,11.64,158.18,30.93,43.21,19.54,73.55,46.92,83.54,78h3.58v26.43c-2,35.49-30.12,67.54-74.7,90.64-44.12,22.85-104.28,36.93-170.6,36.93S372.11,662.2,328,639.34c-44.57-23.09-72.69-55.14-74.6-90.62h0l-.11-26.44h3.59c10-31,40.32-58.43,83.53-78C383.1,425,438.3,413.38,498.6,413.38Z"/>
              <ellipse id="ak563j3zyv" class="cls-9" cx="498.6" cy="522.83" rx="244.2" ry="130.35"/>
              <ellipse class="cls-10" cx="498.6" cy="522.83" rx="245.3" ry="131.45"/>
            </g>
            <path class="cls-8" d="M500,340c60.3,0,115.51,11.64,158.18,30.93,43.21,19.53,73.55,46.92,83.54,78h3.58V475.3c-2,35.49-30.12,67.54-74.7,90.63-44.12,22.86-104.28,36.94-170.6,36.94s-126.49-14.09-170.59-36.94c-44.56-23.09-72.69-55.15-74.6-90.63h0l-.11-26.43h3.59c10-31.05,40.33-58.44,83.53-78C384.51,351.61,439.71,340,500,340Z"/>
            <ellipse id="ak563j3zyv-2" data-name="ak563j3zyv" class="cls-11" cx="500.01" cy="449.42" rx="244.2" ry="130.35"/>
            <ellipse class="cls-12" cx="500.01" cy="449.42" rx="245.3" ry="131.45"/>
          </g>
          <g>
            <ellipse id="_3088e0uwcC" data-name="3088e0uwcC" class="cls-13" cx="495.8" cy="432.88" rx="181.1" ry="96.76"/>
            <path class="cls-14" d="M495.42,512.52c89.11,0,161.35-38.54,161.35-86.08s-72.24-86.09-161.35-86.09-161.35,38.54-161.35,86.09S406.31,512.52,495.42,512.52Z"/>
          </g>
          <g>
            <ellipse id="zk7vkyxoiI" class="cls-15" cx="496.35" cy="422.59" rx="136.5" ry="72.99"/>
            <ellipse id="zk7vkyxoiI-2" data-name="zk7vkyxoiI" class="cls-16" cx="496.35" cy="422.59" rx="136.5" ry="72.99"/>
            <ellipse id="zk7vkyxoiI-3" data-name="zk7vkyxoiI" class="cls-17" cx="496.35" cy="422.59" rx="136.5" ry="72.99"/>
            <ellipse class="cls-18" cx="496.35" cy="422.59" rx="137.45" ry="73.94"/>
          </g>
          <ellipse class="cls-19" cx="500.01" cy="448.88" rx="245.3" ry="131.99"/>
          <path class="cls-20" d="M370.88,449.71s28-45.65,126.12-44.24,122.82,46.12,122.82,46.12,16.71-18.59,12.24-36.94c-6.92-28.42-48.71-64.67-137.65-65.41-84.7-.71-129.77,40.31-133.88,64.7C357.24,433.47,370.88,449.71,370.88,449.71Z"/>
        </g>
      </g>
      <path class="cls-21" d="M365.94,436.76V71.58S393.32,6.22,505.46,8.84C602.94,11.12,630.65,75,630.65,75l-5,367.89S613,497.65,490.11,496.51C448.18,496.12,366.59,477.68,365.94,436.76Z"/>
      <line class="cls-22" x1="377" y1="453.47" x2="376.07" y2="98.17"/>
      <line class="cls-23" x1="617.82" y1="448.18" x2="616.89" y2="92.87"/>
      <line class="cls-24" x1="438.88" y1="425.82" x2="437.95" y2="295.59"/>
      <line class="cls-25" x1="410.65" y1="347.47" x2="409.72" y2="217.24"/>
      <line class="cls-26" x1="540.53" y1="390.88" x2="539.6" y2="260.65"/>
      <line class="cls-27" x1="572.29" y1="359.12" x2="571.36" y2="228.88"/>
      <line class="cls-28" x1="485.47" y1="364.41" x2="484.54" y2="234.18"/>
      <rect class="cls-2" x="480.53" y="354.82" width="9.76" height="14.18" rx="4.88"/>
      <rect class="cls-2" x="434.12" y="414.82" width="9.76" height="14.18" rx="4.88"/>
      <rect class="cls-2" x="405.18" y="340" width="9.76" height="14.18" rx="4.88"/>
      <rect class="cls-2" x="535.82" y="380.94" width="9.76" height="14.41" rx="4.88"/>
      <rect class="cls-2" x="567.41" y="349.71" width="9.76" height="14.41" rx="4.88"/>
    </g>
  </g>
</svg>
