<svg xmlns="http://www.w3.org/2000/svg" viewBox="0 0 11.079 7.757">
  <defs/>
  <path fill="#fff" d="M10.851 1.214a1.388 1.388 0 00-.976-.977A32.429 32.429 0 005.539 0a33.693 33.693 0 00-4.335.228 1.416 1.416 0 00-.976.986 14.625 14.625 0 00-.229 2.668 14.572 14.572 0 00.229 2.661 1.388 1.388 0 00.977.977 32.488 32.488 0 004.335.237 33.693 33.693 0 004.335-.228 1.388 1.388 0 00.977-.976 14.63 14.63 0 00.228-2.665 13.883 13.883 0 00-.228-2.674zM4.435 5.54V2.218l2.884 1.664zm0 0" data-name="1384028" opacity=".56"/>
</svg>
